G75*
%MOIN*%
%OFA0B0*%
%FSLAX25Y25*%
%IPPOS*%
%LPD*%
%AMOC8*
5,1,8,0,0,1.08239X$1,22.5*
%
%ADD10C,0.00000*%
%ADD11C,0.00500*%
D10*
X0001000Y0001000D02*
X0001000Y0291000D01*
X0195921Y0291000D01*
X0195921Y0001000D01*
X0001000Y0001000D01*
X0021531Y0031000D02*
X0021533Y0031088D01*
X0021539Y0031176D01*
X0021549Y0031264D01*
X0021563Y0031352D01*
X0021580Y0031438D01*
X0021602Y0031524D01*
X0021627Y0031608D01*
X0021657Y0031692D01*
X0021689Y0031774D01*
X0021726Y0031854D01*
X0021766Y0031933D01*
X0021810Y0032010D01*
X0021857Y0032085D01*
X0021907Y0032157D01*
X0021961Y0032228D01*
X0022017Y0032295D01*
X0022077Y0032361D01*
X0022139Y0032423D01*
X0022205Y0032483D01*
X0022272Y0032539D01*
X0022343Y0032593D01*
X0022415Y0032643D01*
X0022490Y0032690D01*
X0022567Y0032734D01*
X0022646Y0032774D01*
X0022726Y0032811D01*
X0022808Y0032843D01*
X0022892Y0032873D01*
X0022976Y0032898D01*
X0023062Y0032920D01*
X0023148Y0032937D01*
X0023236Y0032951D01*
X0023324Y0032961D01*
X0023412Y0032967D01*
X0023500Y0032969D01*
X0023588Y0032967D01*
X0023676Y0032961D01*
X0023764Y0032951D01*
X0023852Y0032937D01*
X0023938Y0032920D01*
X0024024Y0032898D01*
X0024108Y0032873D01*
X0024192Y0032843D01*
X0024274Y0032811D01*
X0024354Y0032774D01*
X0024433Y0032734D01*
X0024510Y0032690D01*
X0024585Y0032643D01*
X0024657Y0032593D01*
X0024728Y0032539D01*
X0024795Y0032483D01*
X0024861Y0032423D01*
X0024923Y0032361D01*
X0024983Y0032295D01*
X0025039Y0032228D01*
X0025093Y0032157D01*
X0025143Y0032085D01*
X0025190Y0032010D01*
X0025234Y0031933D01*
X0025274Y0031854D01*
X0025311Y0031774D01*
X0025343Y0031692D01*
X0025373Y0031608D01*
X0025398Y0031524D01*
X0025420Y0031438D01*
X0025437Y0031352D01*
X0025451Y0031264D01*
X0025461Y0031176D01*
X0025467Y0031088D01*
X0025469Y0031000D01*
X0025467Y0030912D01*
X0025461Y0030824D01*
X0025451Y0030736D01*
X0025437Y0030648D01*
X0025420Y0030562D01*
X0025398Y0030476D01*
X0025373Y0030392D01*
X0025343Y0030308D01*
X0025311Y0030226D01*
X0025274Y0030146D01*
X0025234Y0030067D01*
X0025190Y0029990D01*
X0025143Y0029915D01*
X0025093Y0029843D01*
X0025039Y0029772D01*
X0024983Y0029705D01*
X0024923Y0029639D01*
X0024861Y0029577D01*
X0024795Y0029517D01*
X0024728Y0029461D01*
X0024657Y0029407D01*
X0024585Y0029357D01*
X0024510Y0029310D01*
X0024433Y0029266D01*
X0024354Y0029226D01*
X0024274Y0029189D01*
X0024192Y0029157D01*
X0024108Y0029127D01*
X0024024Y0029102D01*
X0023938Y0029080D01*
X0023852Y0029063D01*
X0023764Y0029049D01*
X0023676Y0029039D01*
X0023588Y0029033D01*
X0023500Y0029031D01*
X0023412Y0029033D01*
X0023324Y0029039D01*
X0023236Y0029049D01*
X0023148Y0029063D01*
X0023062Y0029080D01*
X0022976Y0029102D01*
X0022892Y0029127D01*
X0022808Y0029157D01*
X0022726Y0029189D01*
X0022646Y0029226D01*
X0022567Y0029266D01*
X0022490Y0029310D01*
X0022415Y0029357D01*
X0022343Y0029407D01*
X0022272Y0029461D01*
X0022205Y0029517D01*
X0022139Y0029577D01*
X0022077Y0029639D01*
X0022017Y0029705D01*
X0021961Y0029772D01*
X0021907Y0029843D01*
X0021857Y0029915D01*
X0021810Y0029990D01*
X0021766Y0030067D01*
X0021726Y0030146D01*
X0021689Y0030226D01*
X0021657Y0030308D01*
X0021627Y0030392D01*
X0021602Y0030476D01*
X0021580Y0030562D01*
X0021563Y0030648D01*
X0021549Y0030736D01*
X0021539Y0030824D01*
X0021533Y0030912D01*
X0021531Y0031000D01*
X0021531Y0101000D02*
X0021533Y0101088D01*
X0021539Y0101176D01*
X0021549Y0101264D01*
X0021563Y0101352D01*
X0021580Y0101438D01*
X0021602Y0101524D01*
X0021627Y0101608D01*
X0021657Y0101692D01*
X0021689Y0101774D01*
X0021726Y0101854D01*
X0021766Y0101933D01*
X0021810Y0102010D01*
X0021857Y0102085D01*
X0021907Y0102157D01*
X0021961Y0102228D01*
X0022017Y0102295D01*
X0022077Y0102361D01*
X0022139Y0102423D01*
X0022205Y0102483D01*
X0022272Y0102539D01*
X0022343Y0102593D01*
X0022415Y0102643D01*
X0022490Y0102690D01*
X0022567Y0102734D01*
X0022646Y0102774D01*
X0022726Y0102811D01*
X0022808Y0102843D01*
X0022892Y0102873D01*
X0022976Y0102898D01*
X0023062Y0102920D01*
X0023148Y0102937D01*
X0023236Y0102951D01*
X0023324Y0102961D01*
X0023412Y0102967D01*
X0023500Y0102969D01*
X0023588Y0102967D01*
X0023676Y0102961D01*
X0023764Y0102951D01*
X0023852Y0102937D01*
X0023938Y0102920D01*
X0024024Y0102898D01*
X0024108Y0102873D01*
X0024192Y0102843D01*
X0024274Y0102811D01*
X0024354Y0102774D01*
X0024433Y0102734D01*
X0024510Y0102690D01*
X0024585Y0102643D01*
X0024657Y0102593D01*
X0024728Y0102539D01*
X0024795Y0102483D01*
X0024861Y0102423D01*
X0024923Y0102361D01*
X0024983Y0102295D01*
X0025039Y0102228D01*
X0025093Y0102157D01*
X0025143Y0102085D01*
X0025190Y0102010D01*
X0025234Y0101933D01*
X0025274Y0101854D01*
X0025311Y0101774D01*
X0025343Y0101692D01*
X0025373Y0101608D01*
X0025398Y0101524D01*
X0025420Y0101438D01*
X0025437Y0101352D01*
X0025451Y0101264D01*
X0025461Y0101176D01*
X0025467Y0101088D01*
X0025469Y0101000D01*
X0025467Y0100912D01*
X0025461Y0100824D01*
X0025451Y0100736D01*
X0025437Y0100648D01*
X0025420Y0100562D01*
X0025398Y0100476D01*
X0025373Y0100392D01*
X0025343Y0100308D01*
X0025311Y0100226D01*
X0025274Y0100146D01*
X0025234Y0100067D01*
X0025190Y0099990D01*
X0025143Y0099915D01*
X0025093Y0099843D01*
X0025039Y0099772D01*
X0024983Y0099705D01*
X0024923Y0099639D01*
X0024861Y0099577D01*
X0024795Y0099517D01*
X0024728Y0099461D01*
X0024657Y0099407D01*
X0024585Y0099357D01*
X0024510Y0099310D01*
X0024433Y0099266D01*
X0024354Y0099226D01*
X0024274Y0099189D01*
X0024192Y0099157D01*
X0024108Y0099127D01*
X0024024Y0099102D01*
X0023938Y0099080D01*
X0023852Y0099063D01*
X0023764Y0099049D01*
X0023676Y0099039D01*
X0023588Y0099033D01*
X0023500Y0099031D01*
X0023412Y0099033D01*
X0023324Y0099039D01*
X0023236Y0099049D01*
X0023148Y0099063D01*
X0023062Y0099080D01*
X0022976Y0099102D01*
X0022892Y0099127D01*
X0022808Y0099157D01*
X0022726Y0099189D01*
X0022646Y0099226D01*
X0022567Y0099266D01*
X0022490Y0099310D01*
X0022415Y0099357D01*
X0022343Y0099407D01*
X0022272Y0099461D01*
X0022205Y0099517D01*
X0022139Y0099577D01*
X0022077Y0099639D01*
X0022017Y0099705D01*
X0021961Y0099772D01*
X0021907Y0099843D01*
X0021857Y0099915D01*
X0021810Y0099990D01*
X0021766Y0100067D01*
X0021726Y0100146D01*
X0021689Y0100226D01*
X0021657Y0100308D01*
X0021627Y0100392D01*
X0021602Y0100476D01*
X0021580Y0100562D01*
X0021563Y0100648D01*
X0021549Y0100736D01*
X0021539Y0100824D01*
X0021533Y0100912D01*
X0021531Y0101000D01*
X0021531Y0171000D02*
X0021533Y0171088D01*
X0021539Y0171176D01*
X0021549Y0171264D01*
X0021563Y0171352D01*
X0021580Y0171438D01*
X0021602Y0171524D01*
X0021627Y0171608D01*
X0021657Y0171692D01*
X0021689Y0171774D01*
X0021726Y0171854D01*
X0021766Y0171933D01*
X0021810Y0172010D01*
X0021857Y0172085D01*
X0021907Y0172157D01*
X0021961Y0172228D01*
X0022017Y0172295D01*
X0022077Y0172361D01*
X0022139Y0172423D01*
X0022205Y0172483D01*
X0022272Y0172539D01*
X0022343Y0172593D01*
X0022415Y0172643D01*
X0022490Y0172690D01*
X0022567Y0172734D01*
X0022646Y0172774D01*
X0022726Y0172811D01*
X0022808Y0172843D01*
X0022892Y0172873D01*
X0022976Y0172898D01*
X0023062Y0172920D01*
X0023148Y0172937D01*
X0023236Y0172951D01*
X0023324Y0172961D01*
X0023412Y0172967D01*
X0023500Y0172969D01*
X0023588Y0172967D01*
X0023676Y0172961D01*
X0023764Y0172951D01*
X0023852Y0172937D01*
X0023938Y0172920D01*
X0024024Y0172898D01*
X0024108Y0172873D01*
X0024192Y0172843D01*
X0024274Y0172811D01*
X0024354Y0172774D01*
X0024433Y0172734D01*
X0024510Y0172690D01*
X0024585Y0172643D01*
X0024657Y0172593D01*
X0024728Y0172539D01*
X0024795Y0172483D01*
X0024861Y0172423D01*
X0024923Y0172361D01*
X0024983Y0172295D01*
X0025039Y0172228D01*
X0025093Y0172157D01*
X0025143Y0172085D01*
X0025190Y0172010D01*
X0025234Y0171933D01*
X0025274Y0171854D01*
X0025311Y0171774D01*
X0025343Y0171692D01*
X0025373Y0171608D01*
X0025398Y0171524D01*
X0025420Y0171438D01*
X0025437Y0171352D01*
X0025451Y0171264D01*
X0025461Y0171176D01*
X0025467Y0171088D01*
X0025469Y0171000D01*
X0025467Y0170912D01*
X0025461Y0170824D01*
X0025451Y0170736D01*
X0025437Y0170648D01*
X0025420Y0170562D01*
X0025398Y0170476D01*
X0025373Y0170392D01*
X0025343Y0170308D01*
X0025311Y0170226D01*
X0025274Y0170146D01*
X0025234Y0170067D01*
X0025190Y0169990D01*
X0025143Y0169915D01*
X0025093Y0169843D01*
X0025039Y0169772D01*
X0024983Y0169705D01*
X0024923Y0169639D01*
X0024861Y0169577D01*
X0024795Y0169517D01*
X0024728Y0169461D01*
X0024657Y0169407D01*
X0024585Y0169357D01*
X0024510Y0169310D01*
X0024433Y0169266D01*
X0024354Y0169226D01*
X0024274Y0169189D01*
X0024192Y0169157D01*
X0024108Y0169127D01*
X0024024Y0169102D01*
X0023938Y0169080D01*
X0023852Y0169063D01*
X0023764Y0169049D01*
X0023676Y0169039D01*
X0023588Y0169033D01*
X0023500Y0169031D01*
X0023412Y0169033D01*
X0023324Y0169039D01*
X0023236Y0169049D01*
X0023148Y0169063D01*
X0023062Y0169080D01*
X0022976Y0169102D01*
X0022892Y0169127D01*
X0022808Y0169157D01*
X0022726Y0169189D01*
X0022646Y0169226D01*
X0022567Y0169266D01*
X0022490Y0169310D01*
X0022415Y0169357D01*
X0022343Y0169407D01*
X0022272Y0169461D01*
X0022205Y0169517D01*
X0022139Y0169577D01*
X0022077Y0169639D01*
X0022017Y0169705D01*
X0021961Y0169772D01*
X0021907Y0169843D01*
X0021857Y0169915D01*
X0021810Y0169990D01*
X0021766Y0170067D01*
X0021726Y0170146D01*
X0021689Y0170226D01*
X0021657Y0170308D01*
X0021627Y0170392D01*
X0021602Y0170476D01*
X0021580Y0170562D01*
X0021563Y0170648D01*
X0021549Y0170736D01*
X0021539Y0170824D01*
X0021533Y0170912D01*
X0021531Y0171000D01*
X0021531Y0241000D02*
X0021533Y0241088D01*
X0021539Y0241176D01*
X0021549Y0241264D01*
X0021563Y0241352D01*
X0021580Y0241438D01*
X0021602Y0241524D01*
X0021627Y0241608D01*
X0021657Y0241692D01*
X0021689Y0241774D01*
X0021726Y0241854D01*
X0021766Y0241933D01*
X0021810Y0242010D01*
X0021857Y0242085D01*
X0021907Y0242157D01*
X0021961Y0242228D01*
X0022017Y0242295D01*
X0022077Y0242361D01*
X0022139Y0242423D01*
X0022205Y0242483D01*
X0022272Y0242539D01*
X0022343Y0242593D01*
X0022415Y0242643D01*
X0022490Y0242690D01*
X0022567Y0242734D01*
X0022646Y0242774D01*
X0022726Y0242811D01*
X0022808Y0242843D01*
X0022892Y0242873D01*
X0022976Y0242898D01*
X0023062Y0242920D01*
X0023148Y0242937D01*
X0023236Y0242951D01*
X0023324Y0242961D01*
X0023412Y0242967D01*
X0023500Y0242969D01*
X0023588Y0242967D01*
X0023676Y0242961D01*
X0023764Y0242951D01*
X0023852Y0242937D01*
X0023938Y0242920D01*
X0024024Y0242898D01*
X0024108Y0242873D01*
X0024192Y0242843D01*
X0024274Y0242811D01*
X0024354Y0242774D01*
X0024433Y0242734D01*
X0024510Y0242690D01*
X0024585Y0242643D01*
X0024657Y0242593D01*
X0024728Y0242539D01*
X0024795Y0242483D01*
X0024861Y0242423D01*
X0024923Y0242361D01*
X0024983Y0242295D01*
X0025039Y0242228D01*
X0025093Y0242157D01*
X0025143Y0242085D01*
X0025190Y0242010D01*
X0025234Y0241933D01*
X0025274Y0241854D01*
X0025311Y0241774D01*
X0025343Y0241692D01*
X0025373Y0241608D01*
X0025398Y0241524D01*
X0025420Y0241438D01*
X0025437Y0241352D01*
X0025451Y0241264D01*
X0025461Y0241176D01*
X0025467Y0241088D01*
X0025469Y0241000D01*
X0025467Y0240912D01*
X0025461Y0240824D01*
X0025451Y0240736D01*
X0025437Y0240648D01*
X0025420Y0240562D01*
X0025398Y0240476D01*
X0025373Y0240392D01*
X0025343Y0240308D01*
X0025311Y0240226D01*
X0025274Y0240146D01*
X0025234Y0240067D01*
X0025190Y0239990D01*
X0025143Y0239915D01*
X0025093Y0239843D01*
X0025039Y0239772D01*
X0024983Y0239705D01*
X0024923Y0239639D01*
X0024861Y0239577D01*
X0024795Y0239517D01*
X0024728Y0239461D01*
X0024657Y0239407D01*
X0024585Y0239357D01*
X0024510Y0239310D01*
X0024433Y0239266D01*
X0024354Y0239226D01*
X0024274Y0239189D01*
X0024192Y0239157D01*
X0024108Y0239127D01*
X0024024Y0239102D01*
X0023938Y0239080D01*
X0023852Y0239063D01*
X0023764Y0239049D01*
X0023676Y0239039D01*
X0023588Y0239033D01*
X0023500Y0239031D01*
X0023412Y0239033D01*
X0023324Y0239039D01*
X0023236Y0239049D01*
X0023148Y0239063D01*
X0023062Y0239080D01*
X0022976Y0239102D01*
X0022892Y0239127D01*
X0022808Y0239157D01*
X0022726Y0239189D01*
X0022646Y0239226D01*
X0022567Y0239266D01*
X0022490Y0239310D01*
X0022415Y0239357D01*
X0022343Y0239407D01*
X0022272Y0239461D01*
X0022205Y0239517D01*
X0022139Y0239577D01*
X0022077Y0239639D01*
X0022017Y0239705D01*
X0021961Y0239772D01*
X0021907Y0239843D01*
X0021857Y0239915D01*
X0021810Y0239990D01*
X0021766Y0240067D01*
X0021726Y0240146D01*
X0021689Y0240226D01*
X0021657Y0240308D01*
X0021627Y0240392D01*
X0021602Y0240476D01*
X0021580Y0240562D01*
X0021563Y0240648D01*
X0021549Y0240736D01*
X0021539Y0240824D01*
X0021533Y0240912D01*
X0021531Y0241000D01*
X0096531Y0241000D02*
X0096533Y0241088D01*
X0096539Y0241176D01*
X0096549Y0241264D01*
X0096563Y0241352D01*
X0096580Y0241438D01*
X0096602Y0241524D01*
X0096627Y0241608D01*
X0096657Y0241692D01*
X0096689Y0241774D01*
X0096726Y0241854D01*
X0096766Y0241933D01*
X0096810Y0242010D01*
X0096857Y0242085D01*
X0096907Y0242157D01*
X0096961Y0242228D01*
X0097017Y0242295D01*
X0097077Y0242361D01*
X0097139Y0242423D01*
X0097205Y0242483D01*
X0097272Y0242539D01*
X0097343Y0242593D01*
X0097415Y0242643D01*
X0097490Y0242690D01*
X0097567Y0242734D01*
X0097646Y0242774D01*
X0097726Y0242811D01*
X0097808Y0242843D01*
X0097892Y0242873D01*
X0097976Y0242898D01*
X0098062Y0242920D01*
X0098148Y0242937D01*
X0098236Y0242951D01*
X0098324Y0242961D01*
X0098412Y0242967D01*
X0098500Y0242969D01*
X0098588Y0242967D01*
X0098676Y0242961D01*
X0098764Y0242951D01*
X0098852Y0242937D01*
X0098938Y0242920D01*
X0099024Y0242898D01*
X0099108Y0242873D01*
X0099192Y0242843D01*
X0099274Y0242811D01*
X0099354Y0242774D01*
X0099433Y0242734D01*
X0099510Y0242690D01*
X0099585Y0242643D01*
X0099657Y0242593D01*
X0099728Y0242539D01*
X0099795Y0242483D01*
X0099861Y0242423D01*
X0099923Y0242361D01*
X0099983Y0242295D01*
X0100039Y0242228D01*
X0100093Y0242157D01*
X0100143Y0242085D01*
X0100190Y0242010D01*
X0100234Y0241933D01*
X0100274Y0241854D01*
X0100311Y0241774D01*
X0100343Y0241692D01*
X0100373Y0241608D01*
X0100398Y0241524D01*
X0100420Y0241438D01*
X0100437Y0241352D01*
X0100451Y0241264D01*
X0100461Y0241176D01*
X0100467Y0241088D01*
X0100469Y0241000D01*
X0100467Y0240912D01*
X0100461Y0240824D01*
X0100451Y0240736D01*
X0100437Y0240648D01*
X0100420Y0240562D01*
X0100398Y0240476D01*
X0100373Y0240392D01*
X0100343Y0240308D01*
X0100311Y0240226D01*
X0100274Y0240146D01*
X0100234Y0240067D01*
X0100190Y0239990D01*
X0100143Y0239915D01*
X0100093Y0239843D01*
X0100039Y0239772D01*
X0099983Y0239705D01*
X0099923Y0239639D01*
X0099861Y0239577D01*
X0099795Y0239517D01*
X0099728Y0239461D01*
X0099657Y0239407D01*
X0099585Y0239357D01*
X0099510Y0239310D01*
X0099433Y0239266D01*
X0099354Y0239226D01*
X0099274Y0239189D01*
X0099192Y0239157D01*
X0099108Y0239127D01*
X0099024Y0239102D01*
X0098938Y0239080D01*
X0098852Y0239063D01*
X0098764Y0239049D01*
X0098676Y0239039D01*
X0098588Y0239033D01*
X0098500Y0239031D01*
X0098412Y0239033D01*
X0098324Y0239039D01*
X0098236Y0239049D01*
X0098148Y0239063D01*
X0098062Y0239080D01*
X0097976Y0239102D01*
X0097892Y0239127D01*
X0097808Y0239157D01*
X0097726Y0239189D01*
X0097646Y0239226D01*
X0097567Y0239266D01*
X0097490Y0239310D01*
X0097415Y0239357D01*
X0097343Y0239407D01*
X0097272Y0239461D01*
X0097205Y0239517D01*
X0097139Y0239577D01*
X0097077Y0239639D01*
X0097017Y0239705D01*
X0096961Y0239772D01*
X0096907Y0239843D01*
X0096857Y0239915D01*
X0096810Y0239990D01*
X0096766Y0240067D01*
X0096726Y0240146D01*
X0096689Y0240226D01*
X0096657Y0240308D01*
X0096627Y0240392D01*
X0096602Y0240476D01*
X0096580Y0240562D01*
X0096563Y0240648D01*
X0096549Y0240736D01*
X0096539Y0240824D01*
X0096533Y0240912D01*
X0096531Y0241000D01*
X0096531Y0171000D02*
X0096533Y0171088D01*
X0096539Y0171176D01*
X0096549Y0171264D01*
X0096563Y0171352D01*
X0096580Y0171438D01*
X0096602Y0171524D01*
X0096627Y0171608D01*
X0096657Y0171692D01*
X0096689Y0171774D01*
X0096726Y0171854D01*
X0096766Y0171933D01*
X0096810Y0172010D01*
X0096857Y0172085D01*
X0096907Y0172157D01*
X0096961Y0172228D01*
X0097017Y0172295D01*
X0097077Y0172361D01*
X0097139Y0172423D01*
X0097205Y0172483D01*
X0097272Y0172539D01*
X0097343Y0172593D01*
X0097415Y0172643D01*
X0097490Y0172690D01*
X0097567Y0172734D01*
X0097646Y0172774D01*
X0097726Y0172811D01*
X0097808Y0172843D01*
X0097892Y0172873D01*
X0097976Y0172898D01*
X0098062Y0172920D01*
X0098148Y0172937D01*
X0098236Y0172951D01*
X0098324Y0172961D01*
X0098412Y0172967D01*
X0098500Y0172969D01*
X0098588Y0172967D01*
X0098676Y0172961D01*
X0098764Y0172951D01*
X0098852Y0172937D01*
X0098938Y0172920D01*
X0099024Y0172898D01*
X0099108Y0172873D01*
X0099192Y0172843D01*
X0099274Y0172811D01*
X0099354Y0172774D01*
X0099433Y0172734D01*
X0099510Y0172690D01*
X0099585Y0172643D01*
X0099657Y0172593D01*
X0099728Y0172539D01*
X0099795Y0172483D01*
X0099861Y0172423D01*
X0099923Y0172361D01*
X0099983Y0172295D01*
X0100039Y0172228D01*
X0100093Y0172157D01*
X0100143Y0172085D01*
X0100190Y0172010D01*
X0100234Y0171933D01*
X0100274Y0171854D01*
X0100311Y0171774D01*
X0100343Y0171692D01*
X0100373Y0171608D01*
X0100398Y0171524D01*
X0100420Y0171438D01*
X0100437Y0171352D01*
X0100451Y0171264D01*
X0100461Y0171176D01*
X0100467Y0171088D01*
X0100469Y0171000D01*
X0100467Y0170912D01*
X0100461Y0170824D01*
X0100451Y0170736D01*
X0100437Y0170648D01*
X0100420Y0170562D01*
X0100398Y0170476D01*
X0100373Y0170392D01*
X0100343Y0170308D01*
X0100311Y0170226D01*
X0100274Y0170146D01*
X0100234Y0170067D01*
X0100190Y0169990D01*
X0100143Y0169915D01*
X0100093Y0169843D01*
X0100039Y0169772D01*
X0099983Y0169705D01*
X0099923Y0169639D01*
X0099861Y0169577D01*
X0099795Y0169517D01*
X0099728Y0169461D01*
X0099657Y0169407D01*
X0099585Y0169357D01*
X0099510Y0169310D01*
X0099433Y0169266D01*
X0099354Y0169226D01*
X0099274Y0169189D01*
X0099192Y0169157D01*
X0099108Y0169127D01*
X0099024Y0169102D01*
X0098938Y0169080D01*
X0098852Y0169063D01*
X0098764Y0169049D01*
X0098676Y0169039D01*
X0098588Y0169033D01*
X0098500Y0169031D01*
X0098412Y0169033D01*
X0098324Y0169039D01*
X0098236Y0169049D01*
X0098148Y0169063D01*
X0098062Y0169080D01*
X0097976Y0169102D01*
X0097892Y0169127D01*
X0097808Y0169157D01*
X0097726Y0169189D01*
X0097646Y0169226D01*
X0097567Y0169266D01*
X0097490Y0169310D01*
X0097415Y0169357D01*
X0097343Y0169407D01*
X0097272Y0169461D01*
X0097205Y0169517D01*
X0097139Y0169577D01*
X0097077Y0169639D01*
X0097017Y0169705D01*
X0096961Y0169772D01*
X0096907Y0169843D01*
X0096857Y0169915D01*
X0096810Y0169990D01*
X0096766Y0170067D01*
X0096726Y0170146D01*
X0096689Y0170226D01*
X0096657Y0170308D01*
X0096627Y0170392D01*
X0096602Y0170476D01*
X0096580Y0170562D01*
X0096563Y0170648D01*
X0096549Y0170736D01*
X0096539Y0170824D01*
X0096533Y0170912D01*
X0096531Y0171000D01*
X0096531Y0101000D02*
X0096533Y0101088D01*
X0096539Y0101176D01*
X0096549Y0101264D01*
X0096563Y0101352D01*
X0096580Y0101438D01*
X0096602Y0101524D01*
X0096627Y0101608D01*
X0096657Y0101692D01*
X0096689Y0101774D01*
X0096726Y0101854D01*
X0096766Y0101933D01*
X0096810Y0102010D01*
X0096857Y0102085D01*
X0096907Y0102157D01*
X0096961Y0102228D01*
X0097017Y0102295D01*
X0097077Y0102361D01*
X0097139Y0102423D01*
X0097205Y0102483D01*
X0097272Y0102539D01*
X0097343Y0102593D01*
X0097415Y0102643D01*
X0097490Y0102690D01*
X0097567Y0102734D01*
X0097646Y0102774D01*
X0097726Y0102811D01*
X0097808Y0102843D01*
X0097892Y0102873D01*
X0097976Y0102898D01*
X0098062Y0102920D01*
X0098148Y0102937D01*
X0098236Y0102951D01*
X0098324Y0102961D01*
X0098412Y0102967D01*
X0098500Y0102969D01*
X0098588Y0102967D01*
X0098676Y0102961D01*
X0098764Y0102951D01*
X0098852Y0102937D01*
X0098938Y0102920D01*
X0099024Y0102898D01*
X0099108Y0102873D01*
X0099192Y0102843D01*
X0099274Y0102811D01*
X0099354Y0102774D01*
X0099433Y0102734D01*
X0099510Y0102690D01*
X0099585Y0102643D01*
X0099657Y0102593D01*
X0099728Y0102539D01*
X0099795Y0102483D01*
X0099861Y0102423D01*
X0099923Y0102361D01*
X0099983Y0102295D01*
X0100039Y0102228D01*
X0100093Y0102157D01*
X0100143Y0102085D01*
X0100190Y0102010D01*
X0100234Y0101933D01*
X0100274Y0101854D01*
X0100311Y0101774D01*
X0100343Y0101692D01*
X0100373Y0101608D01*
X0100398Y0101524D01*
X0100420Y0101438D01*
X0100437Y0101352D01*
X0100451Y0101264D01*
X0100461Y0101176D01*
X0100467Y0101088D01*
X0100469Y0101000D01*
X0100467Y0100912D01*
X0100461Y0100824D01*
X0100451Y0100736D01*
X0100437Y0100648D01*
X0100420Y0100562D01*
X0100398Y0100476D01*
X0100373Y0100392D01*
X0100343Y0100308D01*
X0100311Y0100226D01*
X0100274Y0100146D01*
X0100234Y0100067D01*
X0100190Y0099990D01*
X0100143Y0099915D01*
X0100093Y0099843D01*
X0100039Y0099772D01*
X0099983Y0099705D01*
X0099923Y0099639D01*
X0099861Y0099577D01*
X0099795Y0099517D01*
X0099728Y0099461D01*
X0099657Y0099407D01*
X0099585Y0099357D01*
X0099510Y0099310D01*
X0099433Y0099266D01*
X0099354Y0099226D01*
X0099274Y0099189D01*
X0099192Y0099157D01*
X0099108Y0099127D01*
X0099024Y0099102D01*
X0098938Y0099080D01*
X0098852Y0099063D01*
X0098764Y0099049D01*
X0098676Y0099039D01*
X0098588Y0099033D01*
X0098500Y0099031D01*
X0098412Y0099033D01*
X0098324Y0099039D01*
X0098236Y0099049D01*
X0098148Y0099063D01*
X0098062Y0099080D01*
X0097976Y0099102D01*
X0097892Y0099127D01*
X0097808Y0099157D01*
X0097726Y0099189D01*
X0097646Y0099226D01*
X0097567Y0099266D01*
X0097490Y0099310D01*
X0097415Y0099357D01*
X0097343Y0099407D01*
X0097272Y0099461D01*
X0097205Y0099517D01*
X0097139Y0099577D01*
X0097077Y0099639D01*
X0097017Y0099705D01*
X0096961Y0099772D01*
X0096907Y0099843D01*
X0096857Y0099915D01*
X0096810Y0099990D01*
X0096766Y0100067D01*
X0096726Y0100146D01*
X0096689Y0100226D01*
X0096657Y0100308D01*
X0096627Y0100392D01*
X0096602Y0100476D01*
X0096580Y0100562D01*
X0096563Y0100648D01*
X0096549Y0100736D01*
X0096539Y0100824D01*
X0096533Y0100912D01*
X0096531Y0101000D01*
X0096531Y0031000D02*
X0096533Y0031088D01*
X0096539Y0031176D01*
X0096549Y0031264D01*
X0096563Y0031352D01*
X0096580Y0031438D01*
X0096602Y0031524D01*
X0096627Y0031608D01*
X0096657Y0031692D01*
X0096689Y0031774D01*
X0096726Y0031854D01*
X0096766Y0031933D01*
X0096810Y0032010D01*
X0096857Y0032085D01*
X0096907Y0032157D01*
X0096961Y0032228D01*
X0097017Y0032295D01*
X0097077Y0032361D01*
X0097139Y0032423D01*
X0097205Y0032483D01*
X0097272Y0032539D01*
X0097343Y0032593D01*
X0097415Y0032643D01*
X0097490Y0032690D01*
X0097567Y0032734D01*
X0097646Y0032774D01*
X0097726Y0032811D01*
X0097808Y0032843D01*
X0097892Y0032873D01*
X0097976Y0032898D01*
X0098062Y0032920D01*
X0098148Y0032937D01*
X0098236Y0032951D01*
X0098324Y0032961D01*
X0098412Y0032967D01*
X0098500Y0032969D01*
X0098588Y0032967D01*
X0098676Y0032961D01*
X0098764Y0032951D01*
X0098852Y0032937D01*
X0098938Y0032920D01*
X0099024Y0032898D01*
X0099108Y0032873D01*
X0099192Y0032843D01*
X0099274Y0032811D01*
X0099354Y0032774D01*
X0099433Y0032734D01*
X0099510Y0032690D01*
X0099585Y0032643D01*
X0099657Y0032593D01*
X0099728Y0032539D01*
X0099795Y0032483D01*
X0099861Y0032423D01*
X0099923Y0032361D01*
X0099983Y0032295D01*
X0100039Y0032228D01*
X0100093Y0032157D01*
X0100143Y0032085D01*
X0100190Y0032010D01*
X0100234Y0031933D01*
X0100274Y0031854D01*
X0100311Y0031774D01*
X0100343Y0031692D01*
X0100373Y0031608D01*
X0100398Y0031524D01*
X0100420Y0031438D01*
X0100437Y0031352D01*
X0100451Y0031264D01*
X0100461Y0031176D01*
X0100467Y0031088D01*
X0100469Y0031000D01*
X0100467Y0030912D01*
X0100461Y0030824D01*
X0100451Y0030736D01*
X0100437Y0030648D01*
X0100420Y0030562D01*
X0100398Y0030476D01*
X0100373Y0030392D01*
X0100343Y0030308D01*
X0100311Y0030226D01*
X0100274Y0030146D01*
X0100234Y0030067D01*
X0100190Y0029990D01*
X0100143Y0029915D01*
X0100093Y0029843D01*
X0100039Y0029772D01*
X0099983Y0029705D01*
X0099923Y0029639D01*
X0099861Y0029577D01*
X0099795Y0029517D01*
X0099728Y0029461D01*
X0099657Y0029407D01*
X0099585Y0029357D01*
X0099510Y0029310D01*
X0099433Y0029266D01*
X0099354Y0029226D01*
X0099274Y0029189D01*
X0099192Y0029157D01*
X0099108Y0029127D01*
X0099024Y0029102D01*
X0098938Y0029080D01*
X0098852Y0029063D01*
X0098764Y0029049D01*
X0098676Y0029039D01*
X0098588Y0029033D01*
X0098500Y0029031D01*
X0098412Y0029033D01*
X0098324Y0029039D01*
X0098236Y0029049D01*
X0098148Y0029063D01*
X0098062Y0029080D01*
X0097976Y0029102D01*
X0097892Y0029127D01*
X0097808Y0029157D01*
X0097726Y0029189D01*
X0097646Y0029226D01*
X0097567Y0029266D01*
X0097490Y0029310D01*
X0097415Y0029357D01*
X0097343Y0029407D01*
X0097272Y0029461D01*
X0097205Y0029517D01*
X0097139Y0029577D01*
X0097077Y0029639D01*
X0097017Y0029705D01*
X0096961Y0029772D01*
X0096907Y0029843D01*
X0096857Y0029915D01*
X0096810Y0029990D01*
X0096766Y0030067D01*
X0096726Y0030146D01*
X0096689Y0030226D01*
X0096657Y0030308D01*
X0096627Y0030392D01*
X0096602Y0030476D01*
X0096580Y0030562D01*
X0096563Y0030648D01*
X0096549Y0030736D01*
X0096539Y0030824D01*
X0096533Y0030912D01*
X0096531Y0031000D01*
X0171531Y0031000D02*
X0171533Y0031088D01*
X0171539Y0031176D01*
X0171549Y0031264D01*
X0171563Y0031352D01*
X0171580Y0031438D01*
X0171602Y0031524D01*
X0171627Y0031608D01*
X0171657Y0031692D01*
X0171689Y0031774D01*
X0171726Y0031854D01*
X0171766Y0031933D01*
X0171810Y0032010D01*
X0171857Y0032085D01*
X0171907Y0032157D01*
X0171961Y0032228D01*
X0172017Y0032295D01*
X0172077Y0032361D01*
X0172139Y0032423D01*
X0172205Y0032483D01*
X0172272Y0032539D01*
X0172343Y0032593D01*
X0172415Y0032643D01*
X0172490Y0032690D01*
X0172567Y0032734D01*
X0172646Y0032774D01*
X0172726Y0032811D01*
X0172808Y0032843D01*
X0172892Y0032873D01*
X0172976Y0032898D01*
X0173062Y0032920D01*
X0173148Y0032937D01*
X0173236Y0032951D01*
X0173324Y0032961D01*
X0173412Y0032967D01*
X0173500Y0032969D01*
X0173588Y0032967D01*
X0173676Y0032961D01*
X0173764Y0032951D01*
X0173852Y0032937D01*
X0173938Y0032920D01*
X0174024Y0032898D01*
X0174108Y0032873D01*
X0174192Y0032843D01*
X0174274Y0032811D01*
X0174354Y0032774D01*
X0174433Y0032734D01*
X0174510Y0032690D01*
X0174585Y0032643D01*
X0174657Y0032593D01*
X0174728Y0032539D01*
X0174795Y0032483D01*
X0174861Y0032423D01*
X0174923Y0032361D01*
X0174983Y0032295D01*
X0175039Y0032228D01*
X0175093Y0032157D01*
X0175143Y0032085D01*
X0175190Y0032010D01*
X0175234Y0031933D01*
X0175274Y0031854D01*
X0175311Y0031774D01*
X0175343Y0031692D01*
X0175373Y0031608D01*
X0175398Y0031524D01*
X0175420Y0031438D01*
X0175437Y0031352D01*
X0175451Y0031264D01*
X0175461Y0031176D01*
X0175467Y0031088D01*
X0175469Y0031000D01*
X0175467Y0030912D01*
X0175461Y0030824D01*
X0175451Y0030736D01*
X0175437Y0030648D01*
X0175420Y0030562D01*
X0175398Y0030476D01*
X0175373Y0030392D01*
X0175343Y0030308D01*
X0175311Y0030226D01*
X0175274Y0030146D01*
X0175234Y0030067D01*
X0175190Y0029990D01*
X0175143Y0029915D01*
X0175093Y0029843D01*
X0175039Y0029772D01*
X0174983Y0029705D01*
X0174923Y0029639D01*
X0174861Y0029577D01*
X0174795Y0029517D01*
X0174728Y0029461D01*
X0174657Y0029407D01*
X0174585Y0029357D01*
X0174510Y0029310D01*
X0174433Y0029266D01*
X0174354Y0029226D01*
X0174274Y0029189D01*
X0174192Y0029157D01*
X0174108Y0029127D01*
X0174024Y0029102D01*
X0173938Y0029080D01*
X0173852Y0029063D01*
X0173764Y0029049D01*
X0173676Y0029039D01*
X0173588Y0029033D01*
X0173500Y0029031D01*
X0173412Y0029033D01*
X0173324Y0029039D01*
X0173236Y0029049D01*
X0173148Y0029063D01*
X0173062Y0029080D01*
X0172976Y0029102D01*
X0172892Y0029127D01*
X0172808Y0029157D01*
X0172726Y0029189D01*
X0172646Y0029226D01*
X0172567Y0029266D01*
X0172490Y0029310D01*
X0172415Y0029357D01*
X0172343Y0029407D01*
X0172272Y0029461D01*
X0172205Y0029517D01*
X0172139Y0029577D01*
X0172077Y0029639D01*
X0172017Y0029705D01*
X0171961Y0029772D01*
X0171907Y0029843D01*
X0171857Y0029915D01*
X0171810Y0029990D01*
X0171766Y0030067D01*
X0171726Y0030146D01*
X0171689Y0030226D01*
X0171657Y0030308D01*
X0171627Y0030392D01*
X0171602Y0030476D01*
X0171580Y0030562D01*
X0171563Y0030648D01*
X0171549Y0030736D01*
X0171539Y0030824D01*
X0171533Y0030912D01*
X0171531Y0031000D01*
X0171531Y0101000D02*
X0171533Y0101088D01*
X0171539Y0101176D01*
X0171549Y0101264D01*
X0171563Y0101352D01*
X0171580Y0101438D01*
X0171602Y0101524D01*
X0171627Y0101608D01*
X0171657Y0101692D01*
X0171689Y0101774D01*
X0171726Y0101854D01*
X0171766Y0101933D01*
X0171810Y0102010D01*
X0171857Y0102085D01*
X0171907Y0102157D01*
X0171961Y0102228D01*
X0172017Y0102295D01*
X0172077Y0102361D01*
X0172139Y0102423D01*
X0172205Y0102483D01*
X0172272Y0102539D01*
X0172343Y0102593D01*
X0172415Y0102643D01*
X0172490Y0102690D01*
X0172567Y0102734D01*
X0172646Y0102774D01*
X0172726Y0102811D01*
X0172808Y0102843D01*
X0172892Y0102873D01*
X0172976Y0102898D01*
X0173062Y0102920D01*
X0173148Y0102937D01*
X0173236Y0102951D01*
X0173324Y0102961D01*
X0173412Y0102967D01*
X0173500Y0102969D01*
X0173588Y0102967D01*
X0173676Y0102961D01*
X0173764Y0102951D01*
X0173852Y0102937D01*
X0173938Y0102920D01*
X0174024Y0102898D01*
X0174108Y0102873D01*
X0174192Y0102843D01*
X0174274Y0102811D01*
X0174354Y0102774D01*
X0174433Y0102734D01*
X0174510Y0102690D01*
X0174585Y0102643D01*
X0174657Y0102593D01*
X0174728Y0102539D01*
X0174795Y0102483D01*
X0174861Y0102423D01*
X0174923Y0102361D01*
X0174983Y0102295D01*
X0175039Y0102228D01*
X0175093Y0102157D01*
X0175143Y0102085D01*
X0175190Y0102010D01*
X0175234Y0101933D01*
X0175274Y0101854D01*
X0175311Y0101774D01*
X0175343Y0101692D01*
X0175373Y0101608D01*
X0175398Y0101524D01*
X0175420Y0101438D01*
X0175437Y0101352D01*
X0175451Y0101264D01*
X0175461Y0101176D01*
X0175467Y0101088D01*
X0175469Y0101000D01*
X0175467Y0100912D01*
X0175461Y0100824D01*
X0175451Y0100736D01*
X0175437Y0100648D01*
X0175420Y0100562D01*
X0175398Y0100476D01*
X0175373Y0100392D01*
X0175343Y0100308D01*
X0175311Y0100226D01*
X0175274Y0100146D01*
X0175234Y0100067D01*
X0175190Y0099990D01*
X0175143Y0099915D01*
X0175093Y0099843D01*
X0175039Y0099772D01*
X0174983Y0099705D01*
X0174923Y0099639D01*
X0174861Y0099577D01*
X0174795Y0099517D01*
X0174728Y0099461D01*
X0174657Y0099407D01*
X0174585Y0099357D01*
X0174510Y0099310D01*
X0174433Y0099266D01*
X0174354Y0099226D01*
X0174274Y0099189D01*
X0174192Y0099157D01*
X0174108Y0099127D01*
X0174024Y0099102D01*
X0173938Y0099080D01*
X0173852Y0099063D01*
X0173764Y0099049D01*
X0173676Y0099039D01*
X0173588Y0099033D01*
X0173500Y0099031D01*
X0173412Y0099033D01*
X0173324Y0099039D01*
X0173236Y0099049D01*
X0173148Y0099063D01*
X0173062Y0099080D01*
X0172976Y0099102D01*
X0172892Y0099127D01*
X0172808Y0099157D01*
X0172726Y0099189D01*
X0172646Y0099226D01*
X0172567Y0099266D01*
X0172490Y0099310D01*
X0172415Y0099357D01*
X0172343Y0099407D01*
X0172272Y0099461D01*
X0172205Y0099517D01*
X0172139Y0099577D01*
X0172077Y0099639D01*
X0172017Y0099705D01*
X0171961Y0099772D01*
X0171907Y0099843D01*
X0171857Y0099915D01*
X0171810Y0099990D01*
X0171766Y0100067D01*
X0171726Y0100146D01*
X0171689Y0100226D01*
X0171657Y0100308D01*
X0171627Y0100392D01*
X0171602Y0100476D01*
X0171580Y0100562D01*
X0171563Y0100648D01*
X0171549Y0100736D01*
X0171539Y0100824D01*
X0171533Y0100912D01*
X0171531Y0101000D01*
X0171531Y0171000D02*
X0171533Y0171088D01*
X0171539Y0171176D01*
X0171549Y0171264D01*
X0171563Y0171352D01*
X0171580Y0171438D01*
X0171602Y0171524D01*
X0171627Y0171608D01*
X0171657Y0171692D01*
X0171689Y0171774D01*
X0171726Y0171854D01*
X0171766Y0171933D01*
X0171810Y0172010D01*
X0171857Y0172085D01*
X0171907Y0172157D01*
X0171961Y0172228D01*
X0172017Y0172295D01*
X0172077Y0172361D01*
X0172139Y0172423D01*
X0172205Y0172483D01*
X0172272Y0172539D01*
X0172343Y0172593D01*
X0172415Y0172643D01*
X0172490Y0172690D01*
X0172567Y0172734D01*
X0172646Y0172774D01*
X0172726Y0172811D01*
X0172808Y0172843D01*
X0172892Y0172873D01*
X0172976Y0172898D01*
X0173062Y0172920D01*
X0173148Y0172937D01*
X0173236Y0172951D01*
X0173324Y0172961D01*
X0173412Y0172967D01*
X0173500Y0172969D01*
X0173588Y0172967D01*
X0173676Y0172961D01*
X0173764Y0172951D01*
X0173852Y0172937D01*
X0173938Y0172920D01*
X0174024Y0172898D01*
X0174108Y0172873D01*
X0174192Y0172843D01*
X0174274Y0172811D01*
X0174354Y0172774D01*
X0174433Y0172734D01*
X0174510Y0172690D01*
X0174585Y0172643D01*
X0174657Y0172593D01*
X0174728Y0172539D01*
X0174795Y0172483D01*
X0174861Y0172423D01*
X0174923Y0172361D01*
X0174983Y0172295D01*
X0175039Y0172228D01*
X0175093Y0172157D01*
X0175143Y0172085D01*
X0175190Y0172010D01*
X0175234Y0171933D01*
X0175274Y0171854D01*
X0175311Y0171774D01*
X0175343Y0171692D01*
X0175373Y0171608D01*
X0175398Y0171524D01*
X0175420Y0171438D01*
X0175437Y0171352D01*
X0175451Y0171264D01*
X0175461Y0171176D01*
X0175467Y0171088D01*
X0175469Y0171000D01*
X0175467Y0170912D01*
X0175461Y0170824D01*
X0175451Y0170736D01*
X0175437Y0170648D01*
X0175420Y0170562D01*
X0175398Y0170476D01*
X0175373Y0170392D01*
X0175343Y0170308D01*
X0175311Y0170226D01*
X0175274Y0170146D01*
X0175234Y0170067D01*
X0175190Y0169990D01*
X0175143Y0169915D01*
X0175093Y0169843D01*
X0175039Y0169772D01*
X0174983Y0169705D01*
X0174923Y0169639D01*
X0174861Y0169577D01*
X0174795Y0169517D01*
X0174728Y0169461D01*
X0174657Y0169407D01*
X0174585Y0169357D01*
X0174510Y0169310D01*
X0174433Y0169266D01*
X0174354Y0169226D01*
X0174274Y0169189D01*
X0174192Y0169157D01*
X0174108Y0169127D01*
X0174024Y0169102D01*
X0173938Y0169080D01*
X0173852Y0169063D01*
X0173764Y0169049D01*
X0173676Y0169039D01*
X0173588Y0169033D01*
X0173500Y0169031D01*
X0173412Y0169033D01*
X0173324Y0169039D01*
X0173236Y0169049D01*
X0173148Y0169063D01*
X0173062Y0169080D01*
X0172976Y0169102D01*
X0172892Y0169127D01*
X0172808Y0169157D01*
X0172726Y0169189D01*
X0172646Y0169226D01*
X0172567Y0169266D01*
X0172490Y0169310D01*
X0172415Y0169357D01*
X0172343Y0169407D01*
X0172272Y0169461D01*
X0172205Y0169517D01*
X0172139Y0169577D01*
X0172077Y0169639D01*
X0172017Y0169705D01*
X0171961Y0169772D01*
X0171907Y0169843D01*
X0171857Y0169915D01*
X0171810Y0169990D01*
X0171766Y0170067D01*
X0171726Y0170146D01*
X0171689Y0170226D01*
X0171657Y0170308D01*
X0171627Y0170392D01*
X0171602Y0170476D01*
X0171580Y0170562D01*
X0171563Y0170648D01*
X0171549Y0170736D01*
X0171539Y0170824D01*
X0171533Y0170912D01*
X0171531Y0171000D01*
X0171531Y0241000D02*
X0171533Y0241088D01*
X0171539Y0241176D01*
X0171549Y0241264D01*
X0171563Y0241352D01*
X0171580Y0241438D01*
X0171602Y0241524D01*
X0171627Y0241608D01*
X0171657Y0241692D01*
X0171689Y0241774D01*
X0171726Y0241854D01*
X0171766Y0241933D01*
X0171810Y0242010D01*
X0171857Y0242085D01*
X0171907Y0242157D01*
X0171961Y0242228D01*
X0172017Y0242295D01*
X0172077Y0242361D01*
X0172139Y0242423D01*
X0172205Y0242483D01*
X0172272Y0242539D01*
X0172343Y0242593D01*
X0172415Y0242643D01*
X0172490Y0242690D01*
X0172567Y0242734D01*
X0172646Y0242774D01*
X0172726Y0242811D01*
X0172808Y0242843D01*
X0172892Y0242873D01*
X0172976Y0242898D01*
X0173062Y0242920D01*
X0173148Y0242937D01*
X0173236Y0242951D01*
X0173324Y0242961D01*
X0173412Y0242967D01*
X0173500Y0242969D01*
X0173588Y0242967D01*
X0173676Y0242961D01*
X0173764Y0242951D01*
X0173852Y0242937D01*
X0173938Y0242920D01*
X0174024Y0242898D01*
X0174108Y0242873D01*
X0174192Y0242843D01*
X0174274Y0242811D01*
X0174354Y0242774D01*
X0174433Y0242734D01*
X0174510Y0242690D01*
X0174585Y0242643D01*
X0174657Y0242593D01*
X0174728Y0242539D01*
X0174795Y0242483D01*
X0174861Y0242423D01*
X0174923Y0242361D01*
X0174983Y0242295D01*
X0175039Y0242228D01*
X0175093Y0242157D01*
X0175143Y0242085D01*
X0175190Y0242010D01*
X0175234Y0241933D01*
X0175274Y0241854D01*
X0175311Y0241774D01*
X0175343Y0241692D01*
X0175373Y0241608D01*
X0175398Y0241524D01*
X0175420Y0241438D01*
X0175437Y0241352D01*
X0175451Y0241264D01*
X0175461Y0241176D01*
X0175467Y0241088D01*
X0175469Y0241000D01*
X0175467Y0240912D01*
X0175461Y0240824D01*
X0175451Y0240736D01*
X0175437Y0240648D01*
X0175420Y0240562D01*
X0175398Y0240476D01*
X0175373Y0240392D01*
X0175343Y0240308D01*
X0175311Y0240226D01*
X0175274Y0240146D01*
X0175234Y0240067D01*
X0175190Y0239990D01*
X0175143Y0239915D01*
X0175093Y0239843D01*
X0175039Y0239772D01*
X0174983Y0239705D01*
X0174923Y0239639D01*
X0174861Y0239577D01*
X0174795Y0239517D01*
X0174728Y0239461D01*
X0174657Y0239407D01*
X0174585Y0239357D01*
X0174510Y0239310D01*
X0174433Y0239266D01*
X0174354Y0239226D01*
X0174274Y0239189D01*
X0174192Y0239157D01*
X0174108Y0239127D01*
X0174024Y0239102D01*
X0173938Y0239080D01*
X0173852Y0239063D01*
X0173764Y0239049D01*
X0173676Y0239039D01*
X0173588Y0239033D01*
X0173500Y0239031D01*
X0173412Y0239033D01*
X0173324Y0239039D01*
X0173236Y0239049D01*
X0173148Y0239063D01*
X0173062Y0239080D01*
X0172976Y0239102D01*
X0172892Y0239127D01*
X0172808Y0239157D01*
X0172726Y0239189D01*
X0172646Y0239226D01*
X0172567Y0239266D01*
X0172490Y0239310D01*
X0172415Y0239357D01*
X0172343Y0239407D01*
X0172272Y0239461D01*
X0172205Y0239517D01*
X0172139Y0239577D01*
X0172077Y0239639D01*
X0172017Y0239705D01*
X0171961Y0239772D01*
X0171907Y0239843D01*
X0171857Y0239915D01*
X0171810Y0239990D01*
X0171766Y0240067D01*
X0171726Y0240146D01*
X0171689Y0240226D01*
X0171657Y0240308D01*
X0171627Y0240392D01*
X0171602Y0240476D01*
X0171580Y0240562D01*
X0171563Y0240648D01*
X0171549Y0240736D01*
X0171539Y0240824D01*
X0171533Y0240912D01*
X0171531Y0241000D01*
D11*
X0167478Y0239288D02*
X0104522Y0239288D01*
X0104718Y0239763D02*
X0103772Y0237477D01*
X0102022Y0235728D01*
X0099737Y0234781D01*
X0097263Y0234781D01*
X0094977Y0235728D01*
X0093228Y0237477D01*
X0092281Y0239763D01*
X0092281Y0242237D01*
X0093228Y0244522D01*
X0094977Y0246272D01*
X0097263Y0247218D01*
X0099737Y0247218D01*
X0102022Y0246272D01*
X0103772Y0244522D01*
X0104718Y0242237D01*
X0104718Y0239763D01*
X0104718Y0239787D02*
X0167281Y0239787D01*
X0167281Y0239763D02*
X0168228Y0237477D01*
X0169977Y0235728D01*
X0172263Y0234781D01*
X0174737Y0234781D01*
X0177022Y0235728D01*
X0178772Y0237477D01*
X0179718Y0239763D01*
X0179718Y0242237D01*
X0178772Y0244522D01*
X0177022Y0246272D01*
X0174737Y0247218D01*
X0172263Y0247218D01*
X0169977Y0246272D01*
X0168228Y0244522D01*
X0167281Y0242237D01*
X0167281Y0239763D01*
X0167281Y0240285D02*
X0104718Y0240285D01*
X0104718Y0240784D02*
X0167281Y0240784D01*
X0167281Y0241282D02*
X0104718Y0241282D01*
X0104718Y0241781D02*
X0167281Y0241781D01*
X0167299Y0242279D02*
X0104701Y0242279D01*
X0104494Y0242778D02*
X0167506Y0242778D01*
X0167712Y0243277D02*
X0104288Y0243277D01*
X0104081Y0243775D02*
X0167919Y0243775D01*
X0168125Y0244274D02*
X0103875Y0244274D01*
X0103522Y0244772D02*
X0168478Y0244772D01*
X0168976Y0245271D02*
X0103024Y0245271D01*
X0102525Y0245769D02*
X0169475Y0245769D01*
X0169973Y0246268D02*
X0102027Y0246268D01*
X0100829Y0246766D02*
X0171171Y0246766D01*
X0175829Y0246766D02*
X0191000Y0246766D01*
X0191000Y0246268D02*
X0177027Y0246268D01*
X0177525Y0245769D02*
X0191000Y0245769D01*
X0191000Y0245271D02*
X0178024Y0245271D01*
X0178522Y0244772D02*
X0191000Y0244772D01*
X0191000Y0244274D02*
X0178875Y0244274D01*
X0179081Y0243775D02*
X0191000Y0243775D01*
X0191000Y0243277D02*
X0179288Y0243277D01*
X0179494Y0242778D02*
X0191000Y0242778D01*
X0191000Y0242279D02*
X0179701Y0242279D01*
X0179718Y0241781D02*
X0191000Y0241781D01*
X0191000Y0241282D02*
X0179718Y0241282D01*
X0179718Y0240784D02*
X0191000Y0240784D01*
X0191000Y0240285D02*
X0179718Y0240285D01*
X0179718Y0239787D02*
X0191000Y0239787D01*
X0191000Y0239288D02*
X0179522Y0239288D01*
X0179315Y0238790D02*
X0191000Y0238790D01*
X0191000Y0238291D02*
X0179109Y0238291D01*
X0178902Y0237793D02*
X0191000Y0237793D01*
X0191000Y0237294D02*
X0178589Y0237294D01*
X0178090Y0236796D02*
X0191000Y0236796D01*
X0191000Y0236297D02*
X0177592Y0236297D01*
X0177093Y0235799D02*
X0191000Y0235799D01*
X0191000Y0235300D02*
X0175989Y0235300D01*
X0174786Y0234802D02*
X0191000Y0234802D01*
X0191000Y0234303D02*
X0068085Y0234303D01*
X0068085Y0233805D02*
X0191000Y0233805D01*
X0191000Y0233306D02*
X0067885Y0233306D01*
X0068085Y0233789D02*
X0067666Y0232778D01*
X0066893Y0232005D01*
X0063556Y0228669D01*
X0062546Y0228250D01*
X0054779Y0228250D01*
X0053769Y0228669D01*
X0052995Y0229442D01*
X0049659Y0232778D01*
X0049240Y0233789D01*
X0049240Y0248228D01*
X0049659Y0249239D01*
X0050432Y0250012D01*
X0053769Y0253348D01*
X0054779Y0253767D01*
X0062546Y0253767D01*
X0063556Y0253348D01*
X0064330Y0252575D01*
X0067666Y0249239D01*
X0068085Y0248228D01*
X0068085Y0247134D01*
X0067666Y0246123D01*
X0066893Y0245350D01*
X0065882Y0244931D01*
X0064788Y0244931D01*
X0063777Y0245350D01*
X0060860Y0248267D01*
X0056465Y0248267D01*
X0054740Y0246542D01*
X0054740Y0235475D01*
X0056465Y0233750D01*
X0060860Y0233750D01*
X0062585Y0235475D01*
X0062585Y0238259D01*
X0058116Y0238259D01*
X0057105Y0238677D01*
X0056331Y0239451D01*
X0055913Y0240462D01*
X0055913Y0241556D01*
X0056331Y0242566D01*
X0057105Y0243340D01*
X0058116Y0243759D01*
X0065882Y0243759D01*
X0066893Y0243340D01*
X0067666Y0242566D01*
X0068085Y0241556D01*
X0068085Y0233789D01*
X0068085Y0234802D02*
X0097214Y0234802D01*
X0096011Y0235300D02*
X0068085Y0235300D01*
X0068085Y0235799D02*
X0094907Y0235799D01*
X0094408Y0236297D02*
X0068085Y0236297D01*
X0068085Y0236796D02*
X0093910Y0236796D01*
X0093411Y0237294D02*
X0068085Y0237294D01*
X0068085Y0237793D02*
X0093098Y0237793D01*
X0092891Y0238291D02*
X0068085Y0238291D01*
X0068085Y0238790D02*
X0092685Y0238790D01*
X0092478Y0239288D02*
X0068085Y0239288D01*
X0068085Y0239787D02*
X0092281Y0239787D01*
X0092281Y0240285D02*
X0068085Y0240285D01*
X0068085Y0240784D02*
X0092281Y0240784D01*
X0092281Y0241282D02*
X0068085Y0241282D01*
X0067992Y0241781D02*
X0092281Y0241781D01*
X0092299Y0242279D02*
X0067785Y0242279D01*
X0067455Y0242778D02*
X0092506Y0242778D01*
X0092712Y0243277D02*
X0066956Y0243277D01*
X0066702Y0245271D02*
X0093976Y0245271D01*
X0094475Y0245769D02*
X0067312Y0245769D01*
X0067726Y0246268D02*
X0094973Y0246268D01*
X0096171Y0246766D02*
X0067933Y0246766D01*
X0068085Y0247265D02*
X0191000Y0247265D01*
X0191000Y0247763D02*
X0068085Y0247763D01*
X0068071Y0248262D02*
X0191000Y0248262D01*
X0191000Y0248760D02*
X0067864Y0248760D01*
X0067646Y0249259D02*
X0191000Y0249259D01*
X0191000Y0249757D02*
X0067148Y0249757D01*
X0066649Y0250256D02*
X0191000Y0250256D01*
X0191000Y0250754D02*
X0066151Y0250754D01*
X0065652Y0251253D02*
X0191000Y0251253D01*
X0191000Y0251751D02*
X0065154Y0251751D01*
X0064655Y0252250D02*
X0191000Y0252250D01*
X0191000Y0252748D02*
X0064157Y0252748D01*
X0063658Y0253247D02*
X0191000Y0253247D01*
X0191000Y0253745D02*
X0062598Y0253745D01*
X0060865Y0248262D02*
X0056460Y0248262D01*
X0055961Y0247763D02*
X0061364Y0247763D01*
X0061862Y0247265D02*
X0055463Y0247265D01*
X0054964Y0246766D02*
X0062361Y0246766D01*
X0062859Y0246268D02*
X0054740Y0246268D01*
X0054740Y0245769D02*
X0063358Y0245769D01*
X0063968Y0245271D02*
X0054740Y0245271D01*
X0054740Y0244772D02*
X0093478Y0244772D01*
X0093125Y0244274D02*
X0054740Y0244274D01*
X0054740Y0243775D02*
X0092919Y0243775D01*
X0099786Y0234802D02*
X0172214Y0234802D01*
X0171011Y0235300D02*
X0100989Y0235300D01*
X0102093Y0235799D02*
X0169907Y0235799D01*
X0169408Y0236297D02*
X0102592Y0236297D01*
X0103090Y0236796D02*
X0168910Y0236796D01*
X0168411Y0237294D02*
X0103589Y0237294D01*
X0103902Y0237793D02*
X0168098Y0237793D01*
X0167891Y0238291D02*
X0104109Y0238291D01*
X0104315Y0238790D02*
X0167685Y0238790D01*
X0171000Y0261000D02*
X0176000Y0261000D01*
X0176000Y0276000D01*
X0186000Y0276000D01*
X0186000Y0261000D01*
X0191000Y0261000D01*
X0191000Y0221000D01*
X0006000Y0221000D01*
X0006000Y0261000D01*
X0011000Y0261000D01*
X0011000Y0276000D01*
X0021000Y0276000D01*
X0021000Y0261000D01*
X0026000Y0261000D01*
X0026000Y0276000D01*
X0036000Y0276000D01*
X0036000Y0261000D01*
X0041000Y0261000D01*
X0041000Y0276000D01*
X0051000Y0276000D01*
X0051000Y0261000D01*
X0056000Y0261000D01*
X0056000Y0276000D01*
X0066000Y0276000D01*
X0066000Y0261000D01*
X0071000Y0261000D01*
X0071000Y0276000D01*
X0081000Y0276000D01*
X0081000Y0261000D01*
X0086000Y0261000D01*
X0086000Y0276000D01*
X0096000Y0276000D01*
X0096000Y0261000D01*
X0101000Y0261000D01*
X0101000Y0276000D01*
X0111000Y0276000D01*
X0111000Y0261000D01*
X0116000Y0261000D01*
X0116000Y0276000D01*
X0126000Y0276000D01*
X0126000Y0261000D01*
X0131000Y0261000D01*
X0131000Y0276000D01*
X0141000Y0276000D01*
X0141000Y0261000D01*
X0146000Y0261000D01*
X0146000Y0276000D01*
X0156000Y0276000D01*
X0156000Y0261000D01*
X0161000Y0261000D01*
X0161000Y0276000D01*
X0171000Y0276000D01*
X0171000Y0261000D01*
X0171000Y0261223D02*
X0161000Y0261223D01*
X0161000Y0261721D02*
X0171000Y0261721D01*
X0171000Y0262220D02*
X0161000Y0262220D01*
X0161000Y0262718D02*
X0171000Y0262718D01*
X0171000Y0263217D02*
X0161000Y0263217D01*
X0161000Y0263715D02*
X0171000Y0263715D01*
X0171000Y0264214D02*
X0161000Y0264214D01*
X0161000Y0264712D02*
X0171000Y0264712D01*
X0171000Y0265211D02*
X0161000Y0265211D01*
X0161000Y0265710D02*
X0171000Y0265710D01*
X0171000Y0266208D02*
X0161000Y0266208D01*
X0161000Y0266707D02*
X0171000Y0266707D01*
X0171000Y0267205D02*
X0161000Y0267205D01*
X0161000Y0267704D02*
X0171000Y0267704D01*
X0171000Y0268202D02*
X0161000Y0268202D01*
X0161000Y0268701D02*
X0171000Y0268701D01*
X0171000Y0269199D02*
X0161000Y0269199D01*
X0161000Y0269698D02*
X0171000Y0269698D01*
X0171000Y0270196D02*
X0161000Y0270196D01*
X0161000Y0270695D02*
X0171000Y0270695D01*
X0171000Y0271193D02*
X0161000Y0271193D01*
X0161000Y0271692D02*
X0171000Y0271692D01*
X0171000Y0272190D02*
X0161000Y0272190D01*
X0161000Y0272689D02*
X0171000Y0272689D01*
X0171000Y0273187D02*
X0161000Y0273187D01*
X0161000Y0273686D02*
X0171000Y0273686D01*
X0171000Y0274184D02*
X0161000Y0274184D01*
X0161000Y0274683D02*
X0171000Y0274683D01*
X0171000Y0275181D02*
X0161000Y0275181D01*
X0161000Y0275680D02*
X0171000Y0275680D01*
X0176000Y0275680D02*
X0186000Y0275680D01*
X0186000Y0275181D02*
X0176000Y0275181D01*
X0176000Y0274683D02*
X0186000Y0274683D01*
X0186000Y0274184D02*
X0176000Y0274184D01*
X0176000Y0273686D02*
X0186000Y0273686D01*
X0186000Y0273187D02*
X0176000Y0273187D01*
X0176000Y0272689D02*
X0186000Y0272689D01*
X0186000Y0272190D02*
X0176000Y0272190D01*
X0176000Y0271692D02*
X0186000Y0271692D01*
X0186000Y0271193D02*
X0176000Y0271193D01*
X0176000Y0270695D02*
X0186000Y0270695D01*
X0186000Y0270196D02*
X0176000Y0270196D01*
X0176000Y0269698D02*
X0186000Y0269698D01*
X0186000Y0269199D02*
X0176000Y0269199D01*
X0176000Y0268701D02*
X0186000Y0268701D01*
X0186000Y0268202D02*
X0176000Y0268202D01*
X0176000Y0267704D02*
X0186000Y0267704D01*
X0186000Y0267205D02*
X0176000Y0267205D01*
X0176000Y0266707D02*
X0186000Y0266707D01*
X0186000Y0266208D02*
X0176000Y0266208D01*
X0176000Y0265710D02*
X0186000Y0265710D01*
X0186000Y0265211D02*
X0176000Y0265211D01*
X0176000Y0264712D02*
X0186000Y0264712D01*
X0186000Y0264214D02*
X0176000Y0264214D01*
X0176000Y0263715D02*
X0186000Y0263715D01*
X0186000Y0263217D02*
X0176000Y0263217D01*
X0176000Y0262718D02*
X0186000Y0262718D01*
X0186000Y0262220D02*
X0176000Y0262220D01*
X0176000Y0261721D02*
X0186000Y0261721D01*
X0186000Y0261223D02*
X0176000Y0261223D01*
X0191000Y0260724D02*
X0006000Y0260724D01*
X0006000Y0260226D02*
X0191000Y0260226D01*
X0191000Y0259727D02*
X0006000Y0259727D01*
X0006000Y0259229D02*
X0191000Y0259229D01*
X0191000Y0258730D02*
X0006000Y0258730D01*
X0006000Y0258232D02*
X0191000Y0258232D01*
X0191000Y0257733D02*
X0006000Y0257733D01*
X0006000Y0257235D02*
X0191000Y0257235D01*
X0191000Y0256736D02*
X0006000Y0256736D01*
X0006000Y0256238D02*
X0191000Y0256238D01*
X0191000Y0255739D02*
X0006000Y0255739D01*
X0006000Y0255241D02*
X0191000Y0255241D01*
X0191000Y0254742D02*
X0006000Y0254742D01*
X0006000Y0254244D02*
X0191000Y0254244D01*
X0191000Y0232808D02*
X0067678Y0232808D01*
X0067197Y0232309D02*
X0191000Y0232309D01*
X0191000Y0231811D02*
X0066699Y0231811D01*
X0066200Y0231312D02*
X0191000Y0231312D01*
X0191000Y0230814D02*
X0065702Y0230814D01*
X0065203Y0230315D02*
X0191000Y0230315D01*
X0191000Y0229817D02*
X0064704Y0229817D01*
X0064206Y0229318D02*
X0191000Y0229318D01*
X0191000Y0228820D02*
X0063707Y0228820D01*
X0062718Y0228321D02*
X0191000Y0228321D01*
X0191000Y0227823D02*
X0006000Y0227823D01*
X0006000Y0228321D02*
X0054608Y0228321D01*
X0053618Y0228820D02*
X0006000Y0228820D01*
X0006000Y0229318D02*
X0053119Y0229318D01*
X0052621Y0229817D02*
X0006000Y0229817D01*
X0006000Y0230315D02*
X0052122Y0230315D01*
X0051624Y0230814D02*
X0006000Y0230814D01*
X0006000Y0231312D02*
X0051125Y0231312D01*
X0050627Y0231811D02*
X0006000Y0231811D01*
X0006000Y0232309D02*
X0050128Y0232309D01*
X0049647Y0232808D02*
X0006000Y0232808D01*
X0006000Y0233306D02*
X0049440Y0233306D01*
X0049240Y0233805D02*
X0006000Y0233805D01*
X0006000Y0234303D02*
X0049240Y0234303D01*
X0049240Y0234802D02*
X0024786Y0234802D01*
X0024737Y0234781D02*
X0027022Y0235728D01*
X0028772Y0237477D01*
X0029718Y0239763D01*
X0029718Y0242237D01*
X0028772Y0244522D01*
X0027022Y0246272D01*
X0024737Y0247218D01*
X0022263Y0247218D01*
X0019977Y0246272D01*
X0018228Y0244522D01*
X0017281Y0242237D01*
X0017281Y0239763D01*
X0018228Y0237477D01*
X0019977Y0235728D01*
X0022263Y0234781D01*
X0024737Y0234781D01*
X0025989Y0235300D02*
X0049240Y0235300D01*
X0049240Y0235799D02*
X0027093Y0235799D01*
X0027592Y0236297D02*
X0049240Y0236297D01*
X0049240Y0236796D02*
X0028090Y0236796D01*
X0028589Y0237294D02*
X0049240Y0237294D01*
X0049240Y0237793D02*
X0028902Y0237793D01*
X0029109Y0238291D02*
X0049240Y0238291D01*
X0049240Y0238790D02*
X0029315Y0238790D01*
X0029522Y0239288D02*
X0049240Y0239288D01*
X0049240Y0239787D02*
X0029718Y0239787D01*
X0029718Y0240285D02*
X0049240Y0240285D01*
X0049240Y0240784D02*
X0029718Y0240784D01*
X0029718Y0241282D02*
X0049240Y0241282D01*
X0049240Y0241781D02*
X0029718Y0241781D01*
X0029701Y0242279D02*
X0049240Y0242279D01*
X0049240Y0242778D02*
X0029494Y0242778D01*
X0029288Y0243277D02*
X0049240Y0243277D01*
X0049240Y0243775D02*
X0029081Y0243775D01*
X0028875Y0244274D02*
X0049240Y0244274D01*
X0049240Y0244772D02*
X0028522Y0244772D01*
X0028024Y0245271D02*
X0049240Y0245271D01*
X0049240Y0245769D02*
X0027525Y0245769D01*
X0027027Y0246268D02*
X0049240Y0246268D01*
X0049240Y0246766D02*
X0025829Y0246766D01*
X0021171Y0246766D02*
X0006000Y0246766D01*
X0006000Y0246268D02*
X0019973Y0246268D01*
X0019475Y0245769D02*
X0006000Y0245769D01*
X0006000Y0245271D02*
X0018976Y0245271D01*
X0018478Y0244772D02*
X0006000Y0244772D01*
X0006000Y0244274D02*
X0018125Y0244274D01*
X0017919Y0243775D02*
X0006000Y0243775D01*
X0006000Y0243277D02*
X0017712Y0243277D01*
X0017506Y0242778D02*
X0006000Y0242778D01*
X0006000Y0242279D02*
X0017299Y0242279D01*
X0017281Y0241781D02*
X0006000Y0241781D01*
X0006000Y0241282D02*
X0017281Y0241282D01*
X0017281Y0240784D02*
X0006000Y0240784D01*
X0006000Y0240285D02*
X0017281Y0240285D01*
X0017281Y0239787D02*
X0006000Y0239787D01*
X0006000Y0239288D02*
X0017478Y0239288D01*
X0017685Y0238790D02*
X0006000Y0238790D01*
X0006000Y0238291D02*
X0017891Y0238291D01*
X0018098Y0237793D02*
X0006000Y0237793D01*
X0006000Y0237294D02*
X0018411Y0237294D01*
X0018910Y0236796D02*
X0006000Y0236796D01*
X0006000Y0236297D02*
X0019408Y0236297D01*
X0019907Y0235799D02*
X0006000Y0235799D01*
X0006000Y0235300D02*
X0021011Y0235300D01*
X0022214Y0234802D02*
X0006000Y0234802D01*
X0006000Y0227324D02*
X0191000Y0227324D01*
X0191000Y0226826D02*
X0006000Y0226826D01*
X0006000Y0226327D02*
X0191000Y0226327D01*
X0191000Y0225829D02*
X0006000Y0225829D01*
X0006000Y0225330D02*
X0191000Y0225330D01*
X0191000Y0224832D02*
X0006000Y0224832D01*
X0006000Y0224333D02*
X0191000Y0224333D01*
X0191000Y0223835D02*
X0006000Y0223835D01*
X0006000Y0223336D02*
X0191000Y0223336D01*
X0191000Y0222838D02*
X0006000Y0222838D01*
X0006000Y0222339D02*
X0191000Y0222339D01*
X0191000Y0221841D02*
X0006000Y0221841D01*
X0006000Y0221342D02*
X0191000Y0221342D01*
X0186000Y0206000D02*
X0186000Y0191000D01*
X0191000Y0191000D01*
X0191000Y0151000D01*
X0006000Y0151000D01*
X0006000Y0191000D01*
X0011000Y0191000D01*
X0011000Y0206000D01*
X0021000Y0206000D01*
X0021000Y0191000D01*
X0026000Y0191000D01*
X0026000Y0206000D01*
X0036000Y0206000D01*
X0036000Y0191000D01*
X0041000Y0191000D01*
X0041000Y0206000D01*
X0051000Y0206000D01*
X0051000Y0191000D01*
X0056000Y0191000D01*
X0056000Y0206000D01*
X0066000Y0206000D01*
X0066000Y0191000D01*
X0071000Y0191000D01*
X0071000Y0206000D01*
X0081000Y0206000D01*
X0081000Y0191000D01*
X0086000Y0191000D01*
X0086000Y0206000D01*
X0096000Y0206000D01*
X0096000Y0191000D01*
X0101000Y0191000D01*
X0101000Y0206000D01*
X0111000Y0206000D01*
X0111000Y0191000D01*
X0116000Y0191000D01*
X0116000Y0206000D01*
X0126000Y0206000D01*
X0126000Y0191000D01*
X0131000Y0191000D01*
X0131000Y0206000D01*
X0141000Y0206000D01*
X0141000Y0191000D01*
X0146000Y0191000D01*
X0146000Y0206000D01*
X0156000Y0206000D01*
X0156000Y0191000D01*
X0161000Y0191000D01*
X0161000Y0206000D01*
X0171000Y0206000D01*
X0171000Y0191000D01*
X0176000Y0191000D01*
X0176000Y0206000D01*
X0186000Y0206000D01*
X0186000Y0205888D02*
X0176000Y0205888D01*
X0176000Y0205390D02*
X0186000Y0205390D01*
X0186000Y0204891D02*
X0176000Y0204891D01*
X0176000Y0204393D02*
X0186000Y0204393D01*
X0186000Y0203894D02*
X0176000Y0203894D01*
X0176000Y0203396D02*
X0186000Y0203396D01*
X0186000Y0202897D02*
X0176000Y0202897D01*
X0176000Y0202399D02*
X0186000Y0202399D01*
X0186000Y0201900D02*
X0176000Y0201900D01*
X0176000Y0201402D02*
X0186000Y0201402D01*
X0186000Y0200903D02*
X0176000Y0200903D01*
X0176000Y0200405D02*
X0186000Y0200405D01*
X0186000Y0199906D02*
X0176000Y0199906D01*
X0176000Y0199408D02*
X0186000Y0199408D01*
X0186000Y0198909D02*
X0176000Y0198909D01*
X0176000Y0198410D02*
X0186000Y0198410D01*
X0186000Y0197912D02*
X0176000Y0197912D01*
X0176000Y0197413D02*
X0186000Y0197413D01*
X0186000Y0196915D02*
X0176000Y0196915D01*
X0176000Y0196416D02*
X0186000Y0196416D01*
X0186000Y0195918D02*
X0176000Y0195918D01*
X0176000Y0195419D02*
X0186000Y0195419D01*
X0186000Y0194921D02*
X0176000Y0194921D01*
X0176000Y0194422D02*
X0186000Y0194422D01*
X0186000Y0193924D02*
X0176000Y0193924D01*
X0176000Y0193425D02*
X0186000Y0193425D01*
X0186000Y0192927D02*
X0176000Y0192927D01*
X0176000Y0192428D02*
X0186000Y0192428D01*
X0186000Y0191930D02*
X0176000Y0191930D01*
X0176000Y0191431D02*
X0186000Y0191431D01*
X0191000Y0190933D02*
X0006000Y0190933D01*
X0006000Y0190434D02*
X0191000Y0190434D01*
X0191000Y0189936D02*
X0006000Y0189936D01*
X0006000Y0189437D02*
X0191000Y0189437D01*
X0191000Y0188939D02*
X0006000Y0188939D01*
X0006000Y0188440D02*
X0191000Y0188440D01*
X0191000Y0187942D02*
X0006000Y0187942D01*
X0006000Y0187443D02*
X0191000Y0187443D01*
X0191000Y0186945D02*
X0006000Y0186945D01*
X0006000Y0186446D02*
X0191000Y0186446D01*
X0191000Y0185948D02*
X0006000Y0185948D01*
X0006000Y0185449D02*
X0191000Y0185449D01*
X0191000Y0184951D02*
X0006000Y0184951D01*
X0006000Y0184452D02*
X0191000Y0184452D01*
X0191000Y0183954D02*
X0006000Y0183954D01*
X0006000Y0183455D02*
X0191000Y0183455D01*
X0191000Y0182957D02*
X0006000Y0182957D01*
X0006000Y0182458D02*
X0191000Y0182458D01*
X0191000Y0181960D02*
X0006000Y0181960D01*
X0006000Y0181461D02*
X0191000Y0181461D01*
X0191000Y0180963D02*
X0006000Y0180963D01*
X0006000Y0180464D02*
X0191000Y0180464D01*
X0191000Y0179966D02*
X0060267Y0179966D01*
X0060220Y0180012D02*
X0059210Y0180431D01*
X0058116Y0180431D01*
X0057105Y0180012D01*
X0056331Y0179239D01*
X0055913Y0178228D01*
X0055913Y0173759D01*
X0051443Y0173759D01*
X0050432Y0173340D01*
X0049659Y0172566D01*
X0049240Y0171556D01*
X0049240Y0170462D01*
X0049659Y0169451D01*
X0050432Y0168677D01*
X0051443Y0168259D01*
X0055913Y0168259D01*
X0055913Y0163789D01*
X0056331Y0162778D01*
X0057105Y0162005D01*
X0058116Y0161586D01*
X0059210Y0161586D01*
X0060220Y0162005D01*
X0060994Y0162778D01*
X0061413Y0163789D01*
X0061413Y0168259D01*
X0065882Y0168259D01*
X0066893Y0168677D01*
X0067666Y0169451D01*
X0068085Y0170462D01*
X0068085Y0171556D01*
X0067666Y0172566D01*
X0066893Y0173340D01*
X0065882Y0173759D01*
X0061413Y0173759D01*
X0061413Y0178228D01*
X0060994Y0179239D01*
X0060220Y0180012D01*
X0060765Y0179467D02*
X0191000Y0179467D01*
X0191000Y0178969D02*
X0061106Y0178969D01*
X0061312Y0178470D02*
X0191000Y0178470D01*
X0191000Y0177972D02*
X0061413Y0177972D01*
X0061413Y0177473D02*
X0191000Y0177473D01*
X0191000Y0176974D02*
X0175326Y0176974D01*
X0174737Y0177218D02*
X0177022Y0176272D01*
X0178772Y0174522D01*
X0179718Y0172237D01*
X0179718Y0169763D01*
X0178772Y0167477D01*
X0177022Y0165728D01*
X0174737Y0164781D01*
X0172263Y0164781D01*
X0169977Y0165728D01*
X0168228Y0167477D01*
X0167281Y0169763D01*
X0167281Y0172237D01*
X0168228Y0174522D01*
X0169977Y0176272D01*
X0172263Y0177218D01*
X0174737Y0177218D01*
X0176530Y0176476D02*
X0191000Y0176476D01*
X0191000Y0175977D02*
X0177317Y0175977D01*
X0177815Y0175479D02*
X0191000Y0175479D01*
X0191000Y0174980D02*
X0178314Y0174980D01*
X0178789Y0174482D02*
X0191000Y0174482D01*
X0191000Y0173983D02*
X0178995Y0173983D01*
X0179202Y0173485D02*
X0191000Y0173485D01*
X0191000Y0172986D02*
X0179408Y0172986D01*
X0179615Y0172488D02*
X0191000Y0172488D01*
X0191000Y0171989D02*
X0179718Y0171989D01*
X0179718Y0171491D02*
X0191000Y0171491D01*
X0191000Y0170992D02*
X0179718Y0170992D01*
X0179718Y0170494D02*
X0191000Y0170494D01*
X0191000Y0169995D02*
X0179718Y0169995D01*
X0179608Y0169497D02*
X0191000Y0169497D01*
X0191000Y0168998D02*
X0179402Y0168998D01*
X0179195Y0168500D02*
X0191000Y0168500D01*
X0191000Y0168001D02*
X0178989Y0168001D01*
X0178782Y0167503D02*
X0191000Y0167503D01*
X0191000Y0167004D02*
X0178299Y0167004D01*
X0177800Y0166506D02*
X0191000Y0166506D01*
X0191000Y0166007D02*
X0177302Y0166007D01*
X0176493Y0165509D02*
X0191000Y0165509D01*
X0191000Y0165010D02*
X0175289Y0165010D01*
X0171711Y0165010D02*
X0100289Y0165010D01*
X0099737Y0164781D02*
X0102022Y0165728D01*
X0103772Y0167477D01*
X0104718Y0169763D01*
X0104718Y0172237D01*
X0103772Y0174522D01*
X0102022Y0176272D01*
X0099737Y0177218D01*
X0097263Y0177218D01*
X0094977Y0176272D01*
X0093228Y0174522D01*
X0092281Y0172237D01*
X0092281Y0169763D01*
X0093228Y0167477D01*
X0094977Y0165728D01*
X0097263Y0164781D01*
X0099737Y0164781D01*
X0101493Y0165509D02*
X0170507Y0165509D01*
X0169698Y0166007D02*
X0102302Y0166007D01*
X0102800Y0166506D02*
X0169200Y0166506D01*
X0168701Y0167004D02*
X0103299Y0167004D01*
X0103782Y0167503D02*
X0168218Y0167503D01*
X0168011Y0168001D02*
X0103989Y0168001D01*
X0104195Y0168500D02*
X0167805Y0168500D01*
X0167598Y0168998D02*
X0104402Y0168998D01*
X0104608Y0169497D02*
X0167392Y0169497D01*
X0167281Y0169995D02*
X0104718Y0169995D01*
X0104718Y0170494D02*
X0167281Y0170494D01*
X0167281Y0170992D02*
X0104718Y0170992D01*
X0104718Y0171491D02*
X0167281Y0171491D01*
X0167281Y0171989D02*
X0104718Y0171989D01*
X0104615Y0172488D02*
X0167385Y0172488D01*
X0167592Y0172986D02*
X0104408Y0172986D01*
X0104202Y0173485D02*
X0167798Y0173485D01*
X0168005Y0173983D02*
X0103995Y0173983D01*
X0103789Y0174482D02*
X0168211Y0174482D01*
X0168686Y0174980D02*
X0103314Y0174980D01*
X0102815Y0175479D02*
X0169185Y0175479D01*
X0169683Y0175977D02*
X0102317Y0175977D01*
X0101530Y0176476D02*
X0170470Y0176476D01*
X0171674Y0176974D02*
X0100326Y0176974D01*
X0096674Y0176974D02*
X0061413Y0176974D01*
X0061413Y0176476D02*
X0095470Y0176476D01*
X0094683Y0175977D02*
X0061413Y0175977D01*
X0061413Y0175479D02*
X0094185Y0175479D01*
X0093686Y0174980D02*
X0061413Y0174980D01*
X0061413Y0174482D02*
X0093211Y0174482D01*
X0093005Y0173983D02*
X0061413Y0173983D01*
X0066542Y0173485D02*
X0092798Y0173485D01*
X0092592Y0172986D02*
X0067246Y0172986D01*
X0067699Y0172488D02*
X0092385Y0172488D01*
X0092281Y0171989D02*
X0067905Y0171989D01*
X0068085Y0171491D02*
X0092281Y0171491D01*
X0092281Y0170992D02*
X0068085Y0170992D01*
X0068085Y0170494D02*
X0092281Y0170494D01*
X0092281Y0169995D02*
X0067892Y0169995D01*
X0067685Y0169497D02*
X0092392Y0169497D01*
X0092598Y0168998D02*
X0067214Y0168998D01*
X0066464Y0168500D02*
X0092805Y0168500D01*
X0093011Y0168001D02*
X0061413Y0168001D01*
X0061413Y0167503D02*
X0093218Y0167503D01*
X0093701Y0167004D02*
X0061413Y0167004D01*
X0061413Y0166506D02*
X0094200Y0166506D01*
X0094698Y0166007D02*
X0061413Y0166007D01*
X0061413Y0165509D02*
X0095507Y0165509D01*
X0096711Y0165010D02*
X0061413Y0165010D01*
X0061413Y0164512D02*
X0191000Y0164512D01*
X0191000Y0164013D02*
X0061413Y0164013D01*
X0061299Y0163515D02*
X0191000Y0163515D01*
X0191000Y0163016D02*
X0061092Y0163016D01*
X0060733Y0162518D02*
X0191000Y0162518D01*
X0191000Y0162019D02*
X0060235Y0162019D01*
X0057090Y0162019D02*
X0006000Y0162019D01*
X0006000Y0161521D02*
X0191000Y0161521D01*
X0191000Y0161022D02*
X0006000Y0161022D01*
X0006000Y0160524D02*
X0191000Y0160524D01*
X0191000Y0160025D02*
X0006000Y0160025D01*
X0006000Y0159527D02*
X0191000Y0159527D01*
X0191000Y0159028D02*
X0006000Y0159028D01*
X0006000Y0158530D02*
X0191000Y0158530D01*
X0191000Y0158031D02*
X0006000Y0158031D01*
X0006000Y0157533D02*
X0191000Y0157533D01*
X0191000Y0157034D02*
X0006000Y0157034D01*
X0006000Y0156536D02*
X0191000Y0156536D01*
X0191000Y0156037D02*
X0006000Y0156037D01*
X0006000Y0155539D02*
X0191000Y0155539D01*
X0191000Y0155040D02*
X0006000Y0155040D01*
X0006000Y0154541D02*
X0191000Y0154541D01*
X0191000Y0154043D02*
X0006000Y0154043D01*
X0006000Y0153544D02*
X0191000Y0153544D01*
X0191000Y0153046D02*
X0006000Y0153046D01*
X0006000Y0152547D02*
X0191000Y0152547D01*
X0191000Y0152049D02*
X0006000Y0152049D01*
X0006000Y0151550D02*
X0191000Y0151550D01*
X0191000Y0151052D02*
X0006000Y0151052D01*
X0006000Y0162518D02*
X0056592Y0162518D01*
X0056233Y0163016D02*
X0006000Y0163016D01*
X0006000Y0163515D02*
X0056026Y0163515D01*
X0055913Y0164013D02*
X0006000Y0164013D01*
X0006000Y0164512D02*
X0055913Y0164512D01*
X0055913Y0165010D02*
X0025289Y0165010D01*
X0024737Y0164781D02*
X0027022Y0165728D01*
X0028772Y0167477D01*
X0029718Y0169763D01*
X0029718Y0172237D01*
X0028772Y0174522D01*
X0027022Y0176272D01*
X0024737Y0177218D01*
X0022263Y0177218D01*
X0019977Y0176272D01*
X0018228Y0174522D01*
X0017281Y0172237D01*
X0017281Y0169763D01*
X0018228Y0167477D01*
X0019977Y0165728D01*
X0022263Y0164781D01*
X0024737Y0164781D01*
X0026493Y0165509D02*
X0055913Y0165509D01*
X0055913Y0166007D02*
X0027302Y0166007D01*
X0027800Y0166506D02*
X0055913Y0166506D01*
X0055913Y0167004D02*
X0028299Y0167004D01*
X0028782Y0167503D02*
X0055913Y0167503D01*
X0055913Y0168001D02*
X0028989Y0168001D01*
X0029195Y0168500D02*
X0050861Y0168500D01*
X0050111Y0168998D02*
X0029402Y0168998D01*
X0029608Y0169497D02*
X0049640Y0169497D01*
X0049433Y0169995D02*
X0029718Y0169995D01*
X0029718Y0170494D02*
X0049240Y0170494D01*
X0049240Y0170992D02*
X0029718Y0170992D01*
X0029718Y0171491D02*
X0049240Y0171491D01*
X0049420Y0171989D02*
X0029718Y0171989D01*
X0029615Y0172488D02*
X0049626Y0172488D01*
X0050079Y0172986D02*
X0029408Y0172986D01*
X0029202Y0173485D02*
X0050783Y0173485D01*
X0055913Y0173983D02*
X0028995Y0173983D01*
X0028789Y0174482D02*
X0055913Y0174482D01*
X0055913Y0174980D02*
X0028314Y0174980D01*
X0027815Y0175479D02*
X0055913Y0175479D01*
X0055913Y0175977D02*
X0027317Y0175977D01*
X0026530Y0176476D02*
X0055913Y0176476D01*
X0055913Y0176974D02*
X0025326Y0176974D01*
X0021674Y0176974D02*
X0006000Y0176974D01*
X0006000Y0176476D02*
X0020470Y0176476D01*
X0019683Y0175977D02*
X0006000Y0175977D01*
X0006000Y0175479D02*
X0019185Y0175479D01*
X0018686Y0174980D02*
X0006000Y0174980D01*
X0006000Y0174482D02*
X0018211Y0174482D01*
X0018005Y0173983D02*
X0006000Y0173983D01*
X0006000Y0173485D02*
X0017798Y0173485D01*
X0017592Y0172986D02*
X0006000Y0172986D01*
X0006000Y0172488D02*
X0017385Y0172488D01*
X0017281Y0171989D02*
X0006000Y0171989D01*
X0006000Y0171491D02*
X0017281Y0171491D01*
X0017281Y0170992D02*
X0006000Y0170992D01*
X0006000Y0170494D02*
X0017281Y0170494D01*
X0017281Y0169995D02*
X0006000Y0169995D01*
X0006000Y0169497D02*
X0017392Y0169497D01*
X0017598Y0168998D02*
X0006000Y0168998D01*
X0006000Y0168500D02*
X0017805Y0168500D01*
X0018011Y0168001D02*
X0006000Y0168001D01*
X0006000Y0167503D02*
X0018218Y0167503D01*
X0018701Y0167004D02*
X0006000Y0167004D01*
X0006000Y0166506D02*
X0019200Y0166506D01*
X0019698Y0166007D02*
X0006000Y0166007D01*
X0006000Y0165509D02*
X0020507Y0165509D01*
X0021711Y0165010D02*
X0006000Y0165010D01*
X0006000Y0177473D02*
X0055913Y0177473D01*
X0055913Y0177972D02*
X0006000Y0177972D01*
X0006000Y0178470D02*
X0056013Y0178470D01*
X0056219Y0178969D02*
X0006000Y0178969D01*
X0006000Y0179467D02*
X0056560Y0179467D01*
X0057058Y0179966D02*
X0006000Y0179966D01*
X0011000Y0191431D02*
X0021000Y0191431D01*
X0021000Y0191930D02*
X0011000Y0191930D01*
X0011000Y0192428D02*
X0021000Y0192428D01*
X0021000Y0192927D02*
X0011000Y0192927D01*
X0011000Y0193425D02*
X0021000Y0193425D01*
X0021000Y0193924D02*
X0011000Y0193924D01*
X0011000Y0194422D02*
X0021000Y0194422D01*
X0021000Y0194921D02*
X0011000Y0194921D01*
X0011000Y0195419D02*
X0021000Y0195419D01*
X0021000Y0195918D02*
X0011000Y0195918D01*
X0011000Y0196416D02*
X0021000Y0196416D01*
X0021000Y0196915D02*
X0011000Y0196915D01*
X0011000Y0197413D02*
X0021000Y0197413D01*
X0021000Y0197912D02*
X0011000Y0197912D01*
X0011000Y0198410D02*
X0021000Y0198410D01*
X0021000Y0198909D02*
X0011000Y0198909D01*
X0011000Y0199408D02*
X0021000Y0199408D01*
X0021000Y0199906D02*
X0011000Y0199906D01*
X0011000Y0200405D02*
X0021000Y0200405D01*
X0021000Y0200903D02*
X0011000Y0200903D01*
X0011000Y0201402D02*
X0021000Y0201402D01*
X0021000Y0201900D02*
X0011000Y0201900D01*
X0011000Y0202399D02*
X0021000Y0202399D01*
X0021000Y0202897D02*
X0011000Y0202897D01*
X0011000Y0203396D02*
X0021000Y0203396D01*
X0021000Y0203894D02*
X0011000Y0203894D01*
X0011000Y0204393D02*
X0021000Y0204393D01*
X0021000Y0204891D02*
X0011000Y0204891D01*
X0011000Y0205390D02*
X0021000Y0205390D01*
X0021000Y0205888D02*
X0011000Y0205888D01*
X0026000Y0205888D02*
X0036000Y0205888D01*
X0036000Y0205390D02*
X0026000Y0205390D01*
X0026000Y0204891D02*
X0036000Y0204891D01*
X0036000Y0204393D02*
X0026000Y0204393D01*
X0026000Y0203894D02*
X0036000Y0203894D01*
X0036000Y0203396D02*
X0026000Y0203396D01*
X0026000Y0202897D02*
X0036000Y0202897D01*
X0036000Y0202399D02*
X0026000Y0202399D01*
X0026000Y0201900D02*
X0036000Y0201900D01*
X0036000Y0201402D02*
X0026000Y0201402D01*
X0026000Y0200903D02*
X0036000Y0200903D01*
X0036000Y0200405D02*
X0026000Y0200405D01*
X0026000Y0199906D02*
X0036000Y0199906D01*
X0036000Y0199408D02*
X0026000Y0199408D01*
X0026000Y0198909D02*
X0036000Y0198909D01*
X0036000Y0198410D02*
X0026000Y0198410D01*
X0026000Y0197912D02*
X0036000Y0197912D01*
X0036000Y0197413D02*
X0026000Y0197413D01*
X0026000Y0196915D02*
X0036000Y0196915D01*
X0036000Y0196416D02*
X0026000Y0196416D01*
X0026000Y0195918D02*
X0036000Y0195918D01*
X0036000Y0195419D02*
X0026000Y0195419D01*
X0026000Y0194921D02*
X0036000Y0194921D01*
X0036000Y0194422D02*
X0026000Y0194422D01*
X0026000Y0193924D02*
X0036000Y0193924D01*
X0036000Y0193425D02*
X0026000Y0193425D01*
X0026000Y0192927D02*
X0036000Y0192927D01*
X0036000Y0192428D02*
X0026000Y0192428D01*
X0026000Y0191930D02*
X0036000Y0191930D01*
X0036000Y0191431D02*
X0026000Y0191431D01*
X0041000Y0191431D02*
X0051000Y0191431D01*
X0051000Y0191930D02*
X0041000Y0191930D01*
X0041000Y0192428D02*
X0051000Y0192428D01*
X0051000Y0192927D02*
X0041000Y0192927D01*
X0041000Y0193425D02*
X0051000Y0193425D01*
X0051000Y0193924D02*
X0041000Y0193924D01*
X0041000Y0194422D02*
X0051000Y0194422D01*
X0051000Y0194921D02*
X0041000Y0194921D01*
X0041000Y0195419D02*
X0051000Y0195419D01*
X0051000Y0195918D02*
X0041000Y0195918D01*
X0041000Y0196416D02*
X0051000Y0196416D01*
X0051000Y0196915D02*
X0041000Y0196915D01*
X0041000Y0197413D02*
X0051000Y0197413D01*
X0051000Y0197912D02*
X0041000Y0197912D01*
X0041000Y0198410D02*
X0051000Y0198410D01*
X0051000Y0198909D02*
X0041000Y0198909D01*
X0041000Y0199408D02*
X0051000Y0199408D01*
X0051000Y0199906D02*
X0041000Y0199906D01*
X0041000Y0200405D02*
X0051000Y0200405D01*
X0051000Y0200903D02*
X0041000Y0200903D01*
X0041000Y0201402D02*
X0051000Y0201402D01*
X0051000Y0201900D02*
X0041000Y0201900D01*
X0041000Y0202399D02*
X0051000Y0202399D01*
X0051000Y0202897D02*
X0041000Y0202897D01*
X0041000Y0203396D02*
X0051000Y0203396D01*
X0051000Y0203894D02*
X0041000Y0203894D01*
X0041000Y0204393D02*
X0051000Y0204393D01*
X0051000Y0204891D02*
X0041000Y0204891D01*
X0041000Y0205390D02*
X0051000Y0205390D01*
X0051000Y0205888D02*
X0041000Y0205888D01*
X0056000Y0205888D02*
X0066000Y0205888D01*
X0066000Y0205390D02*
X0056000Y0205390D01*
X0056000Y0204891D02*
X0066000Y0204891D01*
X0066000Y0204393D02*
X0056000Y0204393D01*
X0056000Y0203894D02*
X0066000Y0203894D01*
X0066000Y0203396D02*
X0056000Y0203396D01*
X0056000Y0202897D02*
X0066000Y0202897D01*
X0066000Y0202399D02*
X0056000Y0202399D01*
X0056000Y0201900D02*
X0066000Y0201900D01*
X0066000Y0201402D02*
X0056000Y0201402D01*
X0056000Y0200903D02*
X0066000Y0200903D01*
X0066000Y0200405D02*
X0056000Y0200405D01*
X0056000Y0199906D02*
X0066000Y0199906D01*
X0066000Y0199408D02*
X0056000Y0199408D01*
X0056000Y0198909D02*
X0066000Y0198909D01*
X0066000Y0198410D02*
X0056000Y0198410D01*
X0056000Y0197912D02*
X0066000Y0197912D01*
X0066000Y0197413D02*
X0056000Y0197413D01*
X0056000Y0196915D02*
X0066000Y0196915D01*
X0066000Y0196416D02*
X0056000Y0196416D01*
X0056000Y0195918D02*
X0066000Y0195918D01*
X0066000Y0195419D02*
X0056000Y0195419D01*
X0056000Y0194921D02*
X0066000Y0194921D01*
X0066000Y0194422D02*
X0056000Y0194422D01*
X0056000Y0193924D02*
X0066000Y0193924D01*
X0066000Y0193425D02*
X0056000Y0193425D01*
X0056000Y0192927D02*
X0066000Y0192927D01*
X0066000Y0192428D02*
X0056000Y0192428D01*
X0056000Y0191930D02*
X0066000Y0191930D01*
X0066000Y0191431D02*
X0056000Y0191431D01*
X0071000Y0191431D02*
X0081000Y0191431D01*
X0081000Y0191930D02*
X0071000Y0191930D01*
X0071000Y0192428D02*
X0081000Y0192428D01*
X0081000Y0192927D02*
X0071000Y0192927D01*
X0071000Y0193425D02*
X0081000Y0193425D01*
X0081000Y0193924D02*
X0071000Y0193924D01*
X0071000Y0194422D02*
X0081000Y0194422D01*
X0081000Y0194921D02*
X0071000Y0194921D01*
X0071000Y0195419D02*
X0081000Y0195419D01*
X0081000Y0195918D02*
X0071000Y0195918D01*
X0071000Y0196416D02*
X0081000Y0196416D01*
X0081000Y0196915D02*
X0071000Y0196915D01*
X0071000Y0197413D02*
X0081000Y0197413D01*
X0081000Y0197912D02*
X0071000Y0197912D01*
X0071000Y0198410D02*
X0081000Y0198410D01*
X0081000Y0198909D02*
X0071000Y0198909D01*
X0071000Y0199408D02*
X0081000Y0199408D01*
X0081000Y0199906D02*
X0071000Y0199906D01*
X0071000Y0200405D02*
X0081000Y0200405D01*
X0081000Y0200903D02*
X0071000Y0200903D01*
X0071000Y0201402D02*
X0081000Y0201402D01*
X0081000Y0201900D02*
X0071000Y0201900D01*
X0071000Y0202399D02*
X0081000Y0202399D01*
X0081000Y0202897D02*
X0071000Y0202897D01*
X0071000Y0203396D02*
X0081000Y0203396D01*
X0081000Y0203894D02*
X0071000Y0203894D01*
X0071000Y0204393D02*
X0081000Y0204393D01*
X0081000Y0204891D02*
X0071000Y0204891D01*
X0071000Y0205390D02*
X0081000Y0205390D01*
X0081000Y0205888D02*
X0071000Y0205888D01*
X0086000Y0205888D02*
X0096000Y0205888D01*
X0096000Y0205390D02*
X0086000Y0205390D01*
X0086000Y0204891D02*
X0096000Y0204891D01*
X0096000Y0204393D02*
X0086000Y0204393D01*
X0086000Y0203894D02*
X0096000Y0203894D01*
X0096000Y0203396D02*
X0086000Y0203396D01*
X0086000Y0202897D02*
X0096000Y0202897D01*
X0096000Y0202399D02*
X0086000Y0202399D01*
X0086000Y0201900D02*
X0096000Y0201900D01*
X0096000Y0201402D02*
X0086000Y0201402D01*
X0086000Y0200903D02*
X0096000Y0200903D01*
X0096000Y0200405D02*
X0086000Y0200405D01*
X0086000Y0199906D02*
X0096000Y0199906D01*
X0096000Y0199408D02*
X0086000Y0199408D01*
X0086000Y0198909D02*
X0096000Y0198909D01*
X0096000Y0198410D02*
X0086000Y0198410D01*
X0086000Y0197912D02*
X0096000Y0197912D01*
X0096000Y0197413D02*
X0086000Y0197413D01*
X0086000Y0196915D02*
X0096000Y0196915D01*
X0096000Y0196416D02*
X0086000Y0196416D01*
X0086000Y0195918D02*
X0096000Y0195918D01*
X0096000Y0195419D02*
X0086000Y0195419D01*
X0086000Y0194921D02*
X0096000Y0194921D01*
X0096000Y0194422D02*
X0086000Y0194422D01*
X0086000Y0193924D02*
X0096000Y0193924D01*
X0096000Y0193425D02*
X0086000Y0193425D01*
X0086000Y0192927D02*
X0096000Y0192927D01*
X0096000Y0192428D02*
X0086000Y0192428D01*
X0086000Y0191930D02*
X0096000Y0191930D01*
X0096000Y0191431D02*
X0086000Y0191431D01*
X0101000Y0191431D02*
X0111000Y0191431D01*
X0111000Y0191930D02*
X0101000Y0191930D01*
X0101000Y0192428D02*
X0111000Y0192428D01*
X0111000Y0192927D02*
X0101000Y0192927D01*
X0101000Y0193425D02*
X0111000Y0193425D01*
X0111000Y0193924D02*
X0101000Y0193924D01*
X0101000Y0194422D02*
X0111000Y0194422D01*
X0111000Y0194921D02*
X0101000Y0194921D01*
X0101000Y0195419D02*
X0111000Y0195419D01*
X0111000Y0195918D02*
X0101000Y0195918D01*
X0101000Y0196416D02*
X0111000Y0196416D01*
X0111000Y0196915D02*
X0101000Y0196915D01*
X0101000Y0197413D02*
X0111000Y0197413D01*
X0111000Y0197912D02*
X0101000Y0197912D01*
X0101000Y0198410D02*
X0111000Y0198410D01*
X0111000Y0198909D02*
X0101000Y0198909D01*
X0101000Y0199408D02*
X0111000Y0199408D01*
X0111000Y0199906D02*
X0101000Y0199906D01*
X0101000Y0200405D02*
X0111000Y0200405D01*
X0111000Y0200903D02*
X0101000Y0200903D01*
X0101000Y0201402D02*
X0111000Y0201402D01*
X0111000Y0201900D02*
X0101000Y0201900D01*
X0101000Y0202399D02*
X0111000Y0202399D01*
X0111000Y0202897D02*
X0101000Y0202897D01*
X0101000Y0203396D02*
X0111000Y0203396D01*
X0111000Y0203894D02*
X0101000Y0203894D01*
X0101000Y0204393D02*
X0111000Y0204393D01*
X0111000Y0204891D02*
X0101000Y0204891D01*
X0101000Y0205390D02*
X0111000Y0205390D01*
X0111000Y0205888D02*
X0101000Y0205888D01*
X0116000Y0205888D02*
X0126000Y0205888D01*
X0126000Y0205390D02*
X0116000Y0205390D01*
X0116000Y0204891D02*
X0126000Y0204891D01*
X0126000Y0204393D02*
X0116000Y0204393D01*
X0116000Y0203894D02*
X0126000Y0203894D01*
X0126000Y0203396D02*
X0116000Y0203396D01*
X0116000Y0202897D02*
X0126000Y0202897D01*
X0126000Y0202399D02*
X0116000Y0202399D01*
X0116000Y0201900D02*
X0126000Y0201900D01*
X0126000Y0201402D02*
X0116000Y0201402D01*
X0116000Y0200903D02*
X0126000Y0200903D01*
X0126000Y0200405D02*
X0116000Y0200405D01*
X0116000Y0199906D02*
X0126000Y0199906D01*
X0126000Y0199408D02*
X0116000Y0199408D01*
X0116000Y0198909D02*
X0126000Y0198909D01*
X0126000Y0198410D02*
X0116000Y0198410D01*
X0116000Y0197912D02*
X0126000Y0197912D01*
X0126000Y0197413D02*
X0116000Y0197413D01*
X0116000Y0196915D02*
X0126000Y0196915D01*
X0126000Y0196416D02*
X0116000Y0196416D01*
X0116000Y0195918D02*
X0126000Y0195918D01*
X0126000Y0195419D02*
X0116000Y0195419D01*
X0116000Y0194921D02*
X0126000Y0194921D01*
X0126000Y0194422D02*
X0116000Y0194422D01*
X0116000Y0193924D02*
X0126000Y0193924D01*
X0126000Y0193425D02*
X0116000Y0193425D01*
X0116000Y0192927D02*
X0126000Y0192927D01*
X0126000Y0192428D02*
X0116000Y0192428D01*
X0116000Y0191930D02*
X0126000Y0191930D01*
X0126000Y0191431D02*
X0116000Y0191431D01*
X0131000Y0191431D02*
X0141000Y0191431D01*
X0141000Y0191930D02*
X0131000Y0191930D01*
X0131000Y0192428D02*
X0141000Y0192428D01*
X0141000Y0192927D02*
X0131000Y0192927D01*
X0131000Y0193425D02*
X0141000Y0193425D01*
X0141000Y0193924D02*
X0131000Y0193924D01*
X0131000Y0194422D02*
X0141000Y0194422D01*
X0141000Y0194921D02*
X0131000Y0194921D01*
X0131000Y0195419D02*
X0141000Y0195419D01*
X0141000Y0195918D02*
X0131000Y0195918D01*
X0131000Y0196416D02*
X0141000Y0196416D01*
X0141000Y0196915D02*
X0131000Y0196915D01*
X0131000Y0197413D02*
X0141000Y0197413D01*
X0141000Y0197912D02*
X0131000Y0197912D01*
X0131000Y0198410D02*
X0141000Y0198410D01*
X0141000Y0198909D02*
X0131000Y0198909D01*
X0131000Y0199408D02*
X0141000Y0199408D01*
X0141000Y0199906D02*
X0131000Y0199906D01*
X0131000Y0200405D02*
X0141000Y0200405D01*
X0141000Y0200903D02*
X0131000Y0200903D01*
X0131000Y0201402D02*
X0141000Y0201402D01*
X0141000Y0201900D02*
X0131000Y0201900D01*
X0131000Y0202399D02*
X0141000Y0202399D01*
X0141000Y0202897D02*
X0131000Y0202897D01*
X0131000Y0203396D02*
X0141000Y0203396D01*
X0141000Y0203894D02*
X0131000Y0203894D01*
X0131000Y0204393D02*
X0141000Y0204393D01*
X0141000Y0204891D02*
X0131000Y0204891D01*
X0131000Y0205390D02*
X0141000Y0205390D01*
X0141000Y0205888D02*
X0131000Y0205888D01*
X0146000Y0205888D02*
X0156000Y0205888D01*
X0156000Y0205390D02*
X0146000Y0205390D01*
X0146000Y0204891D02*
X0156000Y0204891D01*
X0156000Y0204393D02*
X0146000Y0204393D01*
X0146000Y0203894D02*
X0156000Y0203894D01*
X0156000Y0203396D02*
X0146000Y0203396D01*
X0146000Y0202897D02*
X0156000Y0202897D01*
X0156000Y0202399D02*
X0146000Y0202399D01*
X0146000Y0201900D02*
X0156000Y0201900D01*
X0156000Y0201402D02*
X0146000Y0201402D01*
X0146000Y0200903D02*
X0156000Y0200903D01*
X0156000Y0200405D02*
X0146000Y0200405D01*
X0146000Y0199906D02*
X0156000Y0199906D01*
X0156000Y0199408D02*
X0146000Y0199408D01*
X0146000Y0198909D02*
X0156000Y0198909D01*
X0156000Y0198410D02*
X0146000Y0198410D01*
X0146000Y0197912D02*
X0156000Y0197912D01*
X0156000Y0197413D02*
X0146000Y0197413D01*
X0146000Y0196915D02*
X0156000Y0196915D01*
X0156000Y0196416D02*
X0146000Y0196416D01*
X0146000Y0195918D02*
X0156000Y0195918D01*
X0156000Y0195419D02*
X0146000Y0195419D01*
X0146000Y0194921D02*
X0156000Y0194921D01*
X0156000Y0194422D02*
X0146000Y0194422D01*
X0146000Y0193924D02*
X0156000Y0193924D01*
X0156000Y0193425D02*
X0146000Y0193425D01*
X0146000Y0192927D02*
X0156000Y0192927D01*
X0156000Y0192428D02*
X0146000Y0192428D01*
X0146000Y0191930D02*
X0156000Y0191930D01*
X0156000Y0191431D02*
X0146000Y0191431D01*
X0161000Y0191431D02*
X0171000Y0191431D01*
X0171000Y0191930D02*
X0161000Y0191930D01*
X0161000Y0192428D02*
X0171000Y0192428D01*
X0171000Y0192927D02*
X0161000Y0192927D01*
X0161000Y0193425D02*
X0171000Y0193425D01*
X0171000Y0193924D02*
X0161000Y0193924D01*
X0161000Y0194422D02*
X0171000Y0194422D01*
X0171000Y0194921D02*
X0161000Y0194921D01*
X0161000Y0195419D02*
X0171000Y0195419D01*
X0171000Y0195918D02*
X0161000Y0195918D01*
X0161000Y0196416D02*
X0171000Y0196416D01*
X0171000Y0196915D02*
X0161000Y0196915D01*
X0161000Y0197413D02*
X0171000Y0197413D01*
X0171000Y0197912D02*
X0161000Y0197912D01*
X0161000Y0198410D02*
X0171000Y0198410D01*
X0171000Y0198909D02*
X0161000Y0198909D01*
X0161000Y0199408D02*
X0171000Y0199408D01*
X0171000Y0199906D02*
X0161000Y0199906D01*
X0161000Y0200405D02*
X0171000Y0200405D01*
X0171000Y0200903D02*
X0161000Y0200903D01*
X0161000Y0201402D02*
X0171000Y0201402D01*
X0171000Y0201900D02*
X0161000Y0201900D01*
X0161000Y0202399D02*
X0171000Y0202399D01*
X0171000Y0202897D02*
X0161000Y0202897D01*
X0161000Y0203396D02*
X0171000Y0203396D01*
X0171000Y0203894D02*
X0161000Y0203894D01*
X0161000Y0204393D02*
X0171000Y0204393D01*
X0171000Y0204891D02*
X0161000Y0204891D01*
X0161000Y0205390D02*
X0171000Y0205390D01*
X0171000Y0205888D02*
X0161000Y0205888D01*
X0156000Y0261223D02*
X0146000Y0261223D01*
X0146000Y0261721D02*
X0156000Y0261721D01*
X0156000Y0262220D02*
X0146000Y0262220D01*
X0146000Y0262718D02*
X0156000Y0262718D01*
X0156000Y0263217D02*
X0146000Y0263217D01*
X0146000Y0263715D02*
X0156000Y0263715D01*
X0156000Y0264214D02*
X0146000Y0264214D01*
X0146000Y0264712D02*
X0156000Y0264712D01*
X0156000Y0265211D02*
X0146000Y0265211D01*
X0146000Y0265710D02*
X0156000Y0265710D01*
X0156000Y0266208D02*
X0146000Y0266208D01*
X0146000Y0266707D02*
X0156000Y0266707D01*
X0156000Y0267205D02*
X0146000Y0267205D01*
X0146000Y0267704D02*
X0156000Y0267704D01*
X0156000Y0268202D02*
X0146000Y0268202D01*
X0146000Y0268701D02*
X0156000Y0268701D01*
X0156000Y0269199D02*
X0146000Y0269199D01*
X0146000Y0269698D02*
X0156000Y0269698D01*
X0156000Y0270196D02*
X0146000Y0270196D01*
X0146000Y0270695D02*
X0156000Y0270695D01*
X0156000Y0271193D02*
X0146000Y0271193D01*
X0146000Y0271692D02*
X0156000Y0271692D01*
X0156000Y0272190D02*
X0146000Y0272190D01*
X0146000Y0272689D02*
X0156000Y0272689D01*
X0156000Y0273187D02*
X0146000Y0273187D01*
X0146000Y0273686D02*
X0156000Y0273686D01*
X0156000Y0274184D02*
X0146000Y0274184D01*
X0146000Y0274683D02*
X0156000Y0274683D01*
X0156000Y0275181D02*
X0146000Y0275181D01*
X0146000Y0275680D02*
X0156000Y0275680D01*
X0141000Y0275680D02*
X0131000Y0275680D01*
X0131000Y0275181D02*
X0141000Y0275181D01*
X0141000Y0274683D02*
X0131000Y0274683D01*
X0131000Y0274184D02*
X0141000Y0274184D01*
X0141000Y0273686D02*
X0131000Y0273686D01*
X0131000Y0273187D02*
X0141000Y0273187D01*
X0141000Y0272689D02*
X0131000Y0272689D01*
X0131000Y0272190D02*
X0141000Y0272190D01*
X0141000Y0271692D02*
X0131000Y0271692D01*
X0131000Y0271193D02*
X0141000Y0271193D01*
X0141000Y0270695D02*
X0131000Y0270695D01*
X0131000Y0270196D02*
X0141000Y0270196D01*
X0141000Y0269698D02*
X0131000Y0269698D01*
X0131000Y0269199D02*
X0141000Y0269199D01*
X0141000Y0268701D02*
X0131000Y0268701D01*
X0131000Y0268202D02*
X0141000Y0268202D01*
X0141000Y0267704D02*
X0131000Y0267704D01*
X0131000Y0267205D02*
X0141000Y0267205D01*
X0141000Y0266707D02*
X0131000Y0266707D01*
X0131000Y0266208D02*
X0141000Y0266208D01*
X0141000Y0265710D02*
X0131000Y0265710D01*
X0131000Y0265211D02*
X0141000Y0265211D01*
X0141000Y0264712D02*
X0131000Y0264712D01*
X0131000Y0264214D02*
X0141000Y0264214D01*
X0141000Y0263715D02*
X0131000Y0263715D01*
X0131000Y0263217D02*
X0141000Y0263217D01*
X0141000Y0262718D02*
X0131000Y0262718D01*
X0131000Y0262220D02*
X0141000Y0262220D01*
X0141000Y0261721D02*
X0131000Y0261721D01*
X0131000Y0261223D02*
X0141000Y0261223D01*
X0126000Y0261223D02*
X0116000Y0261223D01*
X0116000Y0261721D02*
X0126000Y0261721D01*
X0126000Y0262220D02*
X0116000Y0262220D01*
X0116000Y0262718D02*
X0126000Y0262718D01*
X0126000Y0263217D02*
X0116000Y0263217D01*
X0116000Y0263715D02*
X0126000Y0263715D01*
X0126000Y0264214D02*
X0116000Y0264214D01*
X0116000Y0264712D02*
X0126000Y0264712D01*
X0126000Y0265211D02*
X0116000Y0265211D01*
X0116000Y0265710D02*
X0126000Y0265710D01*
X0126000Y0266208D02*
X0116000Y0266208D01*
X0116000Y0266707D02*
X0126000Y0266707D01*
X0126000Y0267205D02*
X0116000Y0267205D01*
X0116000Y0267704D02*
X0126000Y0267704D01*
X0126000Y0268202D02*
X0116000Y0268202D01*
X0116000Y0268701D02*
X0126000Y0268701D01*
X0126000Y0269199D02*
X0116000Y0269199D01*
X0116000Y0269698D02*
X0126000Y0269698D01*
X0126000Y0270196D02*
X0116000Y0270196D01*
X0116000Y0270695D02*
X0126000Y0270695D01*
X0126000Y0271193D02*
X0116000Y0271193D01*
X0116000Y0271692D02*
X0126000Y0271692D01*
X0126000Y0272190D02*
X0116000Y0272190D01*
X0116000Y0272689D02*
X0126000Y0272689D01*
X0126000Y0273187D02*
X0116000Y0273187D01*
X0116000Y0273686D02*
X0126000Y0273686D01*
X0126000Y0274184D02*
X0116000Y0274184D01*
X0116000Y0274683D02*
X0126000Y0274683D01*
X0126000Y0275181D02*
X0116000Y0275181D01*
X0116000Y0275680D02*
X0126000Y0275680D01*
X0111000Y0275680D02*
X0101000Y0275680D01*
X0101000Y0275181D02*
X0111000Y0275181D01*
X0111000Y0274683D02*
X0101000Y0274683D01*
X0101000Y0274184D02*
X0111000Y0274184D01*
X0111000Y0273686D02*
X0101000Y0273686D01*
X0101000Y0273187D02*
X0111000Y0273187D01*
X0111000Y0272689D02*
X0101000Y0272689D01*
X0101000Y0272190D02*
X0111000Y0272190D01*
X0111000Y0271692D02*
X0101000Y0271692D01*
X0101000Y0271193D02*
X0111000Y0271193D01*
X0111000Y0270695D02*
X0101000Y0270695D01*
X0101000Y0270196D02*
X0111000Y0270196D01*
X0111000Y0269698D02*
X0101000Y0269698D01*
X0101000Y0269199D02*
X0111000Y0269199D01*
X0111000Y0268701D02*
X0101000Y0268701D01*
X0101000Y0268202D02*
X0111000Y0268202D01*
X0111000Y0267704D02*
X0101000Y0267704D01*
X0101000Y0267205D02*
X0111000Y0267205D01*
X0111000Y0266707D02*
X0101000Y0266707D01*
X0101000Y0266208D02*
X0111000Y0266208D01*
X0111000Y0265710D02*
X0101000Y0265710D01*
X0101000Y0265211D02*
X0111000Y0265211D01*
X0111000Y0264712D02*
X0101000Y0264712D01*
X0101000Y0264214D02*
X0111000Y0264214D01*
X0111000Y0263715D02*
X0101000Y0263715D01*
X0101000Y0263217D02*
X0111000Y0263217D01*
X0111000Y0262718D02*
X0101000Y0262718D01*
X0101000Y0262220D02*
X0111000Y0262220D01*
X0111000Y0261721D02*
X0101000Y0261721D01*
X0101000Y0261223D02*
X0111000Y0261223D01*
X0096000Y0261223D02*
X0086000Y0261223D01*
X0086000Y0261721D02*
X0096000Y0261721D01*
X0096000Y0262220D02*
X0086000Y0262220D01*
X0086000Y0262718D02*
X0096000Y0262718D01*
X0096000Y0263217D02*
X0086000Y0263217D01*
X0086000Y0263715D02*
X0096000Y0263715D01*
X0096000Y0264214D02*
X0086000Y0264214D01*
X0086000Y0264712D02*
X0096000Y0264712D01*
X0096000Y0265211D02*
X0086000Y0265211D01*
X0086000Y0265710D02*
X0096000Y0265710D01*
X0096000Y0266208D02*
X0086000Y0266208D01*
X0086000Y0266707D02*
X0096000Y0266707D01*
X0096000Y0267205D02*
X0086000Y0267205D01*
X0086000Y0267704D02*
X0096000Y0267704D01*
X0096000Y0268202D02*
X0086000Y0268202D01*
X0086000Y0268701D02*
X0096000Y0268701D01*
X0096000Y0269199D02*
X0086000Y0269199D01*
X0086000Y0269698D02*
X0096000Y0269698D01*
X0096000Y0270196D02*
X0086000Y0270196D01*
X0086000Y0270695D02*
X0096000Y0270695D01*
X0096000Y0271193D02*
X0086000Y0271193D01*
X0086000Y0271692D02*
X0096000Y0271692D01*
X0096000Y0272190D02*
X0086000Y0272190D01*
X0086000Y0272689D02*
X0096000Y0272689D01*
X0096000Y0273187D02*
X0086000Y0273187D01*
X0086000Y0273686D02*
X0096000Y0273686D01*
X0096000Y0274184D02*
X0086000Y0274184D01*
X0086000Y0274683D02*
X0096000Y0274683D01*
X0096000Y0275181D02*
X0086000Y0275181D01*
X0086000Y0275680D02*
X0096000Y0275680D01*
X0081000Y0275680D02*
X0071000Y0275680D01*
X0071000Y0275181D02*
X0081000Y0275181D01*
X0081000Y0274683D02*
X0071000Y0274683D01*
X0071000Y0274184D02*
X0081000Y0274184D01*
X0081000Y0273686D02*
X0071000Y0273686D01*
X0071000Y0273187D02*
X0081000Y0273187D01*
X0081000Y0272689D02*
X0071000Y0272689D01*
X0071000Y0272190D02*
X0081000Y0272190D01*
X0081000Y0271692D02*
X0071000Y0271692D01*
X0071000Y0271193D02*
X0081000Y0271193D01*
X0081000Y0270695D02*
X0071000Y0270695D01*
X0071000Y0270196D02*
X0081000Y0270196D01*
X0081000Y0269698D02*
X0071000Y0269698D01*
X0071000Y0269199D02*
X0081000Y0269199D01*
X0081000Y0268701D02*
X0071000Y0268701D01*
X0071000Y0268202D02*
X0081000Y0268202D01*
X0081000Y0267704D02*
X0071000Y0267704D01*
X0071000Y0267205D02*
X0081000Y0267205D01*
X0081000Y0266707D02*
X0071000Y0266707D01*
X0071000Y0266208D02*
X0081000Y0266208D01*
X0081000Y0265710D02*
X0071000Y0265710D01*
X0071000Y0265211D02*
X0081000Y0265211D01*
X0081000Y0264712D02*
X0071000Y0264712D01*
X0071000Y0264214D02*
X0081000Y0264214D01*
X0081000Y0263715D02*
X0071000Y0263715D01*
X0071000Y0263217D02*
X0081000Y0263217D01*
X0081000Y0262718D02*
X0071000Y0262718D01*
X0071000Y0262220D02*
X0081000Y0262220D01*
X0081000Y0261721D02*
X0071000Y0261721D01*
X0071000Y0261223D02*
X0081000Y0261223D01*
X0066000Y0261223D02*
X0056000Y0261223D01*
X0056000Y0261721D02*
X0066000Y0261721D01*
X0066000Y0262220D02*
X0056000Y0262220D01*
X0056000Y0262718D02*
X0066000Y0262718D01*
X0066000Y0263217D02*
X0056000Y0263217D01*
X0056000Y0263715D02*
X0066000Y0263715D01*
X0066000Y0264214D02*
X0056000Y0264214D01*
X0056000Y0264712D02*
X0066000Y0264712D01*
X0066000Y0265211D02*
X0056000Y0265211D01*
X0056000Y0265710D02*
X0066000Y0265710D01*
X0066000Y0266208D02*
X0056000Y0266208D01*
X0056000Y0266707D02*
X0066000Y0266707D01*
X0066000Y0267205D02*
X0056000Y0267205D01*
X0056000Y0267704D02*
X0066000Y0267704D01*
X0066000Y0268202D02*
X0056000Y0268202D01*
X0056000Y0268701D02*
X0066000Y0268701D01*
X0066000Y0269199D02*
X0056000Y0269199D01*
X0056000Y0269698D02*
X0066000Y0269698D01*
X0066000Y0270196D02*
X0056000Y0270196D01*
X0056000Y0270695D02*
X0066000Y0270695D01*
X0066000Y0271193D02*
X0056000Y0271193D01*
X0056000Y0271692D02*
X0066000Y0271692D01*
X0066000Y0272190D02*
X0056000Y0272190D01*
X0056000Y0272689D02*
X0066000Y0272689D01*
X0066000Y0273187D02*
X0056000Y0273187D01*
X0056000Y0273686D02*
X0066000Y0273686D01*
X0066000Y0274184D02*
X0056000Y0274184D01*
X0056000Y0274683D02*
X0066000Y0274683D01*
X0066000Y0275181D02*
X0056000Y0275181D01*
X0056000Y0275680D02*
X0066000Y0275680D01*
X0051000Y0275680D02*
X0041000Y0275680D01*
X0041000Y0275181D02*
X0051000Y0275181D01*
X0051000Y0274683D02*
X0041000Y0274683D01*
X0041000Y0274184D02*
X0051000Y0274184D01*
X0051000Y0273686D02*
X0041000Y0273686D01*
X0041000Y0273187D02*
X0051000Y0273187D01*
X0051000Y0272689D02*
X0041000Y0272689D01*
X0041000Y0272190D02*
X0051000Y0272190D01*
X0051000Y0271692D02*
X0041000Y0271692D01*
X0041000Y0271193D02*
X0051000Y0271193D01*
X0051000Y0270695D02*
X0041000Y0270695D01*
X0041000Y0270196D02*
X0051000Y0270196D01*
X0051000Y0269698D02*
X0041000Y0269698D01*
X0041000Y0269199D02*
X0051000Y0269199D01*
X0051000Y0268701D02*
X0041000Y0268701D01*
X0041000Y0268202D02*
X0051000Y0268202D01*
X0051000Y0267704D02*
X0041000Y0267704D01*
X0041000Y0267205D02*
X0051000Y0267205D01*
X0051000Y0266707D02*
X0041000Y0266707D01*
X0041000Y0266208D02*
X0051000Y0266208D01*
X0051000Y0265710D02*
X0041000Y0265710D01*
X0041000Y0265211D02*
X0051000Y0265211D01*
X0051000Y0264712D02*
X0041000Y0264712D01*
X0041000Y0264214D02*
X0051000Y0264214D01*
X0051000Y0263715D02*
X0041000Y0263715D01*
X0041000Y0263217D02*
X0051000Y0263217D01*
X0051000Y0262718D02*
X0041000Y0262718D01*
X0041000Y0262220D02*
X0051000Y0262220D01*
X0051000Y0261721D02*
X0041000Y0261721D01*
X0041000Y0261223D02*
X0051000Y0261223D01*
X0054727Y0253745D02*
X0006000Y0253745D01*
X0006000Y0253247D02*
X0053667Y0253247D01*
X0053168Y0252748D02*
X0006000Y0252748D01*
X0006000Y0252250D02*
X0052670Y0252250D01*
X0052171Y0251751D02*
X0006000Y0251751D01*
X0006000Y0251253D02*
X0051673Y0251253D01*
X0051174Y0250754D02*
X0006000Y0250754D01*
X0006000Y0250256D02*
X0050676Y0250256D01*
X0050177Y0249757D02*
X0006000Y0249757D01*
X0006000Y0249259D02*
X0049679Y0249259D01*
X0049461Y0248760D02*
X0006000Y0248760D01*
X0006000Y0248262D02*
X0049254Y0248262D01*
X0049240Y0247763D02*
X0006000Y0247763D01*
X0006000Y0247265D02*
X0049240Y0247265D01*
X0054740Y0243277D02*
X0057041Y0243277D01*
X0056543Y0242778D02*
X0054740Y0242778D01*
X0054740Y0242279D02*
X0056212Y0242279D01*
X0056006Y0241781D02*
X0054740Y0241781D01*
X0054740Y0241282D02*
X0055913Y0241282D01*
X0055913Y0240784D02*
X0054740Y0240784D01*
X0054740Y0240285D02*
X0055985Y0240285D01*
X0056192Y0239787D02*
X0054740Y0239787D01*
X0054740Y0239288D02*
X0056494Y0239288D01*
X0056992Y0238790D02*
X0054740Y0238790D01*
X0054740Y0238291D02*
X0058036Y0238291D01*
X0055414Y0234802D02*
X0061911Y0234802D01*
X0061413Y0234303D02*
X0055912Y0234303D01*
X0056411Y0233805D02*
X0060914Y0233805D01*
X0062410Y0235300D02*
X0054915Y0235300D01*
X0054740Y0235799D02*
X0062585Y0235799D01*
X0062585Y0236297D02*
X0054740Y0236297D01*
X0054740Y0236796D02*
X0062585Y0236796D01*
X0062585Y0237294D02*
X0054740Y0237294D01*
X0054740Y0237793D02*
X0062585Y0237793D01*
X0036000Y0261223D02*
X0026000Y0261223D01*
X0026000Y0261721D02*
X0036000Y0261721D01*
X0036000Y0262220D02*
X0026000Y0262220D01*
X0026000Y0262718D02*
X0036000Y0262718D01*
X0036000Y0263217D02*
X0026000Y0263217D01*
X0026000Y0263715D02*
X0036000Y0263715D01*
X0036000Y0264214D02*
X0026000Y0264214D01*
X0026000Y0264712D02*
X0036000Y0264712D01*
X0036000Y0265211D02*
X0026000Y0265211D01*
X0026000Y0265710D02*
X0036000Y0265710D01*
X0036000Y0266208D02*
X0026000Y0266208D01*
X0026000Y0266707D02*
X0036000Y0266707D01*
X0036000Y0267205D02*
X0026000Y0267205D01*
X0026000Y0267704D02*
X0036000Y0267704D01*
X0036000Y0268202D02*
X0026000Y0268202D01*
X0026000Y0268701D02*
X0036000Y0268701D01*
X0036000Y0269199D02*
X0026000Y0269199D01*
X0026000Y0269698D02*
X0036000Y0269698D01*
X0036000Y0270196D02*
X0026000Y0270196D01*
X0026000Y0270695D02*
X0036000Y0270695D01*
X0036000Y0271193D02*
X0026000Y0271193D01*
X0026000Y0271692D02*
X0036000Y0271692D01*
X0036000Y0272190D02*
X0026000Y0272190D01*
X0026000Y0272689D02*
X0036000Y0272689D01*
X0036000Y0273187D02*
X0026000Y0273187D01*
X0026000Y0273686D02*
X0036000Y0273686D01*
X0036000Y0274184D02*
X0026000Y0274184D01*
X0026000Y0274683D02*
X0036000Y0274683D01*
X0036000Y0275181D02*
X0026000Y0275181D01*
X0026000Y0275680D02*
X0036000Y0275680D01*
X0021000Y0275680D02*
X0011000Y0275680D01*
X0011000Y0275181D02*
X0021000Y0275181D01*
X0021000Y0274683D02*
X0011000Y0274683D01*
X0011000Y0274184D02*
X0021000Y0274184D01*
X0021000Y0273686D02*
X0011000Y0273686D01*
X0011000Y0273187D02*
X0021000Y0273187D01*
X0021000Y0272689D02*
X0011000Y0272689D01*
X0011000Y0272190D02*
X0021000Y0272190D01*
X0021000Y0271692D02*
X0011000Y0271692D01*
X0011000Y0271193D02*
X0021000Y0271193D01*
X0021000Y0270695D02*
X0011000Y0270695D01*
X0011000Y0270196D02*
X0021000Y0270196D01*
X0021000Y0269698D02*
X0011000Y0269698D01*
X0011000Y0269199D02*
X0021000Y0269199D01*
X0021000Y0268701D02*
X0011000Y0268701D01*
X0011000Y0268202D02*
X0021000Y0268202D01*
X0021000Y0267704D02*
X0011000Y0267704D01*
X0011000Y0267205D02*
X0021000Y0267205D01*
X0021000Y0266707D02*
X0011000Y0266707D01*
X0011000Y0266208D02*
X0021000Y0266208D01*
X0021000Y0265710D02*
X0011000Y0265710D01*
X0011000Y0265211D02*
X0021000Y0265211D01*
X0021000Y0264712D02*
X0011000Y0264712D01*
X0011000Y0264214D02*
X0021000Y0264214D01*
X0021000Y0263715D02*
X0011000Y0263715D01*
X0011000Y0263217D02*
X0021000Y0263217D01*
X0021000Y0262718D02*
X0011000Y0262718D01*
X0011000Y0262220D02*
X0021000Y0262220D01*
X0021000Y0261721D02*
X0011000Y0261721D01*
X0011000Y0261223D02*
X0021000Y0261223D01*
X0021000Y0136000D02*
X0011000Y0136000D01*
X0011000Y0121000D01*
X0006000Y0121000D01*
X0006000Y0081000D01*
X0191000Y0081000D01*
X0191000Y0121000D01*
X0186000Y0121000D01*
X0186000Y0136000D01*
X0176000Y0136000D01*
X0176000Y0121000D01*
X0171000Y0121000D01*
X0171000Y0136000D01*
X0161000Y0136000D01*
X0161000Y0121000D01*
X0156000Y0121000D01*
X0156000Y0136000D01*
X0146000Y0136000D01*
X0146000Y0121000D01*
X0141000Y0121000D01*
X0141000Y0136000D01*
X0131000Y0136000D01*
X0131000Y0121000D01*
X0126000Y0121000D01*
X0126000Y0136000D01*
X0116000Y0136000D01*
X0116000Y0121000D01*
X0111000Y0121000D01*
X0111000Y0136000D01*
X0101000Y0136000D01*
X0101000Y0121000D01*
X0096000Y0121000D01*
X0096000Y0136000D01*
X0086000Y0136000D01*
X0086000Y0121000D01*
X0081000Y0121000D01*
X0081000Y0136000D01*
X0071000Y0136000D01*
X0071000Y0121000D01*
X0066000Y0121000D01*
X0066000Y0136000D01*
X0056000Y0136000D01*
X0056000Y0121000D01*
X0051000Y0121000D01*
X0051000Y0136000D01*
X0041000Y0136000D01*
X0041000Y0121000D01*
X0036000Y0121000D01*
X0036000Y0136000D01*
X0026000Y0136000D01*
X0026000Y0121000D01*
X0021000Y0121000D01*
X0021000Y0136000D01*
X0021000Y0135598D02*
X0011000Y0135598D01*
X0011000Y0135100D02*
X0021000Y0135100D01*
X0021000Y0134601D02*
X0011000Y0134601D01*
X0011000Y0134103D02*
X0021000Y0134103D01*
X0021000Y0133604D02*
X0011000Y0133604D01*
X0011000Y0133105D02*
X0021000Y0133105D01*
X0021000Y0132607D02*
X0011000Y0132607D01*
X0011000Y0132108D02*
X0021000Y0132108D01*
X0021000Y0131610D02*
X0011000Y0131610D01*
X0011000Y0131111D02*
X0021000Y0131111D01*
X0021000Y0130613D02*
X0011000Y0130613D01*
X0011000Y0130114D02*
X0021000Y0130114D01*
X0021000Y0129616D02*
X0011000Y0129616D01*
X0011000Y0129117D02*
X0021000Y0129117D01*
X0021000Y0128619D02*
X0011000Y0128619D01*
X0011000Y0128120D02*
X0021000Y0128120D01*
X0021000Y0127622D02*
X0011000Y0127622D01*
X0011000Y0127123D02*
X0021000Y0127123D01*
X0021000Y0126625D02*
X0011000Y0126625D01*
X0011000Y0126126D02*
X0021000Y0126126D01*
X0021000Y0125628D02*
X0011000Y0125628D01*
X0011000Y0125129D02*
X0021000Y0125129D01*
X0021000Y0124631D02*
X0011000Y0124631D01*
X0011000Y0124132D02*
X0021000Y0124132D01*
X0021000Y0123634D02*
X0011000Y0123634D01*
X0011000Y0123135D02*
X0021000Y0123135D01*
X0021000Y0122637D02*
X0011000Y0122637D01*
X0011000Y0122138D02*
X0021000Y0122138D01*
X0021000Y0121640D02*
X0011000Y0121640D01*
X0011000Y0121141D02*
X0021000Y0121141D01*
X0026000Y0121141D02*
X0036000Y0121141D01*
X0036000Y0121640D02*
X0026000Y0121640D01*
X0026000Y0122138D02*
X0036000Y0122138D01*
X0036000Y0122637D02*
X0026000Y0122637D01*
X0026000Y0123135D02*
X0036000Y0123135D01*
X0036000Y0123634D02*
X0026000Y0123634D01*
X0026000Y0124132D02*
X0036000Y0124132D01*
X0036000Y0124631D02*
X0026000Y0124631D01*
X0026000Y0125129D02*
X0036000Y0125129D01*
X0036000Y0125628D02*
X0026000Y0125628D01*
X0026000Y0126126D02*
X0036000Y0126126D01*
X0036000Y0126625D02*
X0026000Y0126625D01*
X0026000Y0127123D02*
X0036000Y0127123D01*
X0036000Y0127622D02*
X0026000Y0127622D01*
X0026000Y0128120D02*
X0036000Y0128120D01*
X0036000Y0128619D02*
X0026000Y0128619D01*
X0026000Y0129117D02*
X0036000Y0129117D01*
X0036000Y0129616D02*
X0026000Y0129616D01*
X0026000Y0130114D02*
X0036000Y0130114D01*
X0036000Y0130613D02*
X0026000Y0130613D01*
X0026000Y0131111D02*
X0036000Y0131111D01*
X0036000Y0131610D02*
X0026000Y0131610D01*
X0026000Y0132108D02*
X0036000Y0132108D01*
X0036000Y0132607D02*
X0026000Y0132607D01*
X0026000Y0133105D02*
X0036000Y0133105D01*
X0036000Y0133604D02*
X0026000Y0133604D01*
X0026000Y0134103D02*
X0036000Y0134103D01*
X0036000Y0134601D02*
X0026000Y0134601D01*
X0026000Y0135100D02*
X0036000Y0135100D01*
X0036000Y0135598D02*
X0026000Y0135598D01*
X0041000Y0135598D02*
X0051000Y0135598D01*
X0051000Y0135100D02*
X0041000Y0135100D01*
X0041000Y0134601D02*
X0051000Y0134601D01*
X0051000Y0134103D02*
X0041000Y0134103D01*
X0041000Y0133604D02*
X0051000Y0133604D01*
X0051000Y0133105D02*
X0041000Y0133105D01*
X0041000Y0132607D02*
X0051000Y0132607D01*
X0051000Y0132108D02*
X0041000Y0132108D01*
X0041000Y0131610D02*
X0051000Y0131610D01*
X0051000Y0131111D02*
X0041000Y0131111D01*
X0041000Y0130613D02*
X0051000Y0130613D01*
X0051000Y0130114D02*
X0041000Y0130114D01*
X0041000Y0129616D02*
X0051000Y0129616D01*
X0051000Y0129117D02*
X0041000Y0129117D01*
X0041000Y0128619D02*
X0051000Y0128619D01*
X0051000Y0128120D02*
X0041000Y0128120D01*
X0041000Y0127622D02*
X0051000Y0127622D01*
X0051000Y0127123D02*
X0041000Y0127123D01*
X0041000Y0126625D02*
X0051000Y0126625D01*
X0051000Y0126126D02*
X0041000Y0126126D01*
X0041000Y0125628D02*
X0051000Y0125628D01*
X0051000Y0125129D02*
X0041000Y0125129D01*
X0041000Y0124631D02*
X0051000Y0124631D01*
X0051000Y0124132D02*
X0041000Y0124132D01*
X0041000Y0123634D02*
X0051000Y0123634D01*
X0051000Y0123135D02*
X0041000Y0123135D01*
X0041000Y0122637D02*
X0051000Y0122637D01*
X0051000Y0122138D02*
X0041000Y0122138D01*
X0041000Y0121640D02*
X0051000Y0121640D01*
X0051000Y0121141D02*
X0041000Y0121141D01*
X0051093Y0110672D02*
X0006000Y0110672D01*
X0006000Y0110174D02*
X0050594Y0110174D01*
X0050432Y0110012D02*
X0049659Y0109239D01*
X0049240Y0108228D01*
X0049240Y0093789D01*
X0049659Y0092778D01*
X0052995Y0089442D01*
X0053769Y0088669D01*
X0054779Y0088250D01*
X0062546Y0088250D01*
X0063556Y0088669D01*
X0066893Y0092005D01*
X0067666Y0092778D01*
X0068085Y0093789D01*
X0068085Y0101556D01*
X0067666Y0102566D01*
X0066893Y0103340D01*
X0065882Y0103759D01*
X0058116Y0103759D01*
X0057105Y0103340D01*
X0056331Y0102566D01*
X0055913Y0101556D01*
X0055913Y0100462D01*
X0056331Y0099451D01*
X0057105Y0098677D01*
X0058116Y0098259D01*
X0062585Y0098259D01*
X0062585Y0095475D01*
X0060860Y0093750D01*
X0056465Y0093750D01*
X0054740Y0095475D01*
X0054740Y0106542D01*
X0056465Y0108267D01*
X0060860Y0108267D01*
X0063777Y0105350D01*
X0064788Y0104931D01*
X0065882Y0104931D01*
X0066893Y0105350D01*
X0067666Y0106123D01*
X0068085Y0107134D01*
X0068085Y0108228D01*
X0067666Y0109239D01*
X0064330Y0112575D01*
X0063556Y0113348D01*
X0062546Y0113767D01*
X0054779Y0113767D01*
X0053769Y0113348D01*
X0050432Y0110012D01*
X0050096Y0109675D02*
X0006000Y0109675D01*
X0006000Y0109177D02*
X0049633Y0109177D01*
X0049427Y0108678D02*
X0006000Y0108678D01*
X0006000Y0108180D02*
X0049240Y0108180D01*
X0049240Y0107681D02*
X0006000Y0107681D01*
X0006000Y0107183D02*
X0022177Y0107183D01*
X0022263Y0107218D02*
X0019977Y0106272D01*
X0018228Y0104522D01*
X0017281Y0102237D01*
X0017281Y0099763D01*
X0018228Y0097477D01*
X0019977Y0095728D01*
X0022263Y0094781D01*
X0024737Y0094781D01*
X0027022Y0095728D01*
X0028772Y0097477D01*
X0029718Y0099763D01*
X0029718Y0102237D01*
X0028772Y0104522D01*
X0027022Y0106272D01*
X0024737Y0107218D01*
X0022263Y0107218D01*
X0020974Y0106684D02*
X0006000Y0106684D01*
X0006000Y0106186D02*
X0019892Y0106186D01*
X0019393Y0105687D02*
X0006000Y0105687D01*
X0006000Y0105189D02*
X0018895Y0105189D01*
X0018396Y0104690D02*
X0006000Y0104690D01*
X0006000Y0104192D02*
X0018091Y0104192D01*
X0017885Y0103693D02*
X0006000Y0103693D01*
X0006000Y0103195D02*
X0017678Y0103195D01*
X0017472Y0102696D02*
X0006000Y0102696D01*
X0006000Y0102198D02*
X0017281Y0102198D01*
X0017281Y0101699D02*
X0006000Y0101699D01*
X0006000Y0101201D02*
X0017281Y0101201D01*
X0017281Y0100702D02*
X0006000Y0100702D01*
X0006000Y0100204D02*
X0017281Y0100204D01*
X0017305Y0099705D02*
X0006000Y0099705D01*
X0006000Y0099207D02*
X0017512Y0099207D01*
X0017718Y0098708D02*
X0006000Y0098708D01*
X0006000Y0098210D02*
X0017925Y0098210D01*
X0018131Y0097711D02*
X0006000Y0097711D01*
X0006000Y0097213D02*
X0018493Y0097213D01*
X0018992Y0096714D02*
X0006000Y0096714D01*
X0006000Y0096216D02*
X0019490Y0096216D01*
X0020004Y0095717D02*
X0006000Y0095717D01*
X0006000Y0095219D02*
X0021208Y0095219D01*
X0025792Y0095219D02*
X0049240Y0095219D01*
X0049240Y0095717D02*
X0026996Y0095717D01*
X0027510Y0096216D02*
X0049240Y0096216D01*
X0049240Y0096714D02*
X0028008Y0096714D01*
X0028507Y0097213D02*
X0049240Y0097213D01*
X0049240Y0097711D02*
X0028869Y0097711D01*
X0029075Y0098210D02*
X0049240Y0098210D01*
X0049240Y0098708D02*
X0029282Y0098708D01*
X0029488Y0099207D02*
X0049240Y0099207D01*
X0049240Y0099705D02*
X0029695Y0099705D01*
X0029718Y0100204D02*
X0049240Y0100204D01*
X0049240Y0100702D02*
X0029718Y0100702D01*
X0029718Y0101201D02*
X0049240Y0101201D01*
X0049240Y0101699D02*
X0029718Y0101699D01*
X0029718Y0102198D02*
X0049240Y0102198D01*
X0049240Y0102696D02*
X0029528Y0102696D01*
X0029322Y0103195D02*
X0049240Y0103195D01*
X0049240Y0103693D02*
X0029115Y0103693D01*
X0028909Y0104192D02*
X0049240Y0104192D01*
X0049240Y0104690D02*
X0028604Y0104690D01*
X0028105Y0105189D02*
X0049240Y0105189D01*
X0049240Y0105687D02*
X0027607Y0105687D01*
X0027108Y0106186D02*
X0049240Y0106186D01*
X0049240Y0106684D02*
X0026026Y0106684D01*
X0024823Y0107183D02*
X0049240Y0107183D01*
X0051591Y0111171D02*
X0006000Y0111171D01*
X0006000Y0111670D02*
X0052090Y0111670D01*
X0052588Y0112168D02*
X0006000Y0112168D01*
X0006000Y0112667D02*
X0053087Y0112667D01*
X0053585Y0113165D02*
X0006000Y0113165D01*
X0006000Y0113664D02*
X0054529Y0113664D01*
X0056378Y0108180D02*
X0060947Y0108180D01*
X0061445Y0107681D02*
X0055880Y0107681D01*
X0055381Y0107183D02*
X0061944Y0107183D01*
X0062442Y0106684D02*
X0054883Y0106684D01*
X0054740Y0106186D02*
X0062941Y0106186D01*
X0063439Y0105687D02*
X0054740Y0105687D01*
X0054740Y0105189D02*
X0064165Y0105189D01*
X0066505Y0105189D02*
X0093895Y0105189D01*
X0094393Y0105687D02*
X0067230Y0105687D01*
X0067692Y0106186D02*
X0094892Y0106186D01*
X0094977Y0106272D02*
X0093228Y0104522D01*
X0092281Y0102237D01*
X0092281Y0099763D01*
X0093228Y0097477D01*
X0094977Y0095728D01*
X0097263Y0094781D01*
X0099737Y0094781D01*
X0102022Y0095728D01*
X0103772Y0097477D01*
X0104718Y0099763D01*
X0104718Y0102237D01*
X0103772Y0104522D01*
X0102022Y0106272D01*
X0099737Y0107218D01*
X0097263Y0107218D01*
X0094977Y0106272D01*
X0095974Y0106684D02*
X0067899Y0106684D01*
X0068085Y0107183D02*
X0097177Y0107183D01*
X0099823Y0107183D02*
X0172177Y0107183D01*
X0172263Y0107218D02*
X0169977Y0106272D01*
X0168228Y0104522D01*
X0167281Y0102237D01*
X0167281Y0099763D01*
X0168228Y0097477D01*
X0169977Y0095728D01*
X0172263Y0094781D01*
X0174737Y0094781D01*
X0177022Y0095728D01*
X0178772Y0097477D01*
X0179718Y0099763D01*
X0179718Y0102237D01*
X0178772Y0104522D01*
X0177022Y0106272D01*
X0174737Y0107218D01*
X0172263Y0107218D01*
X0170974Y0106684D02*
X0101026Y0106684D01*
X0102108Y0106186D02*
X0169892Y0106186D01*
X0169393Y0105687D02*
X0102607Y0105687D01*
X0103105Y0105189D02*
X0168895Y0105189D01*
X0168396Y0104690D02*
X0103604Y0104690D01*
X0103909Y0104192D02*
X0168091Y0104192D01*
X0167885Y0103693D02*
X0104115Y0103693D01*
X0104322Y0103195D02*
X0167678Y0103195D01*
X0167472Y0102696D02*
X0104528Y0102696D01*
X0104718Y0102198D02*
X0167281Y0102198D01*
X0167281Y0101699D02*
X0104718Y0101699D01*
X0104718Y0101201D02*
X0167281Y0101201D01*
X0167281Y0100702D02*
X0104718Y0100702D01*
X0104718Y0100204D02*
X0167281Y0100204D01*
X0167305Y0099705D02*
X0104695Y0099705D01*
X0104488Y0099207D02*
X0167512Y0099207D01*
X0167718Y0098708D02*
X0104282Y0098708D01*
X0104075Y0098210D02*
X0167925Y0098210D01*
X0168131Y0097711D02*
X0103869Y0097711D01*
X0103507Y0097213D02*
X0168493Y0097213D01*
X0168992Y0096714D02*
X0103008Y0096714D01*
X0102510Y0096216D02*
X0169490Y0096216D01*
X0170004Y0095717D02*
X0101996Y0095717D01*
X0100792Y0095219D02*
X0171208Y0095219D01*
X0175792Y0095219D02*
X0191000Y0095219D01*
X0191000Y0095717D02*
X0176996Y0095717D01*
X0177510Y0096216D02*
X0191000Y0096216D01*
X0191000Y0096714D02*
X0178008Y0096714D01*
X0178507Y0097213D02*
X0191000Y0097213D01*
X0191000Y0097711D02*
X0178869Y0097711D01*
X0179075Y0098210D02*
X0191000Y0098210D01*
X0191000Y0098708D02*
X0179282Y0098708D01*
X0179488Y0099207D02*
X0191000Y0099207D01*
X0191000Y0099705D02*
X0179695Y0099705D01*
X0179718Y0100204D02*
X0191000Y0100204D01*
X0191000Y0100702D02*
X0179718Y0100702D01*
X0179718Y0101201D02*
X0191000Y0101201D01*
X0191000Y0101699D02*
X0179718Y0101699D01*
X0179718Y0102198D02*
X0191000Y0102198D01*
X0191000Y0102696D02*
X0179528Y0102696D01*
X0179322Y0103195D02*
X0191000Y0103195D01*
X0191000Y0103693D02*
X0179115Y0103693D01*
X0178909Y0104192D02*
X0191000Y0104192D01*
X0191000Y0104690D02*
X0178604Y0104690D01*
X0178105Y0105189D02*
X0191000Y0105189D01*
X0191000Y0105687D02*
X0177607Y0105687D01*
X0177108Y0106186D02*
X0191000Y0106186D01*
X0191000Y0106684D02*
X0176026Y0106684D01*
X0174823Y0107183D02*
X0191000Y0107183D01*
X0191000Y0107681D02*
X0068085Y0107681D01*
X0068085Y0108180D02*
X0191000Y0108180D01*
X0191000Y0108678D02*
X0067898Y0108678D01*
X0067692Y0109177D02*
X0191000Y0109177D01*
X0191000Y0109675D02*
X0067229Y0109675D01*
X0066731Y0110174D02*
X0191000Y0110174D01*
X0191000Y0110672D02*
X0066232Y0110672D01*
X0065734Y0111171D02*
X0191000Y0111171D01*
X0191000Y0111670D02*
X0065235Y0111670D01*
X0064737Y0112168D02*
X0191000Y0112168D01*
X0191000Y0112667D02*
X0064238Y0112667D01*
X0063740Y0113165D02*
X0191000Y0113165D01*
X0191000Y0113664D02*
X0062796Y0113664D01*
X0066000Y0121141D02*
X0056000Y0121141D01*
X0056000Y0121640D02*
X0066000Y0121640D01*
X0066000Y0122138D02*
X0056000Y0122138D01*
X0056000Y0122637D02*
X0066000Y0122637D01*
X0066000Y0123135D02*
X0056000Y0123135D01*
X0056000Y0123634D02*
X0066000Y0123634D01*
X0066000Y0124132D02*
X0056000Y0124132D01*
X0056000Y0124631D02*
X0066000Y0124631D01*
X0066000Y0125129D02*
X0056000Y0125129D01*
X0056000Y0125628D02*
X0066000Y0125628D01*
X0066000Y0126126D02*
X0056000Y0126126D01*
X0056000Y0126625D02*
X0066000Y0126625D01*
X0066000Y0127123D02*
X0056000Y0127123D01*
X0056000Y0127622D02*
X0066000Y0127622D01*
X0066000Y0128120D02*
X0056000Y0128120D01*
X0056000Y0128619D02*
X0066000Y0128619D01*
X0066000Y0129117D02*
X0056000Y0129117D01*
X0056000Y0129616D02*
X0066000Y0129616D01*
X0066000Y0130114D02*
X0056000Y0130114D01*
X0056000Y0130613D02*
X0066000Y0130613D01*
X0066000Y0131111D02*
X0056000Y0131111D01*
X0056000Y0131610D02*
X0066000Y0131610D01*
X0066000Y0132108D02*
X0056000Y0132108D01*
X0056000Y0132607D02*
X0066000Y0132607D01*
X0066000Y0133105D02*
X0056000Y0133105D01*
X0056000Y0133604D02*
X0066000Y0133604D01*
X0066000Y0134103D02*
X0056000Y0134103D01*
X0056000Y0134601D02*
X0066000Y0134601D01*
X0066000Y0135100D02*
X0056000Y0135100D01*
X0056000Y0135598D02*
X0066000Y0135598D01*
X0071000Y0135598D02*
X0081000Y0135598D01*
X0081000Y0135100D02*
X0071000Y0135100D01*
X0071000Y0134601D02*
X0081000Y0134601D01*
X0081000Y0134103D02*
X0071000Y0134103D01*
X0071000Y0133604D02*
X0081000Y0133604D01*
X0081000Y0133105D02*
X0071000Y0133105D01*
X0071000Y0132607D02*
X0081000Y0132607D01*
X0081000Y0132108D02*
X0071000Y0132108D01*
X0071000Y0131610D02*
X0081000Y0131610D01*
X0081000Y0131111D02*
X0071000Y0131111D01*
X0071000Y0130613D02*
X0081000Y0130613D01*
X0081000Y0130114D02*
X0071000Y0130114D01*
X0071000Y0129616D02*
X0081000Y0129616D01*
X0081000Y0129117D02*
X0071000Y0129117D01*
X0071000Y0128619D02*
X0081000Y0128619D01*
X0081000Y0128120D02*
X0071000Y0128120D01*
X0071000Y0127622D02*
X0081000Y0127622D01*
X0081000Y0127123D02*
X0071000Y0127123D01*
X0071000Y0126625D02*
X0081000Y0126625D01*
X0081000Y0126126D02*
X0071000Y0126126D01*
X0071000Y0125628D02*
X0081000Y0125628D01*
X0081000Y0125129D02*
X0071000Y0125129D01*
X0071000Y0124631D02*
X0081000Y0124631D01*
X0081000Y0124132D02*
X0071000Y0124132D01*
X0071000Y0123634D02*
X0081000Y0123634D01*
X0081000Y0123135D02*
X0071000Y0123135D01*
X0071000Y0122637D02*
X0081000Y0122637D01*
X0081000Y0122138D02*
X0071000Y0122138D01*
X0071000Y0121640D02*
X0081000Y0121640D01*
X0081000Y0121141D02*
X0071000Y0121141D01*
X0066039Y0103693D02*
X0092885Y0103693D01*
X0092678Y0103195D02*
X0067038Y0103195D01*
X0067536Y0102696D02*
X0092472Y0102696D01*
X0092281Y0102198D02*
X0067819Y0102198D01*
X0068025Y0101699D02*
X0092281Y0101699D01*
X0092281Y0101201D02*
X0068085Y0101201D01*
X0068085Y0100702D02*
X0092281Y0100702D01*
X0092281Y0100204D02*
X0068085Y0100204D01*
X0068085Y0099705D02*
X0092305Y0099705D01*
X0092512Y0099207D02*
X0068085Y0099207D01*
X0068085Y0098708D02*
X0092718Y0098708D01*
X0092925Y0098210D02*
X0068085Y0098210D01*
X0068085Y0097711D02*
X0093131Y0097711D01*
X0093493Y0097213D02*
X0068085Y0097213D01*
X0068085Y0096714D02*
X0093992Y0096714D01*
X0094490Y0096216D02*
X0068085Y0096216D01*
X0068085Y0095717D02*
X0095004Y0095717D01*
X0096208Y0095219D02*
X0068085Y0095219D01*
X0068085Y0094720D02*
X0191000Y0094720D01*
X0191000Y0094222D02*
X0068085Y0094222D01*
X0068058Y0093723D02*
X0191000Y0093723D01*
X0191000Y0093225D02*
X0067851Y0093225D01*
X0067614Y0092726D02*
X0191000Y0092726D01*
X0191000Y0092228D02*
X0067115Y0092228D01*
X0066617Y0091729D02*
X0191000Y0091729D01*
X0191000Y0091231D02*
X0066118Y0091231D01*
X0065620Y0090732D02*
X0191000Y0090732D01*
X0191000Y0090234D02*
X0065121Y0090234D01*
X0064623Y0089735D02*
X0191000Y0089735D01*
X0191000Y0089237D02*
X0064124Y0089237D01*
X0063626Y0088738D02*
X0191000Y0088738D01*
X0191000Y0088239D02*
X0006000Y0088239D01*
X0006000Y0087741D02*
X0191000Y0087741D01*
X0191000Y0087242D02*
X0006000Y0087242D01*
X0006000Y0086744D02*
X0191000Y0086744D01*
X0191000Y0086245D02*
X0006000Y0086245D01*
X0006000Y0085747D02*
X0191000Y0085747D01*
X0191000Y0085248D02*
X0006000Y0085248D01*
X0006000Y0084750D02*
X0191000Y0084750D01*
X0191000Y0084251D02*
X0006000Y0084251D01*
X0006000Y0083753D02*
X0191000Y0083753D01*
X0191000Y0083254D02*
X0006000Y0083254D01*
X0006000Y0082756D02*
X0191000Y0082756D01*
X0191000Y0082257D02*
X0006000Y0082257D01*
X0006000Y0081759D02*
X0191000Y0081759D01*
X0191000Y0081260D02*
X0006000Y0081260D01*
X0006000Y0088738D02*
X0053699Y0088738D01*
X0053201Y0089237D02*
X0006000Y0089237D01*
X0006000Y0089735D02*
X0052702Y0089735D01*
X0052204Y0090234D02*
X0006000Y0090234D01*
X0006000Y0090732D02*
X0051705Y0090732D01*
X0051207Y0091231D02*
X0006000Y0091231D01*
X0006000Y0091729D02*
X0050708Y0091729D01*
X0050210Y0092228D02*
X0006000Y0092228D01*
X0006000Y0092726D02*
X0049711Y0092726D01*
X0049474Y0093225D02*
X0006000Y0093225D01*
X0006000Y0093723D02*
X0049268Y0093723D01*
X0049240Y0094222D02*
X0006000Y0094222D01*
X0006000Y0094720D02*
X0049240Y0094720D01*
X0054740Y0095717D02*
X0062585Y0095717D01*
X0062585Y0096216D02*
X0054740Y0096216D01*
X0054740Y0096714D02*
X0062585Y0096714D01*
X0062585Y0097213D02*
X0054740Y0097213D01*
X0054740Y0097711D02*
X0062585Y0097711D01*
X0062585Y0098210D02*
X0054740Y0098210D01*
X0054740Y0098708D02*
X0057074Y0098708D01*
X0056575Y0099207D02*
X0054740Y0099207D01*
X0054740Y0099705D02*
X0056226Y0099705D01*
X0056019Y0100204D02*
X0054740Y0100204D01*
X0054740Y0100702D02*
X0055913Y0100702D01*
X0055913Y0101201D02*
X0054740Y0101201D01*
X0054740Y0101699D02*
X0055972Y0101699D01*
X0056179Y0102198D02*
X0054740Y0102198D01*
X0054740Y0102696D02*
X0056461Y0102696D01*
X0056960Y0103195D02*
X0054740Y0103195D01*
X0054740Y0103693D02*
X0057958Y0103693D01*
X0054740Y0104192D02*
X0093091Y0104192D01*
X0093396Y0104690D02*
X0054740Y0104690D01*
X0054997Y0095219D02*
X0062328Y0095219D01*
X0061830Y0094720D02*
X0055495Y0094720D01*
X0055994Y0094222D02*
X0061331Y0094222D01*
X0066000Y0066000D02*
X0056000Y0066000D01*
X0056000Y0051000D01*
X0051000Y0051000D01*
X0051000Y0066000D01*
X0041000Y0066000D01*
X0041000Y0051000D01*
X0036000Y0051000D01*
X0036000Y0066000D01*
X0026000Y0066000D01*
X0026000Y0051000D01*
X0021000Y0051000D01*
X0021000Y0066000D01*
X0011000Y0066000D01*
X0011000Y0051000D01*
X0006000Y0051000D01*
X0006000Y0011000D01*
X0191000Y0011000D01*
X0191000Y0051000D01*
X0186000Y0051000D01*
X0186000Y0066000D01*
X0176000Y0066000D01*
X0176000Y0051000D01*
X0171000Y0051000D01*
X0171000Y0066000D01*
X0161000Y0066000D01*
X0161000Y0051000D01*
X0156000Y0051000D01*
X0156000Y0066000D01*
X0146000Y0066000D01*
X0146000Y0051000D01*
X0141000Y0051000D01*
X0141000Y0066000D01*
X0131000Y0066000D01*
X0131000Y0051000D01*
X0126000Y0051000D01*
X0126000Y0066000D01*
X0116000Y0066000D01*
X0116000Y0051000D01*
X0111000Y0051000D01*
X0111000Y0066000D01*
X0101000Y0066000D01*
X0101000Y0051000D01*
X0096000Y0051000D01*
X0096000Y0066000D01*
X0086000Y0066000D01*
X0086000Y0051000D01*
X0081000Y0051000D01*
X0081000Y0066000D01*
X0071000Y0066000D01*
X0071000Y0051000D01*
X0066000Y0051000D01*
X0066000Y0066000D01*
X0066000Y0065806D02*
X0056000Y0065806D01*
X0056000Y0065308D02*
X0066000Y0065308D01*
X0066000Y0064809D02*
X0056000Y0064809D01*
X0056000Y0064311D02*
X0066000Y0064311D01*
X0066000Y0063812D02*
X0056000Y0063812D01*
X0056000Y0063314D02*
X0066000Y0063314D01*
X0066000Y0062815D02*
X0056000Y0062815D01*
X0056000Y0062317D02*
X0066000Y0062317D01*
X0066000Y0061818D02*
X0056000Y0061818D01*
X0056000Y0061320D02*
X0066000Y0061320D01*
X0066000Y0060821D02*
X0056000Y0060821D01*
X0056000Y0060323D02*
X0066000Y0060323D01*
X0066000Y0059824D02*
X0056000Y0059824D01*
X0056000Y0059326D02*
X0066000Y0059326D01*
X0066000Y0058827D02*
X0056000Y0058827D01*
X0056000Y0058329D02*
X0066000Y0058329D01*
X0066000Y0057830D02*
X0056000Y0057830D01*
X0056000Y0057332D02*
X0066000Y0057332D01*
X0066000Y0056833D02*
X0056000Y0056833D01*
X0056000Y0056335D02*
X0066000Y0056335D01*
X0066000Y0055836D02*
X0056000Y0055836D01*
X0056000Y0055338D02*
X0066000Y0055338D01*
X0066000Y0054839D02*
X0056000Y0054839D01*
X0056000Y0054341D02*
X0066000Y0054341D01*
X0066000Y0053842D02*
X0056000Y0053842D01*
X0056000Y0053344D02*
X0066000Y0053344D01*
X0066000Y0052845D02*
X0056000Y0052845D01*
X0056000Y0052347D02*
X0066000Y0052347D01*
X0066000Y0051848D02*
X0056000Y0051848D01*
X0056000Y0051350D02*
X0066000Y0051350D01*
X0071000Y0051350D02*
X0081000Y0051350D01*
X0081000Y0051848D02*
X0071000Y0051848D01*
X0071000Y0052347D02*
X0081000Y0052347D01*
X0081000Y0052845D02*
X0071000Y0052845D01*
X0071000Y0053344D02*
X0081000Y0053344D01*
X0081000Y0053842D02*
X0071000Y0053842D01*
X0071000Y0054341D02*
X0081000Y0054341D01*
X0081000Y0054839D02*
X0071000Y0054839D01*
X0071000Y0055338D02*
X0081000Y0055338D01*
X0081000Y0055836D02*
X0071000Y0055836D01*
X0071000Y0056335D02*
X0081000Y0056335D01*
X0081000Y0056833D02*
X0071000Y0056833D01*
X0071000Y0057332D02*
X0081000Y0057332D01*
X0081000Y0057830D02*
X0071000Y0057830D01*
X0071000Y0058329D02*
X0081000Y0058329D01*
X0081000Y0058827D02*
X0071000Y0058827D01*
X0071000Y0059326D02*
X0081000Y0059326D01*
X0081000Y0059824D02*
X0071000Y0059824D01*
X0071000Y0060323D02*
X0081000Y0060323D01*
X0081000Y0060821D02*
X0071000Y0060821D01*
X0071000Y0061320D02*
X0081000Y0061320D01*
X0081000Y0061818D02*
X0071000Y0061818D01*
X0071000Y0062317D02*
X0081000Y0062317D01*
X0081000Y0062815D02*
X0071000Y0062815D01*
X0071000Y0063314D02*
X0081000Y0063314D01*
X0081000Y0063812D02*
X0071000Y0063812D01*
X0071000Y0064311D02*
X0081000Y0064311D01*
X0081000Y0064809D02*
X0071000Y0064809D01*
X0071000Y0065308D02*
X0081000Y0065308D01*
X0081000Y0065806D02*
X0071000Y0065806D01*
X0086000Y0065806D02*
X0096000Y0065806D01*
X0096000Y0065308D02*
X0086000Y0065308D01*
X0086000Y0064809D02*
X0096000Y0064809D01*
X0096000Y0064311D02*
X0086000Y0064311D01*
X0086000Y0063812D02*
X0096000Y0063812D01*
X0096000Y0063314D02*
X0086000Y0063314D01*
X0086000Y0062815D02*
X0096000Y0062815D01*
X0096000Y0062317D02*
X0086000Y0062317D01*
X0086000Y0061818D02*
X0096000Y0061818D01*
X0096000Y0061320D02*
X0086000Y0061320D01*
X0086000Y0060821D02*
X0096000Y0060821D01*
X0096000Y0060323D02*
X0086000Y0060323D01*
X0086000Y0059824D02*
X0096000Y0059824D01*
X0096000Y0059326D02*
X0086000Y0059326D01*
X0086000Y0058827D02*
X0096000Y0058827D01*
X0096000Y0058329D02*
X0086000Y0058329D01*
X0086000Y0057830D02*
X0096000Y0057830D01*
X0096000Y0057332D02*
X0086000Y0057332D01*
X0086000Y0056833D02*
X0096000Y0056833D01*
X0096000Y0056335D02*
X0086000Y0056335D01*
X0086000Y0055836D02*
X0096000Y0055836D01*
X0096000Y0055338D02*
X0086000Y0055338D01*
X0086000Y0054839D02*
X0096000Y0054839D01*
X0096000Y0054341D02*
X0086000Y0054341D01*
X0086000Y0053842D02*
X0096000Y0053842D01*
X0096000Y0053344D02*
X0086000Y0053344D01*
X0086000Y0052845D02*
X0096000Y0052845D01*
X0096000Y0052347D02*
X0086000Y0052347D01*
X0086000Y0051848D02*
X0096000Y0051848D01*
X0096000Y0051350D02*
X0086000Y0051350D01*
X0094977Y0036272D02*
X0093228Y0034522D01*
X0092281Y0032237D01*
X0092281Y0029763D01*
X0093228Y0027477D01*
X0094977Y0025728D01*
X0097263Y0024781D01*
X0099737Y0024781D01*
X0102022Y0025728D01*
X0103772Y0027477D01*
X0104718Y0029763D01*
X0104718Y0032237D01*
X0103772Y0034522D01*
X0102022Y0036272D01*
X0099737Y0037218D01*
X0097263Y0037218D01*
X0094977Y0036272D01*
X0095273Y0036394D02*
X0061413Y0036394D01*
X0061413Y0035896D02*
X0094602Y0035896D01*
X0094103Y0035397D02*
X0061413Y0035397D01*
X0061413Y0034899D02*
X0093604Y0034899D01*
X0093178Y0034400D02*
X0061413Y0034400D01*
X0061413Y0033902D02*
X0092971Y0033902D01*
X0092765Y0033403D02*
X0066740Y0033403D01*
X0066893Y0033340D02*
X0065882Y0033759D01*
X0061413Y0033759D01*
X0061413Y0038228D01*
X0060994Y0039239D01*
X0060220Y0040012D01*
X0059210Y0040431D01*
X0058116Y0040431D01*
X0057105Y0040012D01*
X0056331Y0039239D01*
X0055913Y0038228D01*
X0055913Y0033759D01*
X0051443Y0033759D01*
X0050432Y0033340D01*
X0049659Y0032566D01*
X0049240Y0031556D01*
X0049240Y0030462D01*
X0049659Y0029451D01*
X0050432Y0028677D01*
X0051443Y0028259D01*
X0055913Y0028259D01*
X0055913Y0023789D01*
X0056331Y0022778D01*
X0057105Y0022005D01*
X0058116Y0021586D01*
X0059210Y0021586D01*
X0060220Y0022005D01*
X0060994Y0022778D01*
X0061413Y0023789D01*
X0061413Y0028259D01*
X0065882Y0028259D01*
X0066893Y0028677D01*
X0067666Y0029451D01*
X0068085Y0030462D01*
X0068085Y0031556D01*
X0067666Y0032566D01*
X0066893Y0033340D01*
X0067328Y0032905D02*
X0092558Y0032905D01*
X0092352Y0032406D02*
X0067733Y0032406D01*
X0067939Y0031908D02*
X0092281Y0031908D01*
X0092281Y0031409D02*
X0068085Y0031409D01*
X0068085Y0030911D02*
X0092281Y0030911D01*
X0092281Y0030412D02*
X0068064Y0030412D01*
X0067858Y0029914D02*
X0092281Y0029914D01*
X0092426Y0029415D02*
X0067631Y0029415D01*
X0067132Y0028917D02*
X0092632Y0028917D01*
X0092839Y0028418D02*
X0066267Y0028418D01*
X0061413Y0027920D02*
X0093045Y0027920D01*
X0093285Y0027421D02*
X0061413Y0027421D01*
X0061413Y0026923D02*
X0093783Y0026923D01*
X0094282Y0026424D02*
X0061413Y0026424D01*
X0061413Y0025926D02*
X0094780Y0025926D01*
X0095705Y0025427D02*
X0061413Y0025427D01*
X0061413Y0024929D02*
X0096908Y0024929D01*
X0100092Y0024929D02*
X0171908Y0024929D01*
X0172263Y0024781D02*
X0174737Y0024781D01*
X0177022Y0025728D01*
X0178772Y0027477D01*
X0179718Y0029763D01*
X0179718Y0032237D01*
X0178772Y0034522D01*
X0177022Y0036272D01*
X0174737Y0037218D01*
X0172263Y0037218D01*
X0169977Y0036272D01*
X0168228Y0034522D01*
X0167281Y0032237D01*
X0167281Y0029763D01*
X0168228Y0027477D01*
X0169977Y0025728D01*
X0172263Y0024781D01*
X0170705Y0025427D02*
X0101295Y0025427D01*
X0102220Y0025926D02*
X0169780Y0025926D01*
X0169282Y0026424D02*
X0102718Y0026424D01*
X0103217Y0026923D02*
X0168783Y0026923D01*
X0168285Y0027421D02*
X0103715Y0027421D01*
X0103955Y0027920D02*
X0168045Y0027920D01*
X0167839Y0028418D02*
X0104161Y0028418D01*
X0104368Y0028917D02*
X0167632Y0028917D01*
X0167426Y0029415D02*
X0104574Y0029415D01*
X0104718Y0029914D02*
X0167281Y0029914D01*
X0167281Y0030412D02*
X0104718Y0030412D01*
X0104718Y0030911D02*
X0167281Y0030911D01*
X0167281Y0031409D02*
X0104718Y0031409D01*
X0104718Y0031908D02*
X0167281Y0031908D01*
X0167352Y0032406D02*
X0104648Y0032406D01*
X0104442Y0032905D02*
X0167558Y0032905D01*
X0167765Y0033403D02*
X0104235Y0033403D01*
X0104029Y0033902D02*
X0167971Y0033902D01*
X0168178Y0034400D02*
X0103822Y0034400D01*
X0103395Y0034899D02*
X0168604Y0034899D01*
X0169103Y0035397D02*
X0102897Y0035397D01*
X0102398Y0035896D02*
X0169602Y0035896D01*
X0170273Y0036394D02*
X0101727Y0036394D01*
X0100523Y0036893D02*
X0171477Y0036893D01*
X0175523Y0036893D02*
X0191000Y0036893D01*
X0191000Y0037391D02*
X0061413Y0037391D01*
X0061413Y0036893D02*
X0096477Y0036893D01*
X0101000Y0051350D02*
X0111000Y0051350D01*
X0111000Y0051848D02*
X0101000Y0051848D01*
X0101000Y0052347D02*
X0111000Y0052347D01*
X0111000Y0052845D02*
X0101000Y0052845D01*
X0101000Y0053344D02*
X0111000Y0053344D01*
X0111000Y0053842D02*
X0101000Y0053842D01*
X0101000Y0054341D02*
X0111000Y0054341D01*
X0111000Y0054839D02*
X0101000Y0054839D01*
X0101000Y0055338D02*
X0111000Y0055338D01*
X0111000Y0055836D02*
X0101000Y0055836D01*
X0101000Y0056335D02*
X0111000Y0056335D01*
X0111000Y0056833D02*
X0101000Y0056833D01*
X0101000Y0057332D02*
X0111000Y0057332D01*
X0111000Y0057830D02*
X0101000Y0057830D01*
X0101000Y0058329D02*
X0111000Y0058329D01*
X0111000Y0058827D02*
X0101000Y0058827D01*
X0101000Y0059326D02*
X0111000Y0059326D01*
X0111000Y0059824D02*
X0101000Y0059824D01*
X0101000Y0060323D02*
X0111000Y0060323D01*
X0111000Y0060821D02*
X0101000Y0060821D01*
X0101000Y0061320D02*
X0111000Y0061320D01*
X0111000Y0061818D02*
X0101000Y0061818D01*
X0101000Y0062317D02*
X0111000Y0062317D01*
X0111000Y0062815D02*
X0101000Y0062815D01*
X0101000Y0063314D02*
X0111000Y0063314D01*
X0111000Y0063812D02*
X0101000Y0063812D01*
X0101000Y0064311D02*
X0111000Y0064311D01*
X0111000Y0064809D02*
X0101000Y0064809D01*
X0101000Y0065308D02*
X0111000Y0065308D01*
X0111000Y0065806D02*
X0101000Y0065806D01*
X0116000Y0065806D02*
X0126000Y0065806D01*
X0126000Y0065308D02*
X0116000Y0065308D01*
X0116000Y0064809D02*
X0126000Y0064809D01*
X0126000Y0064311D02*
X0116000Y0064311D01*
X0116000Y0063812D02*
X0126000Y0063812D01*
X0126000Y0063314D02*
X0116000Y0063314D01*
X0116000Y0062815D02*
X0126000Y0062815D01*
X0126000Y0062317D02*
X0116000Y0062317D01*
X0116000Y0061818D02*
X0126000Y0061818D01*
X0126000Y0061320D02*
X0116000Y0061320D01*
X0116000Y0060821D02*
X0126000Y0060821D01*
X0126000Y0060323D02*
X0116000Y0060323D01*
X0116000Y0059824D02*
X0126000Y0059824D01*
X0126000Y0059326D02*
X0116000Y0059326D01*
X0116000Y0058827D02*
X0126000Y0058827D01*
X0126000Y0058329D02*
X0116000Y0058329D01*
X0116000Y0057830D02*
X0126000Y0057830D01*
X0126000Y0057332D02*
X0116000Y0057332D01*
X0116000Y0056833D02*
X0126000Y0056833D01*
X0126000Y0056335D02*
X0116000Y0056335D01*
X0116000Y0055836D02*
X0126000Y0055836D01*
X0126000Y0055338D02*
X0116000Y0055338D01*
X0116000Y0054839D02*
X0126000Y0054839D01*
X0126000Y0054341D02*
X0116000Y0054341D01*
X0116000Y0053842D02*
X0126000Y0053842D01*
X0126000Y0053344D02*
X0116000Y0053344D01*
X0116000Y0052845D02*
X0126000Y0052845D01*
X0126000Y0052347D02*
X0116000Y0052347D01*
X0116000Y0051848D02*
X0126000Y0051848D01*
X0126000Y0051350D02*
X0116000Y0051350D01*
X0131000Y0051350D02*
X0141000Y0051350D01*
X0141000Y0051848D02*
X0131000Y0051848D01*
X0131000Y0052347D02*
X0141000Y0052347D01*
X0141000Y0052845D02*
X0131000Y0052845D01*
X0131000Y0053344D02*
X0141000Y0053344D01*
X0141000Y0053842D02*
X0131000Y0053842D01*
X0131000Y0054341D02*
X0141000Y0054341D01*
X0141000Y0054839D02*
X0131000Y0054839D01*
X0131000Y0055338D02*
X0141000Y0055338D01*
X0141000Y0055836D02*
X0131000Y0055836D01*
X0131000Y0056335D02*
X0141000Y0056335D01*
X0141000Y0056833D02*
X0131000Y0056833D01*
X0131000Y0057332D02*
X0141000Y0057332D01*
X0141000Y0057830D02*
X0131000Y0057830D01*
X0131000Y0058329D02*
X0141000Y0058329D01*
X0141000Y0058827D02*
X0131000Y0058827D01*
X0131000Y0059326D02*
X0141000Y0059326D01*
X0141000Y0059824D02*
X0131000Y0059824D01*
X0131000Y0060323D02*
X0141000Y0060323D01*
X0141000Y0060821D02*
X0131000Y0060821D01*
X0131000Y0061320D02*
X0141000Y0061320D01*
X0141000Y0061818D02*
X0131000Y0061818D01*
X0131000Y0062317D02*
X0141000Y0062317D01*
X0141000Y0062815D02*
X0131000Y0062815D01*
X0131000Y0063314D02*
X0141000Y0063314D01*
X0141000Y0063812D02*
X0131000Y0063812D01*
X0131000Y0064311D02*
X0141000Y0064311D01*
X0141000Y0064809D02*
X0131000Y0064809D01*
X0131000Y0065308D02*
X0141000Y0065308D01*
X0141000Y0065806D02*
X0131000Y0065806D01*
X0146000Y0065806D02*
X0156000Y0065806D01*
X0156000Y0065308D02*
X0146000Y0065308D01*
X0146000Y0064809D02*
X0156000Y0064809D01*
X0156000Y0064311D02*
X0146000Y0064311D01*
X0146000Y0063812D02*
X0156000Y0063812D01*
X0156000Y0063314D02*
X0146000Y0063314D01*
X0146000Y0062815D02*
X0156000Y0062815D01*
X0156000Y0062317D02*
X0146000Y0062317D01*
X0146000Y0061818D02*
X0156000Y0061818D01*
X0156000Y0061320D02*
X0146000Y0061320D01*
X0146000Y0060821D02*
X0156000Y0060821D01*
X0156000Y0060323D02*
X0146000Y0060323D01*
X0146000Y0059824D02*
X0156000Y0059824D01*
X0156000Y0059326D02*
X0146000Y0059326D01*
X0146000Y0058827D02*
X0156000Y0058827D01*
X0156000Y0058329D02*
X0146000Y0058329D01*
X0146000Y0057830D02*
X0156000Y0057830D01*
X0156000Y0057332D02*
X0146000Y0057332D01*
X0146000Y0056833D02*
X0156000Y0056833D01*
X0156000Y0056335D02*
X0146000Y0056335D01*
X0146000Y0055836D02*
X0156000Y0055836D01*
X0156000Y0055338D02*
X0146000Y0055338D01*
X0146000Y0054839D02*
X0156000Y0054839D01*
X0156000Y0054341D02*
X0146000Y0054341D01*
X0146000Y0053842D02*
X0156000Y0053842D01*
X0156000Y0053344D02*
X0146000Y0053344D01*
X0146000Y0052845D02*
X0156000Y0052845D01*
X0156000Y0052347D02*
X0146000Y0052347D01*
X0146000Y0051848D02*
X0156000Y0051848D01*
X0156000Y0051350D02*
X0146000Y0051350D01*
X0161000Y0051350D02*
X0171000Y0051350D01*
X0171000Y0051848D02*
X0161000Y0051848D01*
X0161000Y0052347D02*
X0171000Y0052347D01*
X0171000Y0052845D02*
X0161000Y0052845D01*
X0161000Y0053344D02*
X0171000Y0053344D01*
X0171000Y0053842D02*
X0161000Y0053842D01*
X0161000Y0054341D02*
X0171000Y0054341D01*
X0171000Y0054839D02*
X0161000Y0054839D01*
X0161000Y0055338D02*
X0171000Y0055338D01*
X0171000Y0055836D02*
X0161000Y0055836D01*
X0161000Y0056335D02*
X0171000Y0056335D01*
X0171000Y0056833D02*
X0161000Y0056833D01*
X0161000Y0057332D02*
X0171000Y0057332D01*
X0171000Y0057830D02*
X0161000Y0057830D01*
X0161000Y0058329D02*
X0171000Y0058329D01*
X0171000Y0058827D02*
X0161000Y0058827D01*
X0161000Y0059326D02*
X0171000Y0059326D01*
X0171000Y0059824D02*
X0161000Y0059824D01*
X0161000Y0060323D02*
X0171000Y0060323D01*
X0171000Y0060821D02*
X0161000Y0060821D01*
X0161000Y0061320D02*
X0171000Y0061320D01*
X0171000Y0061818D02*
X0161000Y0061818D01*
X0161000Y0062317D02*
X0171000Y0062317D01*
X0171000Y0062815D02*
X0161000Y0062815D01*
X0161000Y0063314D02*
X0171000Y0063314D01*
X0171000Y0063812D02*
X0161000Y0063812D01*
X0161000Y0064311D02*
X0171000Y0064311D01*
X0171000Y0064809D02*
X0161000Y0064809D01*
X0161000Y0065308D02*
X0171000Y0065308D01*
X0171000Y0065806D02*
X0161000Y0065806D01*
X0176000Y0065806D02*
X0186000Y0065806D01*
X0186000Y0065308D02*
X0176000Y0065308D01*
X0176000Y0064809D02*
X0186000Y0064809D01*
X0186000Y0064311D02*
X0176000Y0064311D01*
X0176000Y0063812D02*
X0186000Y0063812D01*
X0186000Y0063314D02*
X0176000Y0063314D01*
X0176000Y0062815D02*
X0186000Y0062815D01*
X0186000Y0062317D02*
X0176000Y0062317D01*
X0176000Y0061818D02*
X0186000Y0061818D01*
X0186000Y0061320D02*
X0176000Y0061320D01*
X0176000Y0060821D02*
X0186000Y0060821D01*
X0186000Y0060323D02*
X0176000Y0060323D01*
X0176000Y0059824D02*
X0186000Y0059824D01*
X0186000Y0059326D02*
X0176000Y0059326D01*
X0176000Y0058827D02*
X0186000Y0058827D01*
X0186000Y0058329D02*
X0176000Y0058329D01*
X0176000Y0057830D02*
X0186000Y0057830D01*
X0186000Y0057332D02*
X0176000Y0057332D01*
X0176000Y0056833D02*
X0186000Y0056833D01*
X0186000Y0056335D02*
X0176000Y0056335D01*
X0176000Y0055836D02*
X0186000Y0055836D01*
X0186000Y0055338D02*
X0176000Y0055338D01*
X0176000Y0054839D02*
X0186000Y0054839D01*
X0186000Y0054341D02*
X0176000Y0054341D01*
X0176000Y0053842D02*
X0186000Y0053842D01*
X0186000Y0053344D02*
X0176000Y0053344D01*
X0176000Y0052845D02*
X0186000Y0052845D01*
X0186000Y0052347D02*
X0176000Y0052347D01*
X0176000Y0051848D02*
X0186000Y0051848D01*
X0186000Y0051350D02*
X0176000Y0051350D01*
X0176727Y0036394D02*
X0191000Y0036394D01*
X0191000Y0035896D02*
X0177398Y0035896D01*
X0177897Y0035397D02*
X0191000Y0035397D01*
X0191000Y0034899D02*
X0178395Y0034899D01*
X0178822Y0034400D02*
X0191000Y0034400D01*
X0191000Y0033902D02*
X0179029Y0033902D01*
X0179235Y0033403D02*
X0191000Y0033403D01*
X0191000Y0032905D02*
X0179442Y0032905D01*
X0179648Y0032406D02*
X0191000Y0032406D01*
X0191000Y0031908D02*
X0179718Y0031908D01*
X0179718Y0031409D02*
X0191000Y0031409D01*
X0191000Y0030911D02*
X0179718Y0030911D01*
X0179718Y0030412D02*
X0191000Y0030412D01*
X0191000Y0029914D02*
X0179718Y0029914D01*
X0179574Y0029415D02*
X0191000Y0029415D01*
X0191000Y0028917D02*
X0179368Y0028917D01*
X0179161Y0028418D02*
X0191000Y0028418D01*
X0191000Y0027920D02*
X0178955Y0027920D01*
X0178715Y0027421D02*
X0191000Y0027421D01*
X0191000Y0026923D02*
X0178217Y0026923D01*
X0177718Y0026424D02*
X0191000Y0026424D01*
X0191000Y0025926D02*
X0177220Y0025926D01*
X0176295Y0025427D02*
X0191000Y0025427D01*
X0191000Y0024929D02*
X0175092Y0024929D01*
X0191000Y0024430D02*
X0061413Y0024430D01*
X0061413Y0023932D02*
X0191000Y0023932D01*
X0191000Y0023433D02*
X0061265Y0023433D01*
X0061059Y0022934D02*
X0191000Y0022934D01*
X0191000Y0022436D02*
X0060651Y0022436D01*
X0060058Y0021937D02*
X0191000Y0021937D01*
X0191000Y0021439D02*
X0006000Y0021439D01*
X0006000Y0021937D02*
X0057267Y0021937D01*
X0056674Y0022436D02*
X0006000Y0022436D01*
X0006000Y0022934D02*
X0056267Y0022934D01*
X0056060Y0023433D02*
X0006000Y0023433D01*
X0006000Y0023932D02*
X0055913Y0023932D01*
X0055913Y0024430D02*
X0006000Y0024430D01*
X0006000Y0024929D02*
X0021908Y0024929D01*
X0022263Y0024781D02*
X0024737Y0024781D01*
X0027022Y0025728D01*
X0028772Y0027477D01*
X0029718Y0029763D01*
X0029718Y0032237D01*
X0028772Y0034522D01*
X0027022Y0036272D01*
X0024737Y0037218D01*
X0022263Y0037218D01*
X0019977Y0036272D01*
X0018228Y0034522D01*
X0017281Y0032237D01*
X0017281Y0029763D01*
X0018228Y0027477D01*
X0019977Y0025728D01*
X0022263Y0024781D01*
X0020705Y0025427D02*
X0006000Y0025427D01*
X0006000Y0025926D02*
X0019780Y0025926D01*
X0019282Y0026424D02*
X0006000Y0026424D01*
X0006000Y0026923D02*
X0018783Y0026923D01*
X0018285Y0027421D02*
X0006000Y0027421D01*
X0006000Y0027920D02*
X0018045Y0027920D01*
X0017839Y0028418D02*
X0006000Y0028418D01*
X0006000Y0028917D02*
X0017632Y0028917D01*
X0017426Y0029415D02*
X0006000Y0029415D01*
X0006000Y0029914D02*
X0017281Y0029914D01*
X0017281Y0030412D02*
X0006000Y0030412D01*
X0006000Y0030911D02*
X0017281Y0030911D01*
X0017281Y0031409D02*
X0006000Y0031409D01*
X0006000Y0031908D02*
X0017281Y0031908D01*
X0017352Y0032406D02*
X0006000Y0032406D01*
X0006000Y0032905D02*
X0017558Y0032905D01*
X0017765Y0033403D02*
X0006000Y0033403D01*
X0006000Y0033902D02*
X0017971Y0033902D01*
X0018178Y0034400D02*
X0006000Y0034400D01*
X0006000Y0034899D02*
X0018604Y0034899D01*
X0019103Y0035397D02*
X0006000Y0035397D01*
X0006000Y0035896D02*
X0019602Y0035896D01*
X0020273Y0036394D02*
X0006000Y0036394D01*
X0006000Y0036893D02*
X0021477Y0036893D01*
X0025523Y0036893D02*
X0055913Y0036893D01*
X0055913Y0037391D02*
X0006000Y0037391D01*
X0006000Y0037890D02*
X0055913Y0037890D01*
X0055979Y0038388D02*
X0006000Y0038388D01*
X0006000Y0038887D02*
X0056185Y0038887D01*
X0056478Y0039385D02*
X0006000Y0039385D01*
X0006000Y0039884D02*
X0056976Y0039884D01*
X0057998Y0040382D02*
X0006000Y0040382D01*
X0006000Y0040881D02*
X0191000Y0040881D01*
X0191000Y0041379D02*
X0006000Y0041379D01*
X0006000Y0041878D02*
X0191000Y0041878D01*
X0191000Y0042376D02*
X0006000Y0042376D01*
X0006000Y0042875D02*
X0191000Y0042875D01*
X0191000Y0043373D02*
X0006000Y0043373D01*
X0006000Y0043872D02*
X0191000Y0043872D01*
X0191000Y0044370D02*
X0006000Y0044370D01*
X0006000Y0044869D02*
X0191000Y0044869D01*
X0191000Y0045368D02*
X0006000Y0045368D01*
X0006000Y0045866D02*
X0191000Y0045866D01*
X0191000Y0046365D02*
X0006000Y0046365D01*
X0006000Y0046863D02*
X0191000Y0046863D01*
X0191000Y0047362D02*
X0006000Y0047362D01*
X0006000Y0047860D02*
X0191000Y0047860D01*
X0191000Y0048359D02*
X0006000Y0048359D01*
X0006000Y0048857D02*
X0191000Y0048857D01*
X0191000Y0049356D02*
X0006000Y0049356D01*
X0006000Y0049854D02*
X0191000Y0049854D01*
X0191000Y0050353D02*
X0006000Y0050353D01*
X0006000Y0050851D02*
X0191000Y0050851D01*
X0191000Y0040382D02*
X0059327Y0040382D01*
X0060349Y0039884D02*
X0191000Y0039884D01*
X0191000Y0039385D02*
X0060847Y0039385D01*
X0061140Y0038887D02*
X0191000Y0038887D01*
X0191000Y0038388D02*
X0061346Y0038388D01*
X0061413Y0037890D02*
X0191000Y0037890D01*
X0191000Y0020940D02*
X0006000Y0020940D01*
X0006000Y0020442D02*
X0191000Y0020442D01*
X0191000Y0019943D02*
X0006000Y0019943D01*
X0006000Y0019445D02*
X0191000Y0019445D01*
X0191000Y0018946D02*
X0006000Y0018946D01*
X0006000Y0018448D02*
X0191000Y0018448D01*
X0191000Y0017949D02*
X0006000Y0017949D01*
X0006000Y0017451D02*
X0191000Y0017451D01*
X0191000Y0016952D02*
X0006000Y0016952D01*
X0006000Y0016454D02*
X0191000Y0016454D01*
X0191000Y0015955D02*
X0006000Y0015955D01*
X0006000Y0015457D02*
X0191000Y0015457D01*
X0191000Y0014958D02*
X0006000Y0014958D01*
X0006000Y0014460D02*
X0191000Y0014460D01*
X0191000Y0013961D02*
X0006000Y0013961D01*
X0006000Y0013463D02*
X0191000Y0013463D01*
X0191000Y0012964D02*
X0006000Y0012964D01*
X0006000Y0012466D02*
X0191000Y0012466D01*
X0191000Y0011967D02*
X0006000Y0011967D01*
X0006000Y0011469D02*
X0191000Y0011469D01*
X0191000Y0114162D02*
X0006000Y0114162D01*
X0006000Y0114661D02*
X0191000Y0114661D01*
X0191000Y0115159D02*
X0006000Y0115159D01*
X0006000Y0115658D02*
X0191000Y0115658D01*
X0191000Y0116156D02*
X0006000Y0116156D01*
X0006000Y0116655D02*
X0191000Y0116655D01*
X0191000Y0117153D02*
X0006000Y0117153D01*
X0006000Y0117652D02*
X0191000Y0117652D01*
X0191000Y0118150D02*
X0006000Y0118150D01*
X0006000Y0118649D02*
X0191000Y0118649D01*
X0191000Y0119147D02*
X0006000Y0119147D01*
X0006000Y0119646D02*
X0191000Y0119646D01*
X0191000Y0120144D02*
X0006000Y0120144D01*
X0006000Y0120643D02*
X0191000Y0120643D01*
X0186000Y0121141D02*
X0176000Y0121141D01*
X0176000Y0121640D02*
X0186000Y0121640D01*
X0186000Y0122138D02*
X0176000Y0122138D01*
X0176000Y0122637D02*
X0186000Y0122637D01*
X0186000Y0123135D02*
X0176000Y0123135D01*
X0176000Y0123634D02*
X0186000Y0123634D01*
X0186000Y0124132D02*
X0176000Y0124132D01*
X0176000Y0124631D02*
X0186000Y0124631D01*
X0186000Y0125129D02*
X0176000Y0125129D01*
X0176000Y0125628D02*
X0186000Y0125628D01*
X0186000Y0126126D02*
X0176000Y0126126D01*
X0176000Y0126625D02*
X0186000Y0126625D01*
X0186000Y0127123D02*
X0176000Y0127123D01*
X0176000Y0127622D02*
X0186000Y0127622D01*
X0186000Y0128120D02*
X0176000Y0128120D01*
X0176000Y0128619D02*
X0186000Y0128619D01*
X0186000Y0129117D02*
X0176000Y0129117D01*
X0176000Y0129616D02*
X0186000Y0129616D01*
X0186000Y0130114D02*
X0176000Y0130114D01*
X0176000Y0130613D02*
X0186000Y0130613D01*
X0186000Y0131111D02*
X0176000Y0131111D01*
X0176000Y0131610D02*
X0186000Y0131610D01*
X0186000Y0132108D02*
X0176000Y0132108D01*
X0176000Y0132607D02*
X0186000Y0132607D01*
X0186000Y0133105D02*
X0176000Y0133105D01*
X0176000Y0133604D02*
X0186000Y0133604D01*
X0186000Y0134103D02*
X0176000Y0134103D01*
X0176000Y0134601D02*
X0186000Y0134601D01*
X0186000Y0135100D02*
X0176000Y0135100D01*
X0176000Y0135598D02*
X0186000Y0135598D01*
X0171000Y0135598D02*
X0161000Y0135598D01*
X0161000Y0135100D02*
X0171000Y0135100D01*
X0171000Y0134601D02*
X0161000Y0134601D01*
X0161000Y0134103D02*
X0171000Y0134103D01*
X0171000Y0133604D02*
X0161000Y0133604D01*
X0161000Y0133105D02*
X0171000Y0133105D01*
X0171000Y0132607D02*
X0161000Y0132607D01*
X0161000Y0132108D02*
X0171000Y0132108D01*
X0171000Y0131610D02*
X0161000Y0131610D01*
X0161000Y0131111D02*
X0171000Y0131111D01*
X0171000Y0130613D02*
X0161000Y0130613D01*
X0161000Y0130114D02*
X0171000Y0130114D01*
X0171000Y0129616D02*
X0161000Y0129616D01*
X0161000Y0129117D02*
X0171000Y0129117D01*
X0171000Y0128619D02*
X0161000Y0128619D01*
X0161000Y0128120D02*
X0171000Y0128120D01*
X0171000Y0127622D02*
X0161000Y0127622D01*
X0161000Y0127123D02*
X0171000Y0127123D01*
X0171000Y0126625D02*
X0161000Y0126625D01*
X0161000Y0126126D02*
X0171000Y0126126D01*
X0171000Y0125628D02*
X0161000Y0125628D01*
X0161000Y0125129D02*
X0171000Y0125129D01*
X0171000Y0124631D02*
X0161000Y0124631D01*
X0161000Y0124132D02*
X0171000Y0124132D01*
X0171000Y0123634D02*
X0161000Y0123634D01*
X0161000Y0123135D02*
X0171000Y0123135D01*
X0171000Y0122637D02*
X0161000Y0122637D01*
X0161000Y0122138D02*
X0171000Y0122138D01*
X0171000Y0121640D02*
X0161000Y0121640D01*
X0161000Y0121141D02*
X0171000Y0121141D01*
X0156000Y0121141D02*
X0146000Y0121141D01*
X0146000Y0121640D02*
X0156000Y0121640D01*
X0156000Y0122138D02*
X0146000Y0122138D01*
X0146000Y0122637D02*
X0156000Y0122637D01*
X0156000Y0123135D02*
X0146000Y0123135D01*
X0146000Y0123634D02*
X0156000Y0123634D01*
X0156000Y0124132D02*
X0146000Y0124132D01*
X0146000Y0124631D02*
X0156000Y0124631D01*
X0156000Y0125129D02*
X0146000Y0125129D01*
X0146000Y0125628D02*
X0156000Y0125628D01*
X0156000Y0126126D02*
X0146000Y0126126D01*
X0146000Y0126625D02*
X0156000Y0126625D01*
X0156000Y0127123D02*
X0146000Y0127123D01*
X0146000Y0127622D02*
X0156000Y0127622D01*
X0156000Y0128120D02*
X0146000Y0128120D01*
X0146000Y0128619D02*
X0156000Y0128619D01*
X0156000Y0129117D02*
X0146000Y0129117D01*
X0146000Y0129616D02*
X0156000Y0129616D01*
X0156000Y0130114D02*
X0146000Y0130114D01*
X0146000Y0130613D02*
X0156000Y0130613D01*
X0156000Y0131111D02*
X0146000Y0131111D01*
X0146000Y0131610D02*
X0156000Y0131610D01*
X0156000Y0132108D02*
X0146000Y0132108D01*
X0146000Y0132607D02*
X0156000Y0132607D01*
X0156000Y0133105D02*
X0146000Y0133105D01*
X0146000Y0133604D02*
X0156000Y0133604D01*
X0156000Y0134103D02*
X0146000Y0134103D01*
X0146000Y0134601D02*
X0156000Y0134601D01*
X0156000Y0135100D02*
X0146000Y0135100D01*
X0146000Y0135598D02*
X0156000Y0135598D01*
X0141000Y0135598D02*
X0131000Y0135598D01*
X0131000Y0135100D02*
X0141000Y0135100D01*
X0141000Y0134601D02*
X0131000Y0134601D01*
X0131000Y0134103D02*
X0141000Y0134103D01*
X0141000Y0133604D02*
X0131000Y0133604D01*
X0131000Y0133105D02*
X0141000Y0133105D01*
X0141000Y0132607D02*
X0131000Y0132607D01*
X0131000Y0132108D02*
X0141000Y0132108D01*
X0141000Y0131610D02*
X0131000Y0131610D01*
X0131000Y0131111D02*
X0141000Y0131111D01*
X0141000Y0130613D02*
X0131000Y0130613D01*
X0131000Y0130114D02*
X0141000Y0130114D01*
X0141000Y0129616D02*
X0131000Y0129616D01*
X0131000Y0129117D02*
X0141000Y0129117D01*
X0141000Y0128619D02*
X0131000Y0128619D01*
X0131000Y0128120D02*
X0141000Y0128120D01*
X0141000Y0127622D02*
X0131000Y0127622D01*
X0131000Y0127123D02*
X0141000Y0127123D01*
X0141000Y0126625D02*
X0131000Y0126625D01*
X0131000Y0126126D02*
X0141000Y0126126D01*
X0141000Y0125628D02*
X0131000Y0125628D01*
X0131000Y0125129D02*
X0141000Y0125129D01*
X0141000Y0124631D02*
X0131000Y0124631D01*
X0131000Y0124132D02*
X0141000Y0124132D01*
X0141000Y0123634D02*
X0131000Y0123634D01*
X0131000Y0123135D02*
X0141000Y0123135D01*
X0141000Y0122637D02*
X0131000Y0122637D01*
X0131000Y0122138D02*
X0141000Y0122138D01*
X0141000Y0121640D02*
X0131000Y0121640D01*
X0131000Y0121141D02*
X0141000Y0121141D01*
X0126000Y0121141D02*
X0116000Y0121141D01*
X0116000Y0121640D02*
X0126000Y0121640D01*
X0126000Y0122138D02*
X0116000Y0122138D01*
X0116000Y0122637D02*
X0126000Y0122637D01*
X0126000Y0123135D02*
X0116000Y0123135D01*
X0116000Y0123634D02*
X0126000Y0123634D01*
X0126000Y0124132D02*
X0116000Y0124132D01*
X0116000Y0124631D02*
X0126000Y0124631D01*
X0126000Y0125129D02*
X0116000Y0125129D01*
X0116000Y0125628D02*
X0126000Y0125628D01*
X0126000Y0126126D02*
X0116000Y0126126D01*
X0116000Y0126625D02*
X0126000Y0126625D01*
X0126000Y0127123D02*
X0116000Y0127123D01*
X0116000Y0127622D02*
X0126000Y0127622D01*
X0126000Y0128120D02*
X0116000Y0128120D01*
X0116000Y0128619D02*
X0126000Y0128619D01*
X0126000Y0129117D02*
X0116000Y0129117D01*
X0116000Y0129616D02*
X0126000Y0129616D01*
X0126000Y0130114D02*
X0116000Y0130114D01*
X0116000Y0130613D02*
X0126000Y0130613D01*
X0126000Y0131111D02*
X0116000Y0131111D01*
X0116000Y0131610D02*
X0126000Y0131610D01*
X0126000Y0132108D02*
X0116000Y0132108D01*
X0116000Y0132607D02*
X0126000Y0132607D01*
X0126000Y0133105D02*
X0116000Y0133105D01*
X0116000Y0133604D02*
X0126000Y0133604D01*
X0126000Y0134103D02*
X0116000Y0134103D01*
X0116000Y0134601D02*
X0126000Y0134601D01*
X0126000Y0135100D02*
X0116000Y0135100D01*
X0116000Y0135598D02*
X0126000Y0135598D01*
X0111000Y0135598D02*
X0101000Y0135598D01*
X0101000Y0135100D02*
X0111000Y0135100D01*
X0111000Y0134601D02*
X0101000Y0134601D01*
X0101000Y0134103D02*
X0111000Y0134103D01*
X0111000Y0133604D02*
X0101000Y0133604D01*
X0101000Y0133105D02*
X0111000Y0133105D01*
X0111000Y0132607D02*
X0101000Y0132607D01*
X0101000Y0132108D02*
X0111000Y0132108D01*
X0111000Y0131610D02*
X0101000Y0131610D01*
X0101000Y0131111D02*
X0111000Y0131111D01*
X0111000Y0130613D02*
X0101000Y0130613D01*
X0101000Y0130114D02*
X0111000Y0130114D01*
X0111000Y0129616D02*
X0101000Y0129616D01*
X0101000Y0129117D02*
X0111000Y0129117D01*
X0111000Y0128619D02*
X0101000Y0128619D01*
X0101000Y0128120D02*
X0111000Y0128120D01*
X0111000Y0127622D02*
X0101000Y0127622D01*
X0101000Y0127123D02*
X0111000Y0127123D01*
X0111000Y0126625D02*
X0101000Y0126625D01*
X0101000Y0126126D02*
X0111000Y0126126D01*
X0111000Y0125628D02*
X0101000Y0125628D01*
X0101000Y0125129D02*
X0111000Y0125129D01*
X0111000Y0124631D02*
X0101000Y0124631D01*
X0101000Y0124132D02*
X0111000Y0124132D01*
X0111000Y0123634D02*
X0101000Y0123634D01*
X0101000Y0123135D02*
X0111000Y0123135D01*
X0111000Y0122637D02*
X0101000Y0122637D01*
X0101000Y0122138D02*
X0111000Y0122138D01*
X0111000Y0121640D02*
X0101000Y0121640D01*
X0101000Y0121141D02*
X0111000Y0121141D01*
X0096000Y0121141D02*
X0086000Y0121141D01*
X0086000Y0121640D02*
X0096000Y0121640D01*
X0096000Y0122138D02*
X0086000Y0122138D01*
X0086000Y0122637D02*
X0096000Y0122637D01*
X0096000Y0123135D02*
X0086000Y0123135D01*
X0086000Y0123634D02*
X0096000Y0123634D01*
X0096000Y0124132D02*
X0086000Y0124132D01*
X0086000Y0124631D02*
X0096000Y0124631D01*
X0096000Y0125129D02*
X0086000Y0125129D01*
X0086000Y0125628D02*
X0096000Y0125628D01*
X0096000Y0126126D02*
X0086000Y0126126D01*
X0086000Y0126625D02*
X0096000Y0126625D01*
X0096000Y0127123D02*
X0086000Y0127123D01*
X0086000Y0127622D02*
X0096000Y0127622D01*
X0096000Y0128120D02*
X0086000Y0128120D01*
X0086000Y0128619D02*
X0096000Y0128619D01*
X0096000Y0129117D02*
X0086000Y0129117D01*
X0086000Y0129616D02*
X0096000Y0129616D01*
X0096000Y0130114D02*
X0086000Y0130114D01*
X0086000Y0130613D02*
X0096000Y0130613D01*
X0096000Y0131111D02*
X0086000Y0131111D01*
X0086000Y0131610D02*
X0096000Y0131610D01*
X0096000Y0132108D02*
X0086000Y0132108D01*
X0086000Y0132607D02*
X0096000Y0132607D01*
X0096000Y0133105D02*
X0086000Y0133105D01*
X0086000Y0133604D02*
X0096000Y0133604D01*
X0096000Y0134103D02*
X0086000Y0134103D01*
X0086000Y0134601D02*
X0096000Y0134601D01*
X0096000Y0135100D02*
X0086000Y0135100D01*
X0086000Y0135598D02*
X0096000Y0135598D01*
X0051000Y0065806D02*
X0041000Y0065806D01*
X0041000Y0065308D02*
X0051000Y0065308D01*
X0051000Y0064809D02*
X0041000Y0064809D01*
X0041000Y0064311D02*
X0051000Y0064311D01*
X0051000Y0063812D02*
X0041000Y0063812D01*
X0041000Y0063314D02*
X0051000Y0063314D01*
X0051000Y0062815D02*
X0041000Y0062815D01*
X0041000Y0062317D02*
X0051000Y0062317D01*
X0051000Y0061818D02*
X0041000Y0061818D01*
X0041000Y0061320D02*
X0051000Y0061320D01*
X0051000Y0060821D02*
X0041000Y0060821D01*
X0041000Y0060323D02*
X0051000Y0060323D01*
X0051000Y0059824D02*
X0041000Y0059824D01*
X0041000Y0059326D02*
X0051000Y0059326D01*
X0051000Y0058827D02*
X0041000Y0058827D01*
X0041000Y0058329D02*
X0051000Y0058329D01*
X0051000Y0057830D02*
X0041000Y0057830D01*
X0041000Y0057332D02*
X0051000Y0057332D01*
X0051000Y0056833D02*
X0041000Y0056833D01*
X0041000Y0056335D02*
X0051000Y0056335D01*
X0051000Y0055836D02*
X0041000Y0055836D01*
X0041000Y0055338D02*
X0051000Y0055338D01*
X0051000Y0054839D02*
X0041000Y0054839D01*
X0041000Y0054341D02*
X0051000Y0054341D01*
X0051000Y0053842D02*
X0041000Y0053842D01*
X0041000Y0053344D02*
X0051000Y0053344D01*
X0051000Y0052845D02*
X0041000Y0052845D01*
X0041000Y0052347D02*
X0051000Y0052347D01*
X0051000Y0051848D02*
X0041000Y0051848D01*
X0041000Y0051350D02*
X0051000Y0051350D01*
X0055913Y0036394D02*
X0026727Y0036394D01*
X0027398Y0035896D02*
X0055913Y0035896D01*
X0055913Y0035397D02*
X0027897Y0035397D01*
X0028395Y0034899D02*
X0055913Y0034899D01*
X0055913Y0034400D02*
X0028822Y0034400D01*
X0029029Y0033902D02*
X0055913Y0033902D01*
X0055913Y0027920D02*
X0028955Y0027920D01*
X0029161Y0028418D02*
X0051058Y0028418D01*
X0050193Y0028917D02*
X0029368Y0028917D01*
X0029574Y0029415D02*
X0049694Y0029415D01*
X0049467Y0029914D02*
X0029718Y0029914D01*
X0029718Y0030412D02*
X0049261Y0030412D01*
X0049240Y0030911D02*
X0029718Y0030911D01*
X0029718Y0031409D02*
X0049240Y0031409D01*
X0049386Y0031908D02*
X0029718Y0031908D01*
X0029648Y0032406D02*
X0049593Y0032406D01*
X0049997Y0032905D02*
X0029442Y0032905D01*
X0029235Y0033403D02*
X0050585Y0033403D01*
X0055913Y0027421D02*
X0028715Y0027421D01*
X0028217Y0026923D02*
X0055913Y0026923D01*
X0055913Y0026424D02*
X0027718Y0026424D01*
X0027220Y0025926D02*
X0055913Y0025926D01*
X0055913Y0025427D02*
X0026295Y0025427D01*
X0025092Y0024929D02*
X0055913Y0024929D01*
X0036000Y0051350D02*
X0026000Y0051350D01*
X0026000Y0051848D02*
X0036000Y0051848D01*
X0036000Y0052347D02*
X0026000Y0052347D01*
X0026000Y0052845D02*
X0036000Y0052845D01*
X0036000Y0053344D02*
X0026000Y0053344D01*
X0026000Y0053842D02*
X0036000Y0053842D01*
X0036000Y0054341D02*
X0026000Y0054341D01*
X0026000Y0054839D02*
X0036000Y0054839D01*
X0036000Y0055338D02*
X0026000Y0055338D01*
X0026000Y0055836D02*
X0036000Y0055836D01*
X0036000Y0056335D02*
X0026000Y0056335D01*
X0026000Y0056833D02*
X0036000Y0056833D01*
X0036000Y0057332D02*
X0026000Y0057332D01*
X0026000Y0057830D02*
X0036000Y0057830D01*
X0036000Y0058329D02*
X0026000Y0058329D01*
X0026000Y0058827D02*
X0036000Y0058827D01*
X0036000Y0059326D02*
X0026000Y0059326D01*
X0026000Y0059824D02*
X0036000Y0059824D01*
X0036000Y0060323D02*
X0026000Y0060323D01*
X0026000Y0060821D02*
X0036000Y0060821D01*
X0036000Y0061320D02*
X0026000Y0061320D01*
X0026000Y0061818D02*
X0036000Y0061818D01*
X0036000Y0062317D02*
X0026000Y0062317D01*
X0026000Y0062815D02*
X0036000Y0062815D01*
X0036000Y0063314D02*
X0026000Y0063314D01*
X0026000Y0063812D02*
X0036000Y0063812D01*
X0036000Y0064311D02*
X0026000Y0064311D01*
X0026000Y0064809D02*
X0036000Y0064809D01*
X0036000Y0065308D02*
X0026000Y0065308D01*
X0026000Y0065806D02*
X0036000Y0065806D01*
X0021000Y0065806D02*
X0011000Y0065806D01*
X0011000Y0065308D02*
X0021000Y0065308D01*
X0021000Y0064809D02*
X0011000Y0064809D01*
X0011000Y0064311D02*
X0021000Y0064311D01*
X0021000Y0063812D02*
X0011000Y0063812D01*
X0011000Y0063314D02*
X0021000Y0063314D01*
X0021000Y0062815D02*
X0011000Y0062815D01*
X0011000Y0062317D02*
X0021000Y0062317D01*
X0021000Y0061818D02*
X0011000Y0061818D01*
X0011000Y0061320D02*
X0021000Y0061320D01*
X0021000Y0060821D02*
X0011000Y0060821D01*
X0011000Y0060323D02*
X0021000Y0060323D01*
X0021000Y0059824D02*
X0011000Y0059824D01*
X0011000Y0059326D02*
X0021000Y0059326D01*
X0021000Y0058827D02*
X0011000Y0058827D01*
X0011000Y0058329D02*
X0021000Y0058329D01*
X0021000Y0057830D02*
X0011000Y0057830D01*
X0011000Y0057332D02*
X0021000Y0057332D01*
X0021000Y0056833D02*
X0011000Y0056833D01*
X0011000Y0056335D02*
X0021000Y0056335D01*
X0021000Y0055836D02*
X0011000Y0055836D01*
X0011000Y0055338D02*
X0021000Y0055338D01*
X0021000Y0054839D02*
X0011000Y0054839D01*
X0011000Y0054341D02*
X0021000Y0054341D01*
X0021000Y0053842D02*
X0011000Y0053842D01*
X0011000Y0053344D02*
X0021000Y0053344D01*
X0021000Y0052845D02*
X0011000Y0052845D01*
X0011000Y0052347D02*
X0021000Y0052347D01*
X0021000Y0051848D02*
X0011000Y0051848D01*
X0011000Y0051350D02*
X0021000Y0051350D01*
M02*
